Antonio-SemiBold.ufo
<glyph name="exclam" format="2">
  <advance width="522.1666666666666"/>
  <unicode hex="0021"/>
  <outline>
    <contour>
      <point x="214.5" y="406.6666666666667" type="line"/>
      <point x="309.3333333333333" y="406.6666666666667" type="line"/>
      <point x="388.5" y="1760.0" type="line"/>
      <point x="133.08333333333334" y="1760.0" type="line"/>
    </contour>
    <contour>
      <point x="140.58333333333334" y="0.0" type="line"/>
      <point x="378.4166666666667" y="0.0" type="line"/>
      <point x="378.4166666666667" y="239.66666666666666" type="line"/>
      <point x="140.58333333333334" y="239.66666666666666" type="line"/>
    </contour>
  </outline>
</glyph>
<glyph name="quotedbl" format="2">
  <advance width="827.3333333333334"/>
  <unicode hex="0022"/>
  <outline>
    <contour>
      <point x="385.0833333333333" y="1085.9166666666667" type="line"/>
      <point x="470.91666666666663" y="1085.9166666666667" type="line"/>
      <point x="567.8333333333334" y="1760.0" type="line"/>
      <point x="355.5" y="1760.0" type="line"/>
    </contour>
    <contour>
      <point x="346.4166666666667" y="1085.9166666666667" type="line"/>
      <point x="432.25" y="1085.9166666666667" type="line"/>
      <point x="529.1666666666667" y="1760.0" type="line"/>
      <point x="317.25" y="1760.0" type="line"/>
    </contour>
  </outline>
</glyph>
<glyph name="numbersign" format="2">
  <advance width="1034.8333333333333"/>
  <unicode hex="0023"/>
  <outline>
    <contour>
      <point x="126.16666666666667" y="0.0" type="line"/>
      <point x="296.6666666666667" y="0.0" type="line"/>
      <point x="393.3333333333333" y="606.4166666666666" type="line"/>
      <point x="569.6666666666666" y="606.4166666666666" type="line"/>
      <point x="473.0" y="0.0" type="line"/>
      <point x="643.5" y="0.0" type="line"/>
      <point x="741.75" y="606.4166666666666" type="line"/>
      <point x="927.0" y="606.4166666666666" type="line"/>
      <point x="927.0" y="732.0" type="line"/>
      <point x="762.75" y="732.0" type="line"/>
      <point x="815.4166666666666" y="1059.0" type="line"/>
      <point x="975.9166666666666" y="1059.0" type="line"/>
      <point x="975.9166666666666" y="1184.1666666666667" type="line"/>
      <point x="837.1666666666666" y="1184.1666666666667" type="line"/>
      <point x="931.25" y="1760.0" type="line"/>
      <point x="760.3333333333334" y="1760.0" type="line"/>
      <point x="664.0833333333334" y="1184.1666666666667" type="line"/>
      <point x="488.33333333333337" y="1184.1666666666667" type="line"/>
      <point x="584.4166666666666" y="1760.0" type="line"/>
      <point x="413.5" y="1760.0" type="line"/>
      <point x="318.4166666666667" y="1184.1666666666667" type="line"/>
      <point x="129.41666666666669" y="1184.1666666666667" type="line"/>
      <point x="129.41666666666669" y="1059.0" type="line"/>
      <point x="296.6666666666667" y="1059.0" type="line"/>
      <point x="244.0" y="732.0" type="line"/>
      <point x="80.5" y="732.0" type="line"/>
      <point x="80.5" y="606.4166666666666" type="line"/>
      <point x="223.41666666666666" y="606.4166666666666" type="line"/>
    </contour>
    <contour>
      <point x="413.33333333333337" y="731.0" type="line"/>
      <point x="466.58333333333337" y="1055.4166666666667" type="line"/>
      <point x="643.9166666666666" y="1055.4166666666667" type="line"/>
      <point x="591.8333333333334" y="731.0" type="line"/>
    </contour>
  </outline>
</glyph>
<glyph name="dollar" format="2">
  <advance width="844.8333333333334"/>
  <unicode hex="0024"/>
  <anchor x="414.0833333333333" y="15.0" name="bottom"/>
  <anchor x="414.0833333333333" y="1515.0" name="top"/>
  <outline>
    <contour>
      <point x="381.0833333333333" y="-235.16666666666666" type="line"/>
      <point x="505.25" y="-235.16666666666666" type="line"/>
      <point x="505.25" y="41.916666666666664" type="line"/>
      <point x="381.0833333333333" y="41.916666666666664" type="line"/>
    </contour>
    <contour>
      <point x="368.5833333333333" y="1492.9166666666667" type="line"/>
      <point x="492.75" y="1492.9166666666667" type="line"/>
      <point x="492.75" y="1760.0" type="line"/>
      <point x="368.5833333333333" y="1760.0" type="line"/>
    </contour>
    <component base="s" yOffset="15.0"/>
  </outline>
</glyph>
<glyph name="percent" format="2">
  <advance width="2190.9166666666665"/>
  <unicode hex="0025"/>
  <outline>
    <contour>
      <point x="656.1666666666666" y="0.0" type="line"/>
      <point x="849.3333333333334" y="0.0" type="line"/>
      <point x="1539.3333333333333" y="1760.0" type="line"/>
      <point x="1354.5833333333333" y="1760.0" type="line"/>
    </contour>
    <contour>
      <point x="472.6666666666667" y="580.5833333333334" type="curve" smooth="yes"/>
      <point x="706.5833333333334" y="580.5833333333334"/>
      <point x="794.9166666666666" y="700.75"/>
      <point x="794.9166666666666" y="1007.3333333333334" type="curve" smooth="yes"/>
      <point x="794.9166666666666" y="1363.5833333333333" type="line" smooth="yes"/>
      <point x="794.9166666666666" y="1667.9166666666667"/>
      <point x="711.25" y="1781.5833333333333"/>
      <point x="472.6666666666667" y="1781.5833333333333" type="curve" smooth="yes"/>
      <point x="234.66666666666666" y="1781.5833333333333"/>
      <point x="151.0" y="1667.9166666666667"/>
      <point x="151.0" y="1363.5833333333333" type="curve" smooth="yes"/>
      <point x="151.0" y="1007.3333333333334" type="line" smooth="yes"/>
      <point x="151.0" y="700.75"/>
      <point x="239.75" y="580.5833333333334"/>
    </contour>
    <contour>
      <point x="472.6666666666667" y="752.8333333333334" type="curve" smooth="yes"/>
      <point x="379.8333333333333" y="752.8333333333334"/>
      <point x="353.0833333333333" y="804.0833333333334"/>
      <point x="353.0833333333333" y="937.8333333333334" type="curve" smooth="yes"/>
      <point x="353.0833333333333" y="1432.1666666666667" type="line" smooth="yes"/>
      <point x="353.0833333333333" y="1562.3333333333333"/>
      <point x="378.0" y="1609.75"/>
      <point x="472.6666666666667" y="1609.75" type="curve" smooth="yes"/>
      <point x="567.3333333333334" y="1609.75"/>
      <point x="592.25" y="1563.3333333333333"/>
      <point x="592.25" y="1432.1666666666667" type="curve" smooth="yes"/>
      <point x="592.25" y="937.8333333333334" type="line" smooth="yes"/>
      <point x="592.25" y="804.0833333333334"/>
      <point x="565.5" y="752.8333333333334"/>
    </contour>
    <contour>
      <point x="1711.25" y="-20.416666666666668" type="curve" smooth="yes"/>
      <point x="1944.5833333333333" y="-20.416666666666668"/>
      <point x="2033.3333333333333" y="99.75"/>
      <point x="2033.3333333333333" y="406.3333333333333" type="curve" smooth="yes"/>
      <point x="2033.3333333333333" y="762.5833333333334" type="line" smooth="yes"/>
      <point x="2033.3333333333333" y="1066.9166666666667"/>
      <point x="1949.6666666666667" y="1180.5833333333333"/>
      <point x="1711.25" y="1180.5833333333333" type="curve" smooth="yes"/>
      <point x="1472.6666666666667" y="1180.5833333333333"/>
      <point x="1389.0" y="1066.9166666666667"/>
      <point x="1389.0" y="762.5833333333334" type="curve" smooth="yes"/>
      <point x="1389.0" y="406.3333333333333" type="line" smooth="yes"/>
      <point x="1389.0" y="99.75"/>
      <point x="1477.75" y="-20.416666666666668"/>
    </contour>
    <contour>
      <point x="1711.25" y="151.83333333333334" type="curve" smooth="yes"/>
      <point x="1618.4166666666667" y="151.83333333333334"/>
      <point x="1591.6666666666667" y="203.08333333333334"/>
      <point x="1591.6666666666667" y="336.8333333333333" type="curve" smooth="yes"/>
      <point x="1591.6666666666667" y="831.1666666666666" type="line" smooth="yes"/>
      <point x="1591.6666666666667" y="961.3333333333334"/>
      <point x="1616.5833333333333" y="1008.75"/>
      <point x="1711.25" y="1008.75" type="curve" smooth="yes"/>
      <point x="1805.9166666666667" y="1008.75"/>
      <point x="1831.25" y="962.3333333333334"/>
      <point x="1831.25" y="831.1666666666666" type="curve" smooth="yes"/>
      <point x="1831.25" y="336.8333333333333" type="line" smooth="yes"/>
      <point x="1831.25" y="203.08333333333334"/>
      <point x="1803.5" y="151.83333333333334"/>
    </contour>
  </outline>
</glyph>
<glyph name="ampersand" format="2">
  <advance width="997.1666666666666"/>
  <unicode hex="0026"/>
  <outline>
    <contour>
      <point x="381.75" y="-20.0" type="curve" smooth="yes"/>
      <point x="523.9166666666666" y="-20.0"/>
      <point x="605.0" y="50.333333333333336"/>
      <point x="673.75" y="153.33333333333334" type="curve"/>
      <point x="744.75" y="0.0" type="line"/>
      <point x="954.25" y="0.0" type="line"/>
      <point x="799.1666666666666" y="345.0833333333333" type="line"/>
      <point x="851.1666666666666" y="455.3333333333333"/>
      <point x="907.8333333333334" y="570.5833333333334"/>
      <point x="987.9166666666666" y="667.25" type="curve"/>
      <point x="891.75" y="829.0833333333334" type="line"/>
      <point x="817.6666666666666" y="736.5"/>
      <point x="760.1666666666666" y="640.75"/>
      <point x="712.25" y="552.0" type="curve"/>
      <point x="566.3333333333334" y="908.0" type="line"/>
      <point x="684.6666666666666" y="1063.8333333333333"/>
      <point x="797.4166666666666" y="1241.1666666666667"/>
      <point x="797.4166666666666" y="1432.25" type="curve" smooth="yes"/>
      <point x="797.4166666666666" y="1653.6666666666667"/>
      <point x="710.3333333333334" y="1781.5833333333333"/>
      <point x="501.8333333333333" y="1781.5833333333333" type="curve" smooth="yes"/>
      <point x="316.1666666666667" y="1781.5833333333333"/>
      <point x="196.33333333333334" y="1659.75"/>
      <point x="196.33333333333334" y="1432.75" type="curve" smooth="yes"/>
      <point x="196.33333333333334" y="1336.5"/>
      <point x="257.9166666666667" y="1146.0833333333333"/>
      <point x="340.5" y="934.0833333333334" type="curve"/>
      <point x="202.58333333333334" y="767.6666666666666"/>
      <point x="70.66666666666667" y="590.0"/>
      <point x="70.66666666666667" y="354.0833333333333" type="curve" smooth="yes"/>
      <point x="70.66666666666667" y="105.83333333333333"/>
      <point x="200.25" y="-20.0"/>
    </contour>
    <contour>
      <point x="416.8333333333333" y="179.25" type="curve" smooth="yes"/>
      <point x="311.6666666666667" y="179.25"/>
      <point x="270.9166666666667" y="257.3333333333333"/>
      <point x="276.6666666666667" y="392.5" type="curve"/>
      <point x="283.0" y="512.6666666666666"/>
      <point x="341.8333333333333" y="631.1666666666666"/>
      <point x="422.1666666666667" y="743.3333333333334" type="curve"/>
      <point x="586.5" y="350.6666666666667" type="line"/>
      <point x="531.5833333333334" y="245.66666666666666"/>
      <point x="488.6666666666667" y="179.25"/>
    </contour>
    <contour>
      <point x="491.5" y="1102.0" type="curve"/>
      <point x="440.5833333333333" y="1246.75"/>
      <point x="405.5" y="1375.1666666666667"/>
      <point x="405.5" y="1435.75" type="curve" smooth="yes"/>
      <point x="405.5" y="1509.75"/>
      <point x="411.0" y="1610.5"/>
      <point x="519.0" y="1610.5" type="curve" smooth="yes"/>
      <point x="604.5833333333334" y="1610.5"/>
      <point x="625.25" y="1558.8333333333333"/>
      <point x="625.25" y="1436.8333333333333" type="curve" smooth="yes"/>
      <point x="625.25" y="1320.5833333333333"/>
      <point x="569.0833333333334" y="1206.0833333333333"/>
    </contour>
  </outline>
</glyph>
<glyph name="parenleft" format="2">
  <advance width="584.5833333333334"/>
  <unicode hex="0028"/>
  <outline>
    <contour>
      <point x="501.3333333333333" y="-197.83333333333331" type="curve"/>
      <point x="501.3333333333333" y="-24.08333333333333" type="line"/>
      <point x="381.3333333333333" y="-24.08333333333333"/>
      <point x="362.3333333333333" y="6.166666666666671"/>
      <point x="362.3333333333333" y="236.08333333333334" type="curve" smooth="yes"/>
      <point x="362.3333333333333" y="1365.1666666666667" type="line" smooth="yes"/>
      <point x="362.3333333333333" y="1595.6666666666667"/>
      <point x="381.3333333333333" y="1625.3333333333333"/>
      <point x="501.3333333333333" y="1625.3333333333333" type="curve"/>
      <point x="501.3333333333333" y="1799.0833333333333" type="line"/>
      <point x="221.0" y="1799.0833333333333"/>
      <point x="131.91666666666666" y="1724.1666666666667"/>
      <point x="131.91666666666666" y="1361.1666666666667" type="curve" smooth="yes"/>
      <point x="131.91666666666666" y="240.08333333333334" type="line" smooth="yes"/>
      <point x="131.91666666666666" y="-122.91666666666666"/>
      <point x="221.0" y="-197.83333333333331"/>
    </contour>
  </outline>
</glyph>
<glyph name="parenright" format="2">
  <advance width="584.5833333333334"/>
  <unicode hex="0029"/>
  <outline>
    <contour>
      <point x="83.66666666666667" y="-197.83333333333331" type="line"/>
      <point x="364.0" y="-197.83333333333331"/>
      <point x="452.6666666666667" y="-122.91666666666666"/>
      <point x="452.6666666666667" y="240.08333333333334" type="curve" smooth="yes"/>
      <point x="452.6666666666667" y="1361.1666666666667" type="line" smooth="yes"/>
      <point x="452.6666666666667" y="1724.1666666666667"/>
      <point x="364.0" y="1799.0833333333333"/>
      <point x="83.66666666666667" y="1799.0833333333333" type="curve"/>
      <point x="83.66666666666667" y="1625.3333333333333" type="line"/>
      <point x="203.66666666666666" y="1625.3333333333333"/>
      <point x="222.66666666666666" y="1595.6666666666667"/>
      <point x="222.66666666666666" y="1365.1666666666667" type="curve" smooth="yes"/>
      <point x="222.66666666666666" y="236.08333333333334" type="line" smooth="yes"/>
      <point x="222.66666666666666" y="6.166666666666671"/>
      <point x="203.66666666666666" y="-24.08333333333333"/>
      <point x="83.66666666666667" y="-24.08333333333333" type="curve"/>
    </contour>
  </outline>
</glyph>
<glyph name="asterisk" format="2">
  <advance width="909.8333333333334"/>
  <unicode hex="002A"/>
  <outline>
    <contour>
      <point x="369.0833333333333" y="966.0" type="line"/>
      <point x="540.75" y="966.0" type="line"/>
      <point x="515.0833333333334" y="1246.9166666666667" type="line"/>
      <point x="741.9166666666666" y="1068.5" type="line"/>
      <point x="828.75" y="1218.0833333333333" type="line"/>
      <point x="568.8333333333334" y="1348.5833333333333" type="line"/>
      <point x="828.75" y="1471.6666666666667" type="line"/>
      <point x="741.9166666666666" y="1621.0833333333333" type="line"/>
      <point x="515.0833333333334" y="1448.6666666666667" type="line"/>
      <point x="540.75" y="1723.75" type="line"/>
      <point x="369.0833333333333" y="1723.75" type="line"/>
      <point x="400.1666666666667" y="1445.25" type="line"/>
      <point x="167.91666666666666" y="1615.3333333333333" type="line"/>
      <point x="81.08333333333333" y="1465.9166666666667" type="line"/>
      <point x="340.4166666666667" y="1348.5833333333333" type="line"/>
      <point x="86.25" y="1223.8333333333333" type="line"/>
      <point x="172.5" y="1073.8333333333333" type="line"/>
      <point x="401.1666666666667" y="1252.3333333333333" type="line"/>
    </contour>
  </outline>
</glyph>
<glyph name="plus" format="2">
  <advance width="733.3333333333334"/>
  <unicode hex="002B"/>
  <outline>
    <contour>
      <point x="284.0" y="467.6666666666667" type="line"/>
      <point x="446.75" y="467.6666666666667" type="line"/>
      <point x="446.75" y="710.5833333333334" type="line"/>
      <point x="670.4166666666666" y="710.5833333333334" type="line"/>
      <point x="670.4166666666666" y="866.0" type="line"/>
      <point x="446.75" y="866.0" type="line"/>
      <point x="446.75" y="1105.75" type="line"/>
      <point x="284.0" y="1105.75" type="line"/>
      <point x="284.0" y="866.0" type="line"/>
      <point x="62.5" y="866.0" type="line"/>
      <point x="62.5" y="710.5833333333334" type="line"/>
      <point x="284.0" y="710.5833333333334" type="line"/>
    </contour>
  </outline>
</glyph>
<glyph name="comma" format="2">
  <advance width="472.8333333333333"/>
  <unicode hex="002C"/>
  <outline>
    <contour>
      <point x="170.83333333333334" y="-341.5" type="line"/>
      <point x="287.25" y="-341.5" type="line"/>
      <point x="388.6666666666667" y="9.0" type="line"/>
      <point x="388.6666666666667" y="248.75" type="line"/>
      <point x="118.16666666666667" y="248.75" type="line"/>
      <point x="118.16666666666667" y="0.0" type="line"/>
      <point x="242.58333333333334" y="0.0" type="line"/>
    </contour>
  </outline>
</glyph>
<glyph name="hyphen" format="2">
  <advance width="696.0"/>
  <unicode hex="002D"/>
  <outline>
    <contour>
      <point x="88.41666666666667" y="720.5" type="line"/>
      <point x="551.25" y="720.5" type="line"/>
      <point x="551.25" y="878.0" type="line"/>
      <point x="88.41666666666667" y="878.0" type="line"/>
    </contour>
  </outline>
</glyph>
<glyph name="period" format="2">
  <advance width="532.0"/>
  <unicode hex="002E"/>
  <outline>
    <contour>
      <point x="161.83333333333334" y="0.0" type="line"/>
      <point x="357.6666666666667" y="0.0" type="line"/>
      <point x="357.6666666666667" y="218.0" type="line"/>
      <point x="161.83333333333334" y="218.0" type="line"/>
    </contour>
  </outline>
</glyph>
<glyph name="slash" format="2">
  <advance width="770.0"/>
  <unicode hex="002F"/>
  <outline>
    <contour>
      <point x="67.33333333333333" y="0.0" type="line"/>
      <point x="271.0" y="0.0" type="line"/>
      <point x="706.0" y="1768.4166666666667" type="line"/>
      <point x="501.3333333333333" y="1768.4166666666667" type="line"/>
    </contour>
  </outline>
</glyph>
<glyph name="zero" format="2">
  <advance width="919.0"/>
  <unicode hex="0030"/>
  <outline>
    <contour>
      <point x="460.75" y="-21.0" type="curve" smooth="yes"/>
      <point x="748.75" y="-21.0"/>
      <point x="800.4166666666666" y="162.0"/>
      <point x="800.4166666666666" y="475.0" type="curve" smooth="yes"/>
      <point x="800.4166666666666" y="1316.0" type="line" smooth="yes"/>
      <point x="800.4166666666666" y="1619.0"/>
      <point x="742.75" y="1779.8333333333333"/>
      <point x="460.75" y="1779.8333333333333" type="curve" smooth="yes"/>
      <point x="178.75" y="1779.8333333333333"/>
      <point x="115.25" y="1619.0"/>
      <point x="115.25" y="1316.0" type="curve" smooth="yes"/>
      <point x="115.25" y="475.0" type="line" smooth="yes"/>
      <point x="115.25" y="162.0"/>
      <point x="172.75" y="-21.0"/>
    </contour>
    <contour>
      <point x="459.1666666666667" y="177.33333333333334" type="curve" smooth="yes"/>
      <point x="377.1666666666667" y="177.33333333333334"/>
      <point x="340.8333333333333" y="198.66666666666666"/>
      <point x="340.8333333333333" y="470.0" type="curve" smooth="yes"/>
      <point x="340.8333333333333" y="1328.0" type="line" smooth="yes"/>
      <point x="340.8333333333333" y="1567.25"/>
      <point x="391.1666666666667" y="1582.0833333333333"/>
      <point x="459.1666666666667" y="1582.0833333333333" type="curve" smooth="yes"/>
      <point x="529.1666666666666" y="1582.0833333333333"/>
      <point x="574.4166666666666" y="1564.0"/>
      <point x="574.4166666666666" y="1327.0" type="curve" smooth="yes"/>
      <point x="574.4166666666666" y="470.0" type="line" smooth="yes"/>
      <point x="574.4166666666666" y="200.91666666666669"/>
      <point x="536.1666666666666" y="177.33333333333334"/>
    </contour>
  </outline>
</glyph>
<glyph name="one" format="2">
  <advance width="779.8333333333334"/>
  <unicode hex="0031"/>
  <outline>
    <contour>
      <point x="336.75" y="0.0" type="line"/>
      <point x="568.5833333333334" y="0.0" type="line"/>
      <point x="568.5833333333334" y="1760.0" type="line"/>
      <point x="396.75" y="1760.0" type="line"/>
      <point x="340.75" y="1628.0"/>
      <point x="195.58333333333331" y="1556.0"/>
      <point x="89.58333333333333" y="1541.0" type="curve"/>
      <point x="89.58333333333333" y="1362.4166666666667" type="line"/>
      <point x="163.58333333333331" y="1362.4166666666667"/>
      <point x="288.75" y="1403.0833333333333"/>
      <point x="336.75" y="1460.0833333333333" type="curve"/>
    </contour>
  </outline>
</glyph>
<glyph name="two" format="2">
  <advance width="894.4166666666666"/>
  <unicode hex="0032"/>
  <outline>
    <contour>
      <point x="168.16666666666666" y="0.0" type="line"/>
      <point x="784.8333333333334" y="0.0" type="line"/>
      <point x="784.8333333333334" y="177.91666666666666" type="line"/>
      <point x="394.0" y="177.91666666666666" type="line"/>
      <point x="409.0" y="324.6666666666667"/>
      <point x="450.6666666666667" y="408.25"/>
      <point x="543.0833333333334" y="573.8333333333334" type="curve" smooth="yes"/>
      <point x="703.9166666666666" y="861.8333333333334" type="line" smooth="yes"/>
      <point x="776.8333333333334" y="991.9166666666666"/>
      <point x="814.3333333333334" y="1122.5833333333333"/>
      <point x="814.3333333333334" y="1293.0" type="curve" smooth="yes"/>
      <point x="814.3333333333334" y="1569.75"/>
      <point x="742.5" y="1779.4166666666667"/>
      <point x="502.8333333333333" y="1779.4166666666667" type="curve" smooth="yes"/>
      <point x="189.58333333333334" y="1779.4166666666667"/>
      <point x="153.25" y="1562.3333333333333"/>
      <point x="153.25" y="1182.3333333333333" type="curve" smooth="yes"/>
      <point x="153.25" y="1065.0" type="line"/>
      <point x="377.75" y="1065.0" type="line"/>
      <point x="377.75" y="1291.5" type="line" smooth="yes"/>
      <point x="377.75" y="1541.5833333333333"/>
      <point x="417.1666666666667" y="1581.0833333333333"/>
      <point x="491.1666666666667" y="1581.0833333333333" type="curve" smooth="yes"/>
      <point x="564.0" y="1581.0833333333333"/>
      <point x="594.1666666666666" y="1536.0833333333333"/>
      <point x="594.1666666666666" y="1307.5" type="curve" smooth="yes"/>
      <point x="594.1666666666666" y="1165.5"/>
      <point x="573.5" y="1053.8333333333333"/>
      <point x="518.5" y="958.6666666666666" type="curve" smooth="yes"/>
      <point x="351.5" y="670.8333333333334" type="line" smooth="yes"/>
      <point x="219.25" y="442.3333333333333"/>
      <point x="168.16666666666666" y="297.75"/>
      <point x="168.16666666666666" y="100.5" type="curve" smooth="yes"/>
    </contour>
  </outline>
</glyph>
<glyph name="three" format="2">
  <advance width="898.1666666666666"/>
  <unicode hex="0033"/>
  <outline>
    <contour>
      <point x="445.6666666666667" y="-20.0" type="curve" smooth="yes"/>
      <point x="711.9166666666666" y="-20.0"/>
      <point x="811.5833333333334" y="153.0"/>
      <point x="811.5833333333334" y="492.5" type="curve" smooth="yes"/>
      <point x="811.5833333333334" y="702.5"/>
      <point x="763.6666666666666" y="870.75"/>
      <point x="628.75" y="932.8333333333334" type="curve"/>
      <point x="755.3333333333334" y="979.4166666666666"/>
      <point x="808.0" y="1126.5"/>
      <point x="808.0" y="1317.75" type="curve" smooth="yes"/>
      <point x="808.0" y="1624.4166666666667"/>
      <point x="704.1666666666666" y="1779.4166666666667"/>
      <point x="452.3333333333333" y="1779.4166666666667" type="curve" smooth="yes"/>
      <point x="197.0" y="1779.4166666666667"/>
      <point x="109.91666666666667" y="1633.5"/>
      <point x="109.91666666666667" y="1323.5833333333333" type="curve" smooth="yes"/>
      <point x="109.91666666666667" y="1268.5833333333333" type="line"/>
      <point x="333.3333333333333" y="1268.5833333333333" type="line"/>
      <point x="333.3333333333333" y="1315.1666666666667" type="line" smooth="yes"/>
      <point x="333.3333333333333" y="1517.8333333333333"/>
      <point x="368.5" y="1581.0833333333333"/>
      <point x="455.4166666666667" y="1581.0833333333333" type="curve" smooth="yes"/>
      <point x="534.9166666666666" y="1581.0833333333333"/>
      <point x="581.25" y="1535.0833333333333"/>
      <point x="581.25" y="1317.75" type="curve" smooth="yes"/>
      <point x="581.25" y="1082.8333333333333"/>
      <point x="542.9166666666666" y="1016.8333333333334"/>
      <point x="411.4166666666667" y="1016.8333333333334" type="curve" smooth="yes"/>
      <point x="353.1666666666667" y="1016.8333333333334" type="line"/>
      <point x="353.1666666666667" y="835.5833333333334" type="line"/>
      <point x="413.4166666666667" y="835.5833333333334" type="line" smooth="yes"/>
      <point x="548.3333333333334" y="835.5833333333334"/>
      <point x="582.4166666666666" y="745.0833333333334"/>
      <point x="582.4166666666666" y="494.0833333333333" type="curve" smooth="yes"/>
      <point x="582.4166666666666" y="273.75"/>
      <point x="563.5833333333334" y="177.91666666666666"/>
      <point x="452.3333333333333" y="177.91666666666666" type="curve" smooth="yes"/>
      <point x="340.25" y="177.91666666666666"/>
      <point x="325.0833333333333" y="256.5"/>
      <point x="325.0833333333333" y="469.3333333333333" type="curve" smooth="yes"/>
      <point x="325.0833333333333" y="567.4166666666666" type="line"/>
      <point x="106.75" y="567.4166666666666" type="line"/>
      <point x="106.75" y="468.1666666666667" type="line" smooth="yes"/>
      <point x="106.75" y="135.58333333333334"/>
      <point x="190.75" y="-20.0"/>
    </contour>
  </outline>
</glyph>
<glyph name="four" format="2">
  <advance width="894.4166666666666"/>
  <unicode hex="0034"/>
  <outline>
    <contour>
      <point x="508.25" y="0.0" type="line"/>
      <point x="717.5" y="0.0" type="line"/>
      <point x="717.5" y="322.8333333333333" type="line"/>
      <point x="858.75" y="322.8333333333333" type="line"/>
      <point x="858.75" y="508.5" type="line"/>
      <point x="717.5" y="508.5" type="line"/>
      <point x="717.5" y="1760.0" type="line"/>
      <point x="474.0833333333333" y="1760.0" type="line"/>
      <point x="84.75" y="489.5" type="line"/>
      <point x="84.75" y="322.8333333333333" type="line"/>
      <point x="508.25" y="322.8333333333333" type="line"/>
    </contour>
    <contour>
      <point x="270.1666666666667" y="508.5" type="line"/>
      <point x="508.25" y="1404.9166666666667" type="line"/>
      <point x="508.25" y="508.5" type="line"/>
    </contour>
  </outline>
</glyph>
<glyph name="five" format="2">
  <advance width="894.4166666666666"/>
  <unicode hex="0035"/>
  <outline>
    <contour>
      <point x="458.75" y="-20.0" type="curve" smooth="yes"/>
      <point x="765.9166666666666" y="-20.0"/>
      <point x="787.25" y="195.58333333333334"/>
      <point x="787.25" y="630.25" type="curve" smooth="yes"/>
      <point x="787.25" y="668.0" type="line" smooth="yes"/>
      <point x="787.25" y="1094.3333333333333"/>
      <point x="715.3333333333334" y="1238.4166666666667"/>
      <point x="525.5" y="1238.4166666666667" type="curve" smooth="yes"/>
      <point x="455.5" y="1238.4166666666667"/>
      <point x="385.75" y="1208.9166666666667"/>
      <point x="362.5" y="1163.0" type="curve"/>
      <point x="362.5" y="1551.5" type="line"/>
      <point x="743.1666666666666" y="1551.5" type="line"/>
      <point x="743.1666666666666" y="1760.0" type="line"/>
      <point x="149.33333333333334" y="1760.0" type="line"/>
      <point x="149.33333333333334" y="880.75" type="line"/>
      <point x="351.5" y="863.0833333333334" type="line"/>
      <point x="351.5" y="986.0833333333334"/>
      <point x="393.75" y="1043.4166666666667"/>
      <point x="460.75" y="1043.4166666666667" type="curve" smooth="yes"/>
      <point x="543.75" y="1043.4166666666667"/>
      <point x="562.8333333333334" y="969.1666666666666"/>
      <point x="562.8333333333334" y="843.0833333333334" type="curve" smooth="yes"/>
      <point x="562.8333333333334" y="349.3333333333333" type="line" smooth="yes"/>
      <point x="562.8333333333334" y="233.33333333333334"/>
      <point x="534.75" y="176.91666666666666"/>
      <point x="458.75" y="176.91666666666666" type="curve" smooth="yes"/>
      <point x="373.75" y="176.91666666666666"/>
      <point x="355.5" y="246.33333333333334"/>
      <point x="355.5" y="338.3333333333333" type="curve" smooth="yes"/>
      <point x="355.5" y="532.5" type="line"/>
      <point x="134.25" y="532.5" type="line"/>
      <point x="134.25" y="327.25" type="line" smooth="yes"/>
      <point x="134.25" y="127.83333333333333"/>
      <point x="218.5" y="-20.0"/>
    </contour>
  </outline>
</glyph>
<glyph name="six" format="2">
  <advance width="894.4166666666666"/>
  <unicode hex="0036"/>
  <outline>
    <contour>
      <point x="476.25" y="-21.0" type="curve" smooth="yes"/>
      <point x="767.5833333333334" y="-21.0"/>
      <point x="818.5833333333334" y="175.91666666666666"/>
      <point x="818.5833333333334" y="497.0" type="curve" smooth="yes"/>
      <point x="818.5833333333334" y="571.25" type="line" smooth="yes"/>
      <point x="818.5833333333334" y="921.0"/>
      <point x="762.3333333333334" y="1100.5833333333333"/>
      <point x="520.0" y="1098.9166666666667" type="curve" smooth="yes"/>
      <point x="444.9166666666667" y="1098.5"/>
      <point x="377.5" y="1071.4166666666667"/>
      <point x="341.4166666666667" y="1033.0" type="curve"/>
      <point x="341.4166666666667" y="1257.1666666666667" type="line" smooth="yes"/>
      <point x="341.4166666666667" y="1488.6666666666667"/>
      <point x="347.3333333333333" y="1580.6666666666667"/>
      <point x="456.9166666666667" y="1580.6666666666667" type="curve" smooth="yes"/>
      <point x="560.1666666666666" y="1580.6666666666667"/>
      <point x="576.9166666666666" y="1532.25"/>
      <point x="576.9166666666666" y="1291.5" type="curve" smooth="yes"/>
      <point x="576.9166666666666" y="1245.5833333333333" type="line"/>
      <point x="788.4166666666666" y="1245.5833333333333" type="line"/>
      <point x="788.4166666666666" y="1331.9166666666667" type="line" smooth="yes"/>
      <point x="787.5833333333334" y="1661.0833333333333"/>
      <point x="696.9166666666666" y="1779.8333333333333"/>
      <point x="471.6666666666667" y="1779.8333333333333" type="curve" smooth="yes"/>
      <point x="205.75" y="1779.8333333333333"/>
      <point x="114.83333333333333" y="1628.6666666666667"/>
      <point x="114.83333333333333" y="1240.6666666666667" type="curve" smooth="yes"/>
      <point x="114.83333333333333" y="507.75" type="line" smooth="yes"/>
      <point x="114.83333333333333" y="177.41666666666666"/>
      <point x="171.83333333333334" y="-21.0"/>
    </contour>
    <contour>
      <point x="473.3333333333333" y="179.91666666666666" type="curve" smooth="yes"/>
      <point x="368.5" y="179.91666666666666"/>
      <point x="341.4166666666667" y="263.3333333333333"/>
      <point x="341.4166666666667" y="459.5833333333333" type="curve" smooth="yes"/>
      <point x="341.4166666666667" y="840.0" type="line"/>
      <point x="344.75" y="860.4166666666666"/>
      <point x="404.6666666666667" y="906.5833333333334"/>
      <point x="477.75" y="906.5833333333334" type="curve" smooth="yes"/>
      <point x="582.9166666666666" y="906.5833333333334"/>
      <point x="601.0" y="821.6666666666666"/>
      <point x="601.0" y="589.9166666666666" type="curve" smooth="yes"/>
      <point x="601.0" y="443.9166666666667" type="line" smooth="yes"/>
      <point x="601.0" y="248.25"/>
      <point x="581.0" y="179.91666666666666"/>
    </contour>
  </outline>
</glyph>
<glyph name="seven" format="2">
  <advance width="894.4166666666666"/>
  <unicode hex="0037"/>
  <outline>
    <contour>
      <point x="207.41666666666666" y="0.0" type="curve"/>
      <point x="458.0" y="0.0" type="line"/>
      <point x="484.1666666666667" y="419.5833333333333"/>
      <point x="570.5833333333334" y="795.8333333333334"/>
      <point x="658.5" y="1085.0833333333333" type="curve"/>
      <point x="734.6666666666666" y="1344.6666666666667"/>
      <point x="818.25" y="1523.75"/>
      <point x="825.5833333333334" y="1592.25" type="curve"/>
      <point x="825.5833333333334" y="1760.0" type="line"/>
      <point x="92.33333333333333" y="1760.0" type="line"/>
      <point x="92.33333333333333" y="1561.5833333333333" type="line"/>
      <point x="592.9166666666666" y="1561.5833333333333" type="line"/>
      <point x="588.8333333333334" y="1544.9166666666667"/>
      <point x="532.5" y="1409.4166666666667"/>
      <point x="466.1666666666667" y="1191.3333333333333" type="curve"/>
      <point x="362.4166666666667" y="877.9166666666666"/>
      <point x="243.0" y="481.6666666666667"/>
    </contour>
  </outline>
</glyph>
<glyph name="eight" format="2">
  <advance width="894.4166666666666"/>
  <unicode hex="0038"/>
  <outline>
    <contour>
      <point x="451.5833333333333" y="-20.416666666666668" type="curve" smooth="yes"/>
      <point x="696.3333333333334" y="-20.416666666666668"/>
      <point x="801.5833333333334" y="120.16666666666667"/>
      <point x="801.5833333333334" y="429.0" type="curve" smooth="yes"/>
      <point x="801.5833333333334" y="520.25" type="line" smooth="yes"/>
      <point x="801.5833333333334" y="702.8333333333334"/>
      <point x="752.5" y="886.0833333333334"/>
      <point x="662.3333333333334" y="952.25" type="curve"/>
      <point x="764.6666666666666" y="1022.4166666666666"/>
      <point x="799.4166666666666" y="1160.8333333333333"/>
      <point x="799.4166666666666" y="1342.75" type="curve" smooth="yes"/>
      <point x="799.4166666666666" y="1652.25"/>
      <point x="709.5833333333334" y="1779.8333333333333"/>
      <point x="452.1666666666667" y="1779.8333333333333" type="curve" smooth="yes"/>
      <point x="197.41666666666666" y="1779.8333333333333"/>
      <point x="102.91666666666667" y="1648.5833333333333"/>
      <point x="102.91666666666667" y="1342.75" type="curve" smooth="yes"/>
      <point x="102.91666666666667" y="1162.8333333333333"/>
      <point x="142.0" y="1022.25"/>
      <point x="242.75" y="950.5" type="curve"/>
      <point x="147.58333333333334" y="885.5"/>
      <point x="92.08333333333333" y="705.8333333333334"/>
      <point x="93.25" y="520.25" type="curve" smooth="yes"/>
      <point x="93.83333333333333" y="422.8333333333333" type="line" smooth="yes"/>
      <point x="96.16666666666667" y="118.58333333333333"/>
      <point x="207.83333333333334" y="-20.416666666666668"/>
    </contour>
    <contour>
      <point x="452.5833333333333" y="176.5" type="curve" smooth="yes"/>
      <point x="341.4166666666667" y="176.5"/>
      <point x="324.8333333333333" y="248.41666666666666"/>
      <point x="324.8333333333333" y="436.25" type="curve" smooth="yes"/>
      <point x="324.8333333333333" y="537.75" type="line" smooth="yes"/>
      <point x="324.8333333333333" y="757.0"/>
      <point x="378.8333333333333" y="860.0833333333334"/>
      <point x="452.5833333333333" y="860.0833333333334" type="curve" smooth="yes"/>
      <point x="530.9166666666666" y="860.0833333333334"/>
      <point x="570.1666666666666" y="754.75"/>
      <point x="570.1666666666666" y="539.9166666666666" type="curve" smooth="yes"/>
      <point x="570.1666666666666" y="440.8333333333333" type="line" smooth="yes"/>
      <point x="570.1666666666666" y="249.08333333333334"/>
      <point x="561.9166666666666" y="176.5"/>
    </contour>
    <contour>
      <point x="450.5833333333333" y="1017.8333333333334" type="curve" smooth="yes"/>
      <point x="375.5" y="1017.8333333333334"/>
      <point x="330.0833333333333" y="1075.3333333333333"/>
      <point x="330.0833333333333" y="1324.9166666666667" type="curve" smooth="yes"/>
      <point x="330.0833333333333" y="1558.25"/>
      <point x="368.6666666666667" y="1596.9166666666667"/>
      <point x="450.5833333333333" y="1596.9166666666667" type="curve" smooth="yes"/>
      <point x="535.0833333333334" y="1596.9166666666667"/>
      <point x="572.6666666666666" y="1569.4166666666667"/>
      <point x="572.6666666666666" y="1328.0833333333333" type="curve" smooth="yes"/>
      <point x="572.6666666666666" y="1076.3333333333333"/>
      <point x="522.5" y="1017.8333333333334"/>
    </contour>
  </outline>
</glyph>
<glyph name="nine" format="2">
  <advance width="894.4166666666666"/>
  <unicode hex="0039"/>
  <outline>
    <contour>
      <point x="432.8333333333333" y="-20.0" type="curve" smooth="yes"/>
      <point x="698.75" y="-20.0"/>
      <point x="782.1666666666666" y="138.5"/>
      <point x="782.1666666666666" y="526.5" type="curve" smooth="yes"/>
      <point x="782.1666666666666" y="1251.0833333333333" type="line" smooth="yes"/>
      <point x="782.1666666666666" y="1586.0"/>
      <point x="735.1666666666666" y="1779.8333333333333"/>
      <point x="430.75" y="1779.8333333333333" type="curve" smooth="yes"/>
      <point x="135.25" y="1779.8333333333333"/>
      <point x="88.0" y="1570.8333333333333"/>
      <point x="88.0" y="1249.75" type="curve" smooth="yes"/>
      <point x="88.0" y="1189.25" type="line" smooth="yes"/>
      <point x="88.0" y="845.3333333333334"/>
      <point x="147.58333333333334" y="662.8333333333334"/>
      <point x="392.8333333333333" y="662.8333333333334" type="curve" smooth="yes"/>
      <point x="464.1666666666667" y="662.8333333333334"/>
      <point x="522.25" y="683.6666666666666"/>
      <point x="555.8333333333334" y="709.1666666666666" type="curve"/>
      <point x="555.8333333333334" y="505.0" type="line" smooth="yes"/>
      <point x="555.8333333333334" y="277.25"/>
      <point x="558.8333333333334" y="177.33333333333334"/>
      <point x="450.0833333333333" y="177.33333333333334" type="curve" smooth="yes"/>
      <point x="348.5" y="177.33333333333334"/>
      <point x="327.1666666666667" y="221.58333333333334"/>
      <point x="327.1666666666667" y="468.5833333333333" type="curve" smooth="yes"/>
      <point x="327.1666666666667" y="514.9166666666666" type="line"/>
      <point x="114.41666666666667" y="514.9166666666666" type="line"/>
      <point x="114.41666666666667" y="426.5" type="line" smooth="yes"/>
      <point x="114.41666666666667" y="97.75"/>
      <point x="213.41666666666666" y="-20.0"/>
    </contour>
    <contour>
      <point x="428.25" y="850.1666666666666" type="curve" smooth="yes"/>
      <point x="321.8333333333333" y="850.1666666666666"/>
      <point x="306.25" y="933.8333333333334"/>
      <point x="306.25" y="1162.6666666666667" type="curve" smooth="yes"/>
      <point x="306.25" y="1304.5" type="line" smooth="yes"/>
      <point x="306.25" y="1497.6666666666667"/>
      <point x="326.0833333333333" y="1578.9166666666667"/>
      <point x="433.75" y="1578.9166666666667" type="curve" smooth="yes"/>
      <point x="534.4166666666666" y="1578.9166666666667"/>
      <point x="555.8333333333334" y="1494.25"/>
      <point x="555.8333333333334" y="1300.5" type="curve" smooth="yes"/>
      <point x="555.8333333333334" y="892.5833333333334" type="line"/>
      <point x="547.9166666666666" y="884.25"/>
      <point x="498.0" y="850.1666666666666"/>
    </contour>
  </outline>
</glyph>
<glyph name="colon" format="2">
  <advance width="516.5"/>
  <unicode hex="003A"/>
  <outline>
    <contour>
      <point x="133.66666666666666" y="1043.25" type="line"/>
      <point x="382.8333333333333" y="1043.25" type="line"/>
      <point x="382.8333333333333" y="1307.0" type="line"/>
      <point x="133.66666666666666" y="1307.0" type="line"/>
    </contour>
    <contour>
      <point x="133.66666666666666" y="270.0" type="line"/>
      <point x="382.8333333333333" y="270.0" type="line"/>
      <point x="382.8333333333333" y="533.75" type="line"/>
      <point x="133.66666666666666" y="533.75" type="line"/>
    </contour>
  </outline>
</glyph>
<glyph name="semicolon" format="2">
  <advance width="561.0"/>
  <unicode hex="003B"/>
  <outline>
    <contour>
      <point x="187.5" y="-104.66666666666667" type="line"/>
      <point x="319.0" y="-104.66666666666667" type="line"/>
      <point x="430.9166666666667" y="279.75" type="line"/>
      <point x="430.9166666666667" y="533.5833333333334" type="line"/>
      <point x="172.83333333333334" y="533.5833333333334" type="line"/>
      <point x="172.83333333333334" y="270.75" type="line"/>
      <point x="270.1666666666667" y="270.75" type="line"/>
    </contour>
    <contour>
      <point x="168.66666666666666" y="1043.25" type="line"/>
      <point x="417.8333333333333" y="1043.25" type="line"/>
      <point x="417.8333333333333" y="1307.0" type="line"/>
      <point x="168.66666666666666" y="1307.0" type="line"/>
    </contour>
  </outline>
</glyph>
<glyph name="less" format="2">
  <advance width="730.0"/>
  <unicode hex="003C"/>
  <outline>
    <contour>
      <point x="639.1666666666666" y="253.16666666666666" type="line"/>
      <point x="639.1666666666666" y="491.3333333333333" type="line"/>
      <point x="221.58333333333334" y="754.1666666666666" type="line"/>
      <point x="639.1666666666666" y="1007.6666666666666" type="line"/>
      <point x="639.1666666666666" y="1250.5833333333333" type="line"/>
      <point x="64.41666666666667" y="876.25" type="line"/>
      <point x="64.41666666666667" y="631.5" type="line"/>
    </contour>
  </outline>
</glyph>
<glyph name="equal" format="2">
  <advance width="722.0"/>
  <unicode hex="003D"/>
  <outline>
    <contour>
      <point x="92.33333333333333" y="564.75" type="line"/>
      <point x="647.1666666666666" y="564.75" type="line"/>
      <point x="647.1666666666666" y="736.25" type="line"/>
      <point x="92.33333333333333" y="736.25" type="line"/>
    </contour>
    <contour>
      <point x="92.33333333333333" y="892.0" type="line"/>
      <point x="647.1666666666666" y="892.0" type="line"/>
      <point x="647.1666666666666" y="1060.8333333333333" type="line"/>
      <point x="92.33333333333333" y="1060.8333333333333" type="line"/>
    </contour>
  </outline>
</glyph>
<glyph name="greater" format="2">
  <advance width="730.0"/>
  <unicode hex="003E"/>
  <outline>
    <contour>
      <point x="88.25" y="253.16666666666666" type="line"/>
      <point x="663.4166666666666" y="628.9166666666666" type="line"/>
      <point x="663.4166666666666" y="874.0833333333334" type="line"/>
      <point x="88.25" y="1250.5833333333333" type="line"/>
      <point x="88.25" y="1012.4166666666666" type="line"/>
      <point x="505.8333333333333" y="749.0" type="line"/>
      <point x="88.25" y="496.0833333333333" type="line"/>
    </contour>
  </outline>
</glyph>
<glyph name="question" format="2">
  <advance width="871.9166666666666"/>
  <unicode hex="003F"/>
  <outline>
    <contour>
      <point x="255.08333333333334" y="494.0" type="line"/>
      <point x="457.8333333333333" y="494.0" type="line"/>
      <point x="457.8333333333333" y="703.8333333333334" type="line"/>
      <point x="714.8333333333334" y="777.4166666666666"/>
      <point x="768.3333333333334" y="946.3333333333334"/>
      <point x="768.3333333333334" y="1292.3333333333333" type="curve" smooth="yes"/>
      <point x="768.3333333333334" y="1598.5"/>
      <point x="738.6666666666666" y="1781.5833333333333"/>
      <point x="453.9166666666667" y="1781.5833333333333" type="curve" smooth="yes"/>
      <point x="182.91666666666666" y="1781.5833333333333"/>
      <point x="142.75" y="1566.5"/>
      <point x="142.75" y="1372.5" type="curve" smooth="yes"/>
      <point x="142.75" y="1160.0" type="line"/>
      <point x="369.9166666666667" y="1160.0" type="line"/>
      <point x="369.9166666666667" y="1347.6666666666667" type="line" smooth="yes"/>
      <point x="369.9166666666667" y="1517.8333333333333"/>
      <point x="370.9166666666667" y="1581.0833333333333"/>
      <point x="457.9166666666667" y="1581.0833333333333" type="curve" smooth="yes"/>
      <point x="537.9166666666666" y="1581.0833333333333"/>
      <point x="535.9166666666666" y="1513.0833333333333"/>
      <point x="535.9166666666666" y="1351.6666666666667" type="curve" smooth="yes"/>
      <point x="535.9166666666666" y="1008.6666666666666"/>
      <point x="529.0" y="888.25"/>
      <point x="255.08333333333334" y="810.0" type="curve"/>
    </contour>
    <contour>
      <point x="259.3333333333333" y="0.0" type="line"/>
      <point x="459.25" y="0.0" type="line"/>
      <point x="459.25" y="299.0" type="line"/>
      <point x="259.3333333333333" y="299.0" type="line"/>
    </contour>
  </outline>
</glyph>
<glyph name="at" format="2">
  <advance width="1513.6666666666667"/>
  <unicode hex="0040"/>
  <outline>
    <contour>
      <point x="1231.5" y="23.416666666666664" type="curve"/>
      <point x="1206.8333333333333" y="174.5" type="line"/>
      <point x="592.9166666666666" y="-40.25"/>
      <point x="297.25" y="206.08333333333334"/>
      <point x="297.25" y="833.0" type="curve" smooth="yes"/>
      <point x="297.25" y="1315.0"/>
      <point x="434.0833333333333" y="1624.75"/>
      <point x="803.5833333333334" y="1624.75" type="curve" smooth="yes"/>
      <point x="1170.1666666666667" y="1624.75"/>
      <point x="1238.1666666666667" y="1286.0"/>
      <point x="1238.1666666666667" y="942.0" type="curve" smooth="yes"/>
      <point x="1238.1666666666667" y="634.0"/>
      <point x="1205.9166666666667" y="504.9166666666667"/>
      <point x="1133.1666666666667" y="504.9166666666667" type="curve" smooth="yes"/>
      <point x="1076.5833333333333" y="504.9166666666667"/>
      <point x="1059.0" y="582.25"/>
      <point x="1059.0" y="708.25" type="curve" smooth="yes"/>
      <point x="1059.0" y="1304.5833333333333" type="line"/>
      <point x="550.9166666666666" y="1528.4166666666667"/>
      <point x="460.0833333333333" y="1102.5833333333333"/>
      <point x="460.0833333333333" y="809.8333333333334" type="curve" smooth="yes"/>
      <point x="460.0833333333333" y="489.9166666666667"/>
      <point x="580.1666666666666" y="337.0833333333333"/>
      <point x="741.3333333333334" y="337.0833333333333" type="curve" smooth="yes"/>
      <point x="842.0833333333334" y="337.0833333333333"/>
      <point x="907.5833333333334" y="426.8333333333333"/>
      <point x="932.5833333333334" y="569.5833333333334" type="curve"/>
      <point x="960.5" y="443.9166666666667"/>
      <point x="1040.0833333333333" y="354.0833333333333"/>
      <point x="1122.8333333333333" y="354.0833333333333" type="curve" smooth="yes"/>
      <point x="1311.9166666666667" y="354.0833333333333"/>
      <point x="1395.5" y="598.5833333333334"/>
      <point x="1395.5" y="910.0" type="curve" smooth="yes"/>
      <point x="1395.5" y="1447.9166666666667"/>
      <point x="1213.9166666666667" y="1777.3333333333333"/>
      <point x="817.1666666666666" y="1777.3333333333333" type="curve" smooth="yes"/>
      <point x="319.8333333333333" y="1777.3333333333333"/>
      <point x="118.16666666666667" y="1406.6666666666667"/>
      <point x="118.16666666666667" y="836.0" type="curve" smooth="yes"/>
      <point x="118.16666666666667" y="120.5"/>
      <point x="511.6666666666667" y="-223.91666666666666"/>
    </contour>
    <contour>
      <point x="758.0" y="482.0" type="curve" smooth="yes"/>
      <point x="651.6666666666666" y="482.0"/>
      <point x="616.1666666666666" y="606.0833333333334"/>
      <point x="616.1666666666666" y="815.8333333333334" type="curve" smooth="yes"/>
      <point x="616.1666666666666" y="1113.0"/>
      <point x="689.6666666666666" y="1302.1666666666667"/>
      <point x="905.0" y="1216.1666666666667" type="curve"/>
      <point x="905.0" y="743.4166666666666" type="line" smooth="yes"/>
      <point x="905.0" y="601.3333333333334"/>
      <point x="843.5" y="482.0"/>
    </contour>
  </outline>
</glyph>
<glyph name="A" format="2">
  <advance width="915.3333333333334"/>
  <unicode hex="0041"/>
  <anchor x="448.1666666666667" y="0.0" name="bottom"/>
  <anchor x="772.75" y="0.0" name="ogonek"/>
  <anchor x="448.1666666666667" y="1760.0" name="top"/>
  <outline>
    <contour>
      <point x="40.625" y="0.0" type="line"/>
      <point x="263.0416666666667" y="0.0" type="line"/>
      <point x="305.7083333333333" y="326.8333333333333" type="line"/>
      <point x="610.125" y="326.8333333333333" type="line"/>
      <point x="656.7916666666666" y="0.0" type="line"/>
      <point x="874.7083333333334" y="0.0" type="line"/>
      <point x="593.7083333333334" y="1760.0" type="line"/>
      <point x="300.9583333333333" y="1760.0" type="line"/>
    </contour>
    <contour>
      <point x="329.9583333333333" y="514.4166666666666" type="line"/>
      <point x="449.625" y="1425.25" type="line"/>
      <point x="453.0416666666667" y="1425.25" type="line"/>
      <point x="583.2916666666666" y="514.4166666666666" type="line"/>
    </contour>
  </outline>
</glyph>
<glyph name="B" format="2">
  <advance width="944.9166666666666"/>
  <unicode hex="0042"/>
  <anchor x="472.75" y="0.0" name="bottom"/>
  <anchor x="472.75" y="1760.0" name="top"/>
  <outline>
    <contour>
      <point x="139.0" y="0.0" type="line"/>
      <point x="501.75" y="0.0" type="line" smooth="yes"/>
      <point x="767.0" y="0.0"/>
      <point x="862.6666666666666" y="147.75"/>
      <point x="865.8333333333334" y="495.5" type="curve"/>
      <point x="865.8333333333334" y="535.8333333333334" type="line" smooth="yes"/>
      <point x="865.8333333333334" y="737.5"/>
      <point x="823.4166666666666" y="906.5833333333334"/>
      <point x="693.0" y="955.5" type="curve"/>
      <point x="799.9166666666666" y="1006.75"/>
      <point x="834.75" y="1127.9166666666667"/>
      <point x="834.75" y="1318.5" type="curve" smooth="yes"/>
      <point x="834.75" y="1363.1666666666667" type="line"/>
      <point x="833.1666666666666" y="1646.5833333333333"/>
      <point x="750.5833333333334" y="1760.0"/>
      <point x="483.25" y="1760.0" type="curve" smooth="yes"/>
      <point x="139.0" y="1760.0" type="line"/>
    </contour>
    <contour>
      <point x="371.4166666666667" y="184.08333333333334" type="line"/>
      <point x="371.4166666666667" y="858.0833333333334" type="line"/>
      <point x="499.0" y="858.0833333333334" type="line" smooth="yes"/>
      <point x="608.0" y="858.0833333333334"/>
      <point x="632.0" y="775.3333333333334"/>
      <point x="632.0" y="577.5" type="curve" smooth="yes"/>
      <point x="632.0" y="482.75" type="line" smooth="yes"/>
      <point x="632.0" y="253.08333333333334"/>
      <point x="597.5" y="184.08333333333334"/>
      <point x="485.0833333333333" y="184.08333333333334" type="curve" smooth="yes"/>
    </contour>
    <contour>
      <point x="371.4166666666667" y="1034.5833333333333" type="line"/>
      <point x="371.4166666666667" y="1573.9166666666667" type="line"/>
      <point x="468.4166666666667" y="1573.9166666666667" type="line" smooth="yes"/>
      <point x="565.25" y="1573.9166666666667"/>
      <point x="604.1666666666666" y="1543.75"/>
      <point x="605.1666666666666" y="1368.5" type="curve"/>
      <point x="605.1666666666666" y="1295.75" type="line" smooth="yes"/>
      <point x="605.1666666666666" y="1071.5833333333333"/>
      <point x="585.0" y="1034.5833333333333"/>
      <point x="480.9166666666667" y="1034.5833333333333" type="curve" smooth="yes"/>
    </contour>
  </outline>
</glyph>
<glyph name="C" format="2">
  <advance width="939.25"/>
  <unicode hex="0043"/>
  <anchor x="469.8333333333333" y="0.0" name="bottom"/>
  <anchor x="469.8333333333333" y="1760.0" name="top"/>
  <outline>
    <contour>
      <point x="479.5833333333333" y="-20.583333333333332" type="curve" smooth="yes"/>
      <point x="745.5" y="-20.583333333333332"/>
      <point x="837.6666666666666" y="156.66666666666666"/>
      <point x="837.6666666666666" y="501.5833333333333" type="curve" smooth="yes"/>
      <point x="837.6666666666666" y="717.9166666666666" type="line"/>
      <point x="608.5" y="717.9166666666666" type="line"/>
      <point x="608.5" y="499.1666666666667" type="line" smooth="yes"/>
      <point x="608.5" y="272.75"/>
      <point x="583.6666666666666" y="177.91666666666666"/>
      <point x="481.4166666666667" y="177.91666666666666" type="curve" smooth="yes"/>
      <point x="377.4166666666667" y="177.91666666666666"/>
      <point x="351.4166666666667" y="270.75"/>
      <point x="351.4166666666667" y="497.3333333333333" type="curve" smooth="yes"/>
      <point x="351.4166666666667" y="1284.3333333333333" type="line" smooth="yes"/>
      <point x="351.4166666666667" y="1473.8333333333333"/>
      <point x="378.9166666666667" y="1579.5"/>
      <point x="487.4166666666667" y="1579.5" type="curve" smooth="yes"/>
      <point x="587.6666666666666" y="1579.5"/>
      <point x="608.5" y="1483.1666666666667"/>
      <point x="608.5" y="1283.3333333333333" type="curve" smooth="yes"/>
      <point x="608.5" y="1075.25" type="line"/>
      <point x="834.8333333333334" y="1075.25" type="line"/>
      <point x="834.8333333333334" y="1289.8333333333333" type="line" smooth="yes"/>
      <point x="834.8333333333334" y="1584.0833333333333"/>
      <point x="757.8333333333334" y="1779.4166666666667"/>
      <point x="486.5833333333333" y="1779.4166666666667" type="curve" smooth="yes"/>
      <point x="196.66666666666666" y="1779.4166666666667"/>
      <point x="118.16666666666667" y="1567.4166666666667"/>
      <point x="118.16666666666667" y="1252.4166666666667" type="curve" smooth="yes"/>
      <point x="118.16666666666667" y="505.25" type="line" smooth="yes"/>
      <point x="118.16666666666667" y="168.25"/>
      <point x="223.0" y="-20.583333333333332"/>
    </contour>
  </outline>
</glyph>
<glyph name="D" format="2">
  <advance width="976.5"/>
  <unicode hex="0044"/>
  <anchor x="488.25" y="0.0" name="bottom"/>
  <anchor x="285.75" y="880.0" name="center"/>
  <anchor x="452.4166666666667" y="1760.0" name="top"/>
  <outline>
    <contour>
      <point x="139.0" y="0.0" type="line"/>
      <point x="488.8333333333333" y="0.0" type="line" smooth="yes"/>
      <point x="757.8333333333334" y="0.0"/>
      <point x="857.9166666666666" y="158.25"/>
      <point x="857.9166666666666" y="511.0833333333333" type="curve" smooth="yes"/>
      <point x="856.9166666666666" y="1292.8333333333333" type="line" smooth="yes"/>
      <point x="856.9166666666666" y="1585.25"/>
      <point x="768.9166666666666" y="1760.0"/>
      <point x="496.6666666666667" y="1760.0" type="curve" smooth="yes"/>
      <point x="139.0" y="1760.0" type="line"/>
    </contour>
    <contour>
      <point x="370.8333333333333" y="184.08333333333334" type="line"/>
      <point x="370.8333333333333" y="1578.5" type="line"/>
      <point x="465.5833333333333" y="1578.5" type="line" smooth="yes"/>
      <point x="580.6666666666666" y="1578.5"/>
      <point x="625.0833333333334" y="1496.75"/>
      <point x="625.0833333333334" y="1292.8333333333333" type="curve" smooth="yes"/>
      <point x="625.5" y="458.25" type="line" smooth="yes"/>
      <point x="625.5" y="235.91666666666666"/>
      <point x="573.8333333333334" y="184.08333333333334"/>
      <point x="469.3333333333333" y="184.08333333333334" type="curve" smooth="yes"/>
    </contour>
  </outline>
</glyph>
<glyph name="E" format="2">
  <advance width="773.75"/>
  <unicode hex="0045"/>
  <anchor x="387.1666666666667" y="0.0" name="bottom"/>
  <anchor x="599.0" y="0.0" name="ogonek"/>
  <anchor x="410.6666666666667" y="1760.0" name="top"/>
  <anchor x="20.0" y="1760.0" name="topleft"/>
  <outline>
    <contour>
      <point x="139.0" y="0.0" type="line"/>
      <point x="699.0" y="0.0" type="line"/>
      <point x="699.0" y="196.58333333333334" type="line"/>
      <point x="371.4166666666667" y="196.58333333333334" type="line"/>
      <point x="371.4166666666667" y="804.4166666666666" type="line"/>
      <point x="675.0833333333334" y="804.4166666666666" type="line"/>
      <point x="675.0833333333334" y="998.9166666666666" type="line"/>
      <point x="371.4166666666667" y="998.9166666666666" type="line"/>
      <point x="371.4166666666667" y="1563.4166666666667" type="line"/>
      <point x="691.6666666666666" y="1563.4166666666667" type="line"/>
      <point x="691.6666666666666" y="1760.0" type="line"/>
      <point x="139.0" y="1760.0" type="line"/>
    </contour>
  </outline>
</glyph>
<glyph name="F" format="2">
  <advance width="765.3333333333334"/>
  <unicode hex="0046"/>
  <anchor x="383.1666666666667" y="0.0" name="bottom"/>
  <anchor x="419.0" y="1760.0" name="top"/>
  <outline>
    <contour>
      <point x="139.0" y="0.0" type="line"/>
      <point x="370.8333333333333" y="0.0" type="line"/>
      <point x="370.8333333333333" y="843.0833333333334" type="line"/>
      <point x="678.1666666666666" y="843.0833333333334" type="line"/>
      <point x="678.1666666666666" y="1042.6666666666667" type="line"/>
      <point x="370.8333333333333" y="1042.6666666666667" type="line"/>
      <point x="370.8333333333333" y="1562.0" type="line"/>
      <point x="699.8333333333334" y="1562.0" type="line"/>
      <point x="699.8333333333334" y="1760.0" type="line"/>
      <point x="139.0" y="1760.0" type="line"/>
    </contour>
  </outline>
</glyph>
<glyph name="G" format="2">
  <advance width="964.4166666666666"/>
  <unicode hex="0047"/>
  <anchor x="482.5" y="0.0" name="bottom"/>
  <anchor x="482.5" y="1760.0" name="top"/>
  <outline>
    <contour>
      <point x="450.1666666666667" y="-17.416666666666668" type="curve" smooth="yes"/>
      <point x="567.6666666666666" y="-17.416666666666668"/>
      <point x="659.6666666666666" y="43.25"/>
      <point x="693.9166666666666" y="151.41666666666666" type="curve"/>
      <point x="727.3333333333334" y="0.0" type="line"/>
      <point x="840.9166666666666" y="0.0" type="line"/>
      <point x="840.9166666666666" y="939.4166666666666" type="line"/>
      <point x="492.9166666666667" y="939.4166666666666" type="line"/>
      <point x="492.9166666666667" y="764.8333333333334" type="line"/>
      <point x="632.5833333333334" y="764.8333333333334" type="line"/>
      <point x="632.5833333333334" y="532.5" type="line" smooth="yes"/>
      <point x="632.5833333333334" y="276.8333333333333"/>
      <point x="597.5" y="177.91666666666666"/>
      <point x="488.9166666666667" y="177.91666666666666" type="curve" smooth="yes"/>
      <point x="375.5833333333333" y="177.91666666666666"/>
      <point x="351.4166666666667" y="276.4166666666667"/>
      <point x="351.4166666666667" y="526.0" type="curve" smooth="yes"/>
      <point x="351.4166666666667" y="1275.5833333333333" type="line" smooth="yes"/>
      <point x="351.4166666666667" y="1502.0"/>
      <point x="386.75" y="1579.5"/>
      <point x="494.9166666666667" y="1579.5" type="curve" smooth="yes"/>
      <point x="594.25" y="1579.5"/>
      <point x="620.0833333333334" y="1507.4166666666667"/>
      <point x="620.0833333333334" y="1341.8333333333333" type="curve" smooth="yes"/>
      <point x="620.0833333333334" y="1131.5833333333333" type="line"/>
      <point x="840.9166666666666" y="1131.5833333333333" type="line"/>
      <point x="840.9166666666666" y="1263.0" type="line" smooth="yes"/>
      <point x="840.9166666666666" y="1577.5833333333333"/>
      <point x="792.3333333333334" y="1779.4166666666667"/>
      <point x="493.25" y="1779.4166666666667" type="curve" smooth="yes"/>
      <point x="209.41666666666666" y="1779.4166666666667"/>
      <point x="118.16666666666667" y="1580.4166666666667"/>
      <point x="118.16666666666667" y="1269.5" type="curve" smooth="yes"/>
      <point x="118.16666666666667" y="520.25" type="line" smooth="yes"/>
      <point x="118.16666666666667" y="139.0"/>
      <point x="242.83333333333334" y="-17.416666666666668"/>
    </contour>
  </outline>
</glyph>
<glyph name="I" format="2">
  <advance width="515.0"/>
  <unicode hex="0049"/>
  <anchor x="258.0" y="0.0" name="bottom"/>
  <anchor x="271.4166666666667" y="0.0" name="ogonek"/>
  <anchor x="258.0" y="1760.0" name="top"/>
  <anchor x="20.0" y="1760.0" name="topleft"/>
  <outline>
    <contour>
      <point x="141.29166666666666" y="0.0" type="line"/>
      <point x="373.7083333333333" y="0.0" type="line"/>
      <point x="373.7083333333333" y="1760.0" type="line"/>
      <point x="141.29166666666666" y="1760.0" type="line"/>
    </contour>
  </outline>
</glyph>
<glyph name="J" format="2">
  <advance width="905.1666666666666"/>
  <unicode hex="004A"/>
  <anchor x="452.5833333333333" y="0.0" name="bottom"/>
  <anchor x="645.0833333333334" y="1760.0" name="top"/>
  <outline>
    <contour>
      <point x="427.2083333333333" y="-20.583333333333332" type="curve" smooth="yes"/>
      <point x="644.4583333333334" y="-20.583333333333332"/>
      <point x="760.375" y="135.0"/>
      <point x="760.375" y="428.0833333333333" type="curve" smooth="yes"/>
      <point x="760.375" y="1760.0" type="line"/>
      <point x="527.9583333333334" y="1760.0" type="line"/>
      <point x="527.9583333333334" y="418.0" type="line" smooth="yes"/>
      <point x="527.9583333333334" y="273.0833333333333"/>
      <point x="521.2083333333334" y="177.91666666666666"/>
      <point x="420.375" y="177.91666666666666" type="curve" smooth="yes"/>
      <point x="319.9583333333333" y="177.91666666666666"/>
      <point x="312.625" y="280.0833333333333"/>
      <point x="312.625" y="402.0" type="curve" smooth="yes"/>
      <point x="312.625" y="654.0" type="line"/>
      <point x="86.875" y="654.0" type="line"/>
      <point x="86.875" y="389.0" type="line" smooth="yes"/>
      <point x="86.875" y="116.66666666666667"/>
      <point x="201.29166666666666" y="-20.583333333333332"/>
    </contour>
  </outline>
</glyph>
<glyph name="K" format="2">
  <advance width="939.0"/>
  <unicode hex="004B"/>
  <anchor x="505.8333333333333" y="0.0" name="bottom"/>
  <anchor x="505.8333333333333" y="1760.0" name="top"/>
  <outline>
    <contour>
      <point x="139.0" y="0.0" type="line"/>
      <point x="373.4166666666667" y="0.0" type="line"/>
      <point x="373.4166666666667" y="833.6666666666666" type="line"/>
      <point x="681.5" y="0.0" type="line"/>
      <point x="925.4166666666666" y="0.0" type="line"/>
      <point x="589.4166666666666" y="891.4166666666666" type="line"/>
      <point x="902.4166666666666" y="1760.0" type="line"/>
      <point x="665.6666666666666" y="1760.0" type="line"/>
      <point x="371.4166666666667" y="933.0833333333334" type="line"/>
      <point x="371.4166666666667" y="1760.0" type="line"/>
      <point x="139.0" y="1760.0" type="line"/>
    </contour>
  </outline>
</glyph>
<glyph name="L" format="2">
  <advance width="718.75"/>
  <unicode hex="004C"/>
  <anchor x="370.8333333333333" y="1760.0" name="#exit"/>
  <anchor x="405.5" y="0.0" name="bottom"/>
  <anchor x="359.6666666666667" y="880.0" name="center"/>
  <anchor x="273.8333333333333" y="1760.0" name="top"/>
  <anchor x="698.75" y="1760.0" name="topright"/>
  <outline>
    <contour>
      <point x="139.0" y="0.0" type="line"/>
      <point x="702.25" y="0.0" type="line"/>
      <point x="702.25" y="194.75" type="line"/>
      <point x="371.4166666666667" y="194.75" type="line"/>
      <point x="371.4166666666667" y="1760.0" type="line"/>
      <point x="139.0" y="1760.0" type="line"/>
    </contour>
  </outline>
</glyph>
<glyph name="M" format="2">
  <advance width="1346.8333333333333"/>
  <unicode hex="004D"/>
  <anchor x="673.4166666666666" y="0.0" name="bottom"/>
  <anchor x="673.4166666666666" y="1760.0" name="top"/>
  <outline>
    <contour>
      <point x="139.0" y="0.0" type="line"/>
      <point x="340.4166666666667" y="0.0" type="line"/>
      <point x="340.4166666666667" y="661.8333333333334" type="line"/>
      <point x="326.3333333333333" y="1296.5" type="line"/>
      <point x="590.25" y="3.3333333333333335" type="line"/>
      <point x="765.3333333333334" y="3.3333333333333335" type="line"/>
      <point x="1018.6666666666666" y="1296.5" type="line"/>
      <point x="1004.5833333333334" y="661.8333333333334" type="line"/>
      <point x="1004.5833333333334" y="0.0" type="line"/>
      <point x="1207.4166666666667" y="0.0" type="line"/>
      <point x="1207.4166666666667" y="1760.0" type="line"/>
      <point x="928.4166666666666" y="1760.0" type="line"/>
      <point x="679.4166666666666" y="403.4166666666667" type="line"/>
      <point x="416.5833333333333" y="1760.0" type="line"/>
      <point x="139.0" y="1760.0" type="line"/>
    </contour>
  </outline>
</glyph>
<glyph name="N" format="2">
  <advance width="1036.9166666666667"/>
  <unicode hex="004E"/>
  <anchor x="518.6666666666666" y="0.0" name="bottom"/>
  <anchor x="518.6666666666666" y="1760.0" name="top"/>
  <outline>
    <contour>
      <point x="139.0" y="0.0" type="line"/>
      <point x="353.3333333333333" y="0.0" type="line"/>
      <point x="353.3333333333333" y="708.5833333333334" type="line"/>
      <point x="340.0833333333333" y="1160.0833333333333" type="line"/>
      <point x="730.0833333333334" y="0.0" type="line"/>
      <point x="897.9166666666666" y="0.0" type="line"/>
      <point x="897.9166666666666" y="1760.0" type="line"/>
      <point x="690.75" y="1760.0" type="line"/>
      <point x="690.75" y="1118.0833333333333" type="line"/>
      <point x="710.9166666666666" y="621.1666666666666" type="line"/>
      <point x="317.5" y="1760.0" type="line"/>
      <point x="139.0" y="1760.0" type="line"/>
    </contour>
  </outline>
</glyph>
<glyph name="O" format="2">
  <advance width="966.9166666666666"/>
  <unicode hex="004F"/>
  <anchor x="483.6666666666667" y="0.0" name="bottom"/>
  <anchor x="483.6666666666667" y="880.0" name="center"/>
  <anchor x="870.4166666666666" y="10.0" name="ogonek"/>
  <anchor x="483.6666666666667" y="1760.0" name="top"/>
  <anchor x="20.0" y="1760.0" name="topleft"/>
  <anchor x="946.9166666666666" y="1760.0" name="topright"/>
  <outline>
    <contour>
      <point x="485.6666666666667" y="-20.0" type="curve" smooth="yes"/>
      <point x="753.8333333333334" y="-20.0"/>
      <point x="848.3333333333334" y="153.83333333333334"/>
      <point x="848.3333333333334" y="500.1666666666667" type="curve" smooth="yes"/>
      <point x="848.3333333333334" y="1288.25" type="line" smooth="yes"/>
      <point x="848.3333333333334" y="1591.25"/>
      <point x="771.8333333333334" y="1781.5833333333333"/>
      <point x="489.8333333333333" y="1781.5833333333333" type="curve" smooth="yes"/>
      <point x="207.83333333333334" y="1781.5833333333333"/>
      <point x="118.16666666666667" y="1591.25"/>
      <point x="118.16666666666667" y="1288.25" type="curve" smooth="yes"/>
      <point x="118.16666666666667" y="500.1666666666667" type="line" smooth="yes"/>
      <point x="118.16666666666667" y="153.83333333333334"/>
      <point x="217.5" y="-20.0"/>
    </contour>
    <contour>
      <point x="485.6666666666667" y="180.5" type="curve" smooth="yes"/>
      <point x="372.5" y="180.5"/>
      <point x="351.4166666666667" y="265.6666666666667"/>
      <point x="351.4166666666667" y="497.75" type="curve" smooth="yes"/>
      <point x="351.4166666666667" y="1301.25" type="line" smooth="yes"/>
      <point x="351.4166666666667" y="1489.75"/>
      <point x="381.75" y="1581.0833333333333"/>
      <point x="489.8333333333333" y="1581.0833333333333" type="curve" smooth="yes"/>
      <point x="594.75" y="1581.0833333333333"/>
      <point x="615.5" y="1487.0833333333333"/>
      <point x="615.5" y="1300.25" type="curve" smooth="yes"/>
      <point x="615.5" y="497.75" type="line" smooth="yes"/>
      <point x="615.5" y="268.5"/>
      <point x="593.4166666666666" y="180.5"/>
    </contour>
  </outline>
</glyph>
<glyph name="P" format="2">
  <advance width="914.4166666666666"/>
  <unicode hex="0050"/>
  <anchor x="457.4166666666667" y="0.0" name="bottom"/>
  <anchor x="457.4166666666667" y="1760.0" name="top"/>
  <outline>
    <contour>
      <point x="139.0" y="0.0" type="line"/>
      <point x="371.4166666666667" y="0.0" type="line"/>
      <point x="371.4166666666667" y="692.25" type="line"/>
      <point x="517.5833333333334" y="692.25" type="line" smooth="yes"/>
      <point x="787.1666666666666" y="692.25"/>
      <point x="856.0833333333334" y="879.0"/>
      <point x="856.0833333333334" y="1228.1666666666667" type="curve"/>
      <point x="856.0833333333334" y="1259.3333333333333" type="line"/>
      <point x="856.0833333333334" y="1574.3333333333333"/>
      <point x="794.4166666666666" y="1760.0"/>
      <point x="513.8333333333334" y="1760.0" type="curve" smooth="yes"/>
      <point x="139.0" y="1760.0" type="line"/>
    </contour>
    <contour>
      <point x="371.4166666666667" y="884.6666666666666" type="line"/>
      <point x="371.4166666666667" y="1578.5" type="line"/>
      <point x="487.0" y="1578.5" type="line" smooth="yes"/>
      <point x="602.9166666666666" y="1578.5"/>
      <point x="624.6666666666666" y="1474.8333333333333"/>
      <point x="625.0833333333334" y="1263.4166666666667" type="curve" smooth="yes"/>
      <point x="625.0833333333334" y="1229.4166666666667" type="line" smooth="yes"/>
      <point x="625.0833333333334" y="972.5"/>
      <point x="603.0" y="884.6666666666666"/>
      <point x="483.25" y="884.6666666666666" type="curve" smooth="yes"/>
    </contour>
  </outline>
</glyph>
<glyph name="R" format="2">
  <advance width="960.6666666666666"/>
  <unicode hex="0052"/>
  <anchor x="480.8333333333333" y="0.0" name="bottom"/>
  <anchor x="480.8333333333333" y="1760.0" name="top"/>
  <outline>
    <contour>
      <point x="139.0" y="0.0" type="line"/>
      <point x="371.4166666666667" y="0.0" type="line"/>
      <point x="371.4166666666667" y="842.0833333333334" type="line"/>
      <point x="479.0" y="835.9166666666666" type="line" smooth="yes"/>
      <point x="606.0" y="828.3333333333334"/>
      <point x="624.6666666666666" y="790.9166666666666"/>
      <point x="624.6666666666666" y="608.8333333333334" type="curve" smooth="yes"/>
      <point x="624.6666666666666" y="320.75"/>
      <point x="625.6666666666666" y="25.0"/>
      <point x="638.1666666666666" y="0.0" type="curve"/>
      <point x="870.0" y="0.0" type="line"/>
      <point x="856.5" y="34.916666666666664"/>
      <point x="856.5" y="313.4166666666667"/>
      <point x="856.5" y="361.8333333333333" type="curve" smooth="yes"/>
      <point x="856.5" y="780.0"/>
      <point x="820.1666666666666" y="907.6666666666666"/>
      <point x="694.0833333333334" y="929.6666666666666" type="curve"/>
      <point x="821.3333333333334" y="967.9166666666666"/>
      <point x="854.6666666666666" y="1091.0833333333333"/>
      <point x="854.6666666666666" y="1303.9166666666667" type="curve" smooth="yes"/>
      <point x="854.6666666666666" y="1604.5"/>
      <point x="816.5833333333334" y="1760.0"/>
      <point x="538.8333333333334" y="1760.0" type="curve" smooth="yes"/>
      <point x="139.0" y="1760.0" type="line"/>
    </contour>
    <contour>
      <point x="371.8333333333333" y="1017.4166666666666" type="line"/>
      <point x="371.8333333333333" y="1578.5" type="line"/>
      <point x="485.5833333333333" y="1578.5" type="line" smooth="yes"/>
      <point x="605.75" y="1578.5"/>
      <point x="624.6666666666666" y="1534.6666666666667"/>
      <point x="624.6666666666666" y="1326.5" type="curve" smooth="yes"/>
      <point x="624.6666666666666" y="1314.9166666666667" type="line" smooth="yes"/>
      <point x="624.6666666666666" y="1063.9166666666667"/>
      <point x="600.75" y="1017.4166666666666"/>
      <point x="493.4166666666667" y="1017.4166666666666" type="curve" smooth="yes"/>
    </contour>
  </outline>
</glyph>
<glyph name="S" format="2">
  <advance width="847.5833333333334"/>
  <unicode hex="0053"/>
  <anchor x="424.0" y="0.0" name="bottom"/>
  <anchor x="424.0" y="1760.0" name="top"/>
  <outline>
    <contour>
      <point x="438.21958333333333" y="-20.0" type="curve" smooth="yes"/>
      <point x="711.3029166666666" y="-20.0"/>
      <point x="788.4695833333334" y="152.83333333333334"/>
      <point x="788.4695833333334" y="454.8333333333333" type="curve" smooth="yes"/>
      <point x="788.4695833333334" y="663.3333333333334"/>
      <point x="702.2195833333334" y="820.0833333333334"/>
      <point x="570.8029166666666" y="959.5833333333334" type="curve" smooth="yes"/>
      <point x="440.38625" y="1099.0833333333333" type="line"/>
      <point x="345.63625" y="1198.6666666666667"/>
      <point x="297.38625" y="1247.1666666666667"/>
      <point x="297.38625" y="1375.6666666666667" type="curve" smooth="yes"/>
      <point x="297.38625" y="1519.4166666666667"/>
      <point x="334.88625" y="1583.3333333333333"/>
      <point x="428.38625" y="1583.3333333333333" type="curve" smooth="yes"/>
      <point x="528.63625" y="1583.3333333333333"/>
      <point x="545.3029166666666" y="1486.8333333333333"/>
      <point x="545.3029166666666" y="1295.9166666666667" type="curve" smooth="yes"/>
      <point x="545.3029166666666" y="1174.5833333333333" type="line"/>
      <point x="763.7195833333334" y="1174.5833333333333" type="line"/>
      <point x="763.7195833333334" y="1280.6666666666667" type="line" smooth="yes"/>
      <point x="763.7195833333334" y="1585.5"/>
      <point x="713.9695833333334" y="1781.5833333333333"/>
      <point x="429.21958333333333" y="1781.5833333333333" type="curve" smooth="yes"/>
      <point x="152.88625" y="1781.5833333333333"/>
      <point x="76.30333333333334" y="1620.25"/>
      <point x="76.30333333333334" y="1349.8333333333333" type="curve" smooth="yes"/>
      <point x="76.30333333333334" y="1153.9166666666667"/>
      <point x="175.30291666666665" y="1026.6666666666667"/>
      <point x="278.21958333333333" y="921.5" type="curve" smooth="yes"/>
      <point x="399.46958333333333" y="798.5833333333334" type="line" smooth="yes"/>
      <point x="506.80291666666665" y="689.1666666666666"/>
      <point x="562.9695833333334" y="585.4166666666666"/>
      <point x="562.9695833333334" y="438.8333333333333" type="curve" smooth="yes"/>
      <point x="562.9695833333334" y="252.0"/>
      <point x="548.4695833333334" y="178.66666666666666"/>
      <point x="437.30291666666665" y="178.66666666666666" type="curve" smooth="yes"/>
      <point x="329.88625" y="178.66666666666666"/>
      <point x="305.46958333333333" y="266.9166666666667"/>
      <point x="305.46958333333333" y="490.1666666666667" type="curve" smooth="yes"/>
      <point x="305.46958333333333" y="668.3333333333334" type="line"/>
      <point x="82.38666666666667" y="668.3333333333334" type="line"/>
      <point x="82.38666666666667" y="503.1666666666667" type="line" smooth="yes"/>
      <point x="82.38666666666667" y="186.33333333333334"/>
      <point x="149.30291666666665" y="-20.0"/>
    </contour>
  </outline>
</glyph>
<glyph name="T" format="2">
  <advance width="661.5"/>
  <unicode hex="0054"/>
  <anchor x="331.25" y="0.0" name="bottom"/>
  <anchor x="331.25" y="880.0" name="center"/>
  <anchor x="331.25" y="1760.0" name="top"/>
  <outline>
    <contour>
      <point x="220.53416666666666" y="0.0" type="line"/>
      <point x="451.9508333333333" y="0.0" type="line"/>
      <point x="451.9508333333333" y="1563.0" type="line"/>
      <point x="640.0341666666667" y="1563.0" type="line"/>
      <point x="640.0341666666667" y="1760.0" type="line"/>
      <point x="21.534166666666668" y="1760.0" type="line"/>
      <point x="21.534166666666668" y="1563.0" type="line"/>
      <point x="220.53416666666666" y="1563.0" type="line"/>
    </contour>
  </outline>
</glyph>
<glyph name="U" format="2">
  <advance width="978.5833333333334"/>
  <unicode hex="0055"/>
  <anchor x="489.5" y="0.0" name="bottom"/>
  <anchor x="561.75" y="0.0" name="ogonek"/>
  <anchor x="489.5" y="1760.0" name="top"/>
  <anchor x="958.5833333333334" y="1760.0" name="topright"/>
  <outline>
    <contour>
      <point x="491.0495833333333" y="-20.583333333333332" type="curve" smooth="yes"/>
      <point x="757.46625" y="-20.583333333333332"/>
      <point x="854.1329166666667" y="132.0"/>
      <point x="854.1329166666667" y="452.0" type="curve" smooth="yes"/>
      <point x="854.1329166666667" y="1760.0" type="line"/>
      <point x="622.2995833333333" y="1760.0" type="line"/>
      <point x="622.2995833333333" y="456.4166666666667" type="line" smooth="yes"/>
      <point x="622.2995833333333" y="283.0833333333333"/>
      <point x="618.46625" y="176.91666666666666"/>
      <point x="490.6329166666667" y="176.91666666666666" type="curve" smooth="yes"/>
      <point x="364.21625" y="176.91666666666666"/>
      <point x="357.7995833333333" y="284.0833333333333"/>
      <point x="357.7995833333333" y="457.0" type="curve" smooth="yes"/>
      <point x="357.7995833333333" y="1760.0" type="line"/>
      <point x="125.38291666666666" y="1760.0" type="line"/>
      <point x="125.38291666666666" y="452.0" type="line" smooth="yes"/>
      <point x="125.38291666666666" y="132.0"/>
      <point x="224.63291666666666" y="-20.583333333333332"/>
    </contour>
  </outline>
</glyph>
<glyph name="V" format="2">
  <advance width="902.5833333333334"/>
  <unicode hex="0056"/>
  <anchor x="451.5833333333333" y="0.0" name="bottom"/>
  <anchor x="451.5833333333333" y="1760.0" name="top"/>
  <outline>
    <contour>
      <point x="324.2975" y="0.0" type="line"/>
      <point x="602.7975" y="0.0" type="line"/>
      <point x="863.1308333333334" y="1760.0" type="line"/>
      <point x="645.2141666666666" y="1760.0" type="line"/>
      <point x="546.2975" y="994.1666666666666" type="line"/>
      <point x="470.1308333333333" y="378.75" type="line"/>
      <point x="464.8808333333333" y="378.75" type="line"/>
      <point x="376.96416666666664" y="994.1666666666666" type="line"/>
      <point x="260.7975" y="1760.0" type="line"/>
      <point x="39.630833333333335" y="1760.0" type="line"/>
    </contour>
  </outline>
</glyph>
<glyph name="W" format="2">
  <advance width="1348.3333333333333"/>
  <unicode hex="0057"/>
  <anchor x="674.1666666666666" y="0.0" name="bottom"/>
  <anchor x="674.1666666666666" y="1760.0" name="top"/>
  <outline>
    <contour>
      <point x="275.38208333333336" y="0.0" type="line"/>
      <point x="503.29875000000004" y="0.0" type="line"/>
      <point x="686.8820833333334" y="1245.25" type="line"/>
      <point x="861.54875" y="0.0" type="line"/>
      <point x="1092.3833333333332" y="0.0" type="line"/>
      <point x="1297.8833333333332" y="1760.0" type="line"/>
      <point x="1086.6333333333332" y="1760.0" type="line"/>
      <point x="965.04875" y="450.5833333333333" type="line"/>
      <point x="776.7154166666667" y="1760.0" type="line"/>
      <point x="588.1320833333334" y="1760.0" type="line"/>
      <point x="403.13208333333336" y="450.5833333333333" type="line"/>
      <point x="261.88208333333336" y="1760.0" type="line"/>
      <point x="50.46541666666667" y="1760.0" type="line"/>
    </contour>
  </outline>
</glyph>
<glyph name="X" format="2">
  <advance width="838.0833333333334"/>
  <unicode hex="0058"/>
  <anchor x="419.25" y="0.0" name="bottom"/>
  <anchor x="419.25" y="1760.0" name="top"/>
  <outline>
    <contour>
      <point x="43.4375" y="0.0" type="line"/>
      <point x="261.6041666666667" y="0.0" type="line"/>
      <point x="414.1875" y="580.0833333333334" type="line"/>
      <point x="593.1875" y="0.0" type="line"/>
      <point x="794.8541666666666" y="0.0" type="line"/>
      <point x="528.2708333333334" y="857.8333333333334" type="line"/>
      <point x="781.4375" y="1760.0" type="line"/>
      <point x="568.3541666666666" y="1760.0" type="line"/>
      <point x="421.5208333333333" y="1200.25" type="line"/>
      <point x="248.27083333333334" y="1760.0" type="line"/>
      <point x="48.520833333333336" y="1760.0" type="line"/>
      <point x="303.3541666666667" y="937.0" type="line"/>
    </contour>
  </outline>
</glyph>
<glyph name="Y" format="2">
  <advance width="848.25"/>
  <unicode hex="0059"/>
  <anchor x="424.4166666666667" y="0.0" name="bottom"/>
  <anchor x="424.4166666666667" y="1760.0" name="top"/>
  <anchor x="20.0" y="1760.0" name="topleft"/>
  <outline>
    <contour>
      <point x="317.4033333333333" y="0.0" type="line"/>
      <point x="549.82" y="0.0" type="line"/>
      <point x="549.82" y="724.0" type="line"/>
      <point x="832.57" y="1760.0" type="line"/>
      <point x="605.57" y="1760.0" type="line"/>
      <point x="437.7366666666667" y="1068.75" type="line"/>
      <point x="433.7366666666667" y="1068.75" type="line"/>
      <point x="242.23666666666668" y="1760.0" type="line"/>
      <point x="15.986666666666666" y="1760.0" type="line"/>
      <point x="317.4033333333333" y="724.0" type="line"/>
    </contour>
  </outline>
</glyph>
<glyph name="Z" format="2">
  <advance width="714.1666666666666"/>
  <unicode hex="005A"/>
  <anchor x="357.0833333333333" y="0.0" name="bottom"/>
  <anchor x="357.0833333333333" y="880.0" name="center"/>
  <anchor x="357.0833333333333" y="1760.0" name="top"/>
  <outline>
    <contour>
      <point x="66.44041666666666" y="0.0" type="line"/>
      <point x="664.1904166666667" y="0.0" type="line"/>
      <point x="664.1904166666667" y="196.58333333333334" type="line"/>
      <point x="308.3570833333333" y="196.58333333333334" type="line"/>
      <point x="672.1904166666667" y="1577.4166666666667" type="line"/>
      <point x="672.1904166666667" y="1760.0" type="line"/>
      <point x="99.44041666666666" y="1760.0" type="line"/>
      <point x="99.44041666666666" y="1563.4166666666667" type="line"/>
      <point x="430.27375" y="1563.4166666666667" type="line"/>
      <point x="66.44041666666666" y="203.58333333333334" type="line"/>
    </contour>
  </outline>
</glyph>
<glyph name="bracketleft" format="2">
  <advance width="684.6666666666666"/>
  <unicode hex="005B"/>
  <outline>
    <contour>
      <point x="158.58333333333334" y="-70.0" type="line"/>
      <point x="596.9166666666666" y="-70.0" type="line"/>
      <point x="596.9166666666666" y="110.41666666666667" type="line"/>
      <point x="389.5833333333333" y="110.41666666666667" type="line"/>
      <point x="389.5833333333333" y="1580.5833333333333" type="line"/>
      <point x="596.9166666666666" y="1580.5833333333333" type="line"/>
      <point x="596.9166666666666" y="1760.0" type="line"/>
      <point x="158.58333333333334" y="1760.0" type="line"/>
    </contour>
  </outline>
</glyph>
<glyph name="backslash" format="2">
  <advance width="791.0"/>
  <unicode hex="005C"/>
  <outline>
    <contour>
      <point x="493.0" y="0.0" type="line"/>
      <point x="697.3333333333334" y="0.0" type="line"/>
      <point x="287.3333333333333" y="1760.0" type="line"/>
      <point x="82.0" y="1760.0" type="line"/>
    </contour>
  </outline>
</glyph>
<glyph name="bracketright" format="2">
  <advance width="684.6666666666666"/>
  <unicode hex="005D"/>
  <outline>
    <contour>
      <point x="96.5" y="-70.0" type="line"/>
      <point x="534.8333333333334" y="-70.0" type="line"/>
      <point x="534.8333333333334" y="1760.0" type="line"/>
      <point x="96.5" y="1760.0" type="line"/>
      <point x="96.5" y="1580.5833333333333" type="line"/>
      <point x="303.8333333333333" y="1580.5833333333333" type="line"/>
      <point x="303.8333333333333" y="110.41666666666667" type="line"/>
      <point x="96.5" y="110.41666666666667" type="line"/>
    </contour>
  </outline>
</glyph>
<glyph name="asciicircum" format="2">
  <advance width="965.25"/>
  <unicode hex="005E"/>
  <outline>
    <contour>
      <point x="98.83333333333333" y="836.5833333333334" type="line"/>
      <point x="323.75" y="836.5833333333334" type="line"/>
      <point x="482.9166666666667" y="1578.3333333333333" type="line"/>
      <point x="642.0833333333334" y="836.5833333333334" type="line"/>
      <point x="866.0" y="836.5833333333334" type="line"/>
      <point x="625.0" y="1760.0" type="line"/>
      <point x="339.8333333333333" y="1760.0" type="line"/>
    </contour>
  </outline>
</glyph>
<glyph name="underscore" format="2">
  <advance width="748.0"/>
  <unicode hex="005F"/>
  <outline>
    <contour>
      <point x="48.0" y="-203.41666666666666" type="line"/>
      <point x="699.0" y="-203.41666666666666" type="line"/>
      <point x="699.0" y="-38.5" type="line"/>
      <point x="48.0" y="-38.5" type="line"/>
    </contour>
  </outline>
</glyph>
<glyph name="a" format="2">
  <advance width="930.3333333333334"/>
  <unicode hex="0061"/>
  <anchor x="465.1666666666667" y="0.0" name="bottom"/>
  <anchor x="709.1666666666666" y="0.0" name="ogonek"/>
  <anchor x="465.1666666666667" y="1500.0" name="top"/>
  <outline>
    <contour>
      <point x="372.5" y="-13.833333333333334" type="curve" smooth="yes"/>
      <point x="487.4166666666667" y="-13.833333333333334"/>
      <point x="559.3333333333334" y="66.5"/>
      <point x="580.25" y="137.91666666666666" type="curve"/>
      <point x="580.25" y="0.0" type="line"/>
      <point x="811.6666666666666" y="0.0" type="line"/>
      <point x="811.6666666666666" y="1046.0" type="line" smooth="yes"/>
      <point x="811.6666666666666" y="1355.0833333333333"/>
      <point x="741.75" y="1518.0"/>
      <point x="475.75" y="1518.0" type="curve" smooth="yes"/>
      <point x="186.41666666666666" y="1518.0"/>
      <point x="127.41666666666667" y="1335.75"/>
      <point x="127.41666666666667" y="1072.25" type="curve" smooth="yes"/>
      <point x="127.41666666666667" y="1028.4166666666667" type="line"/>
      <point x="355.5833333333333" y="1028.4166666666667" type="line"/>
      <point x="355.5833333333333" y="1086.6666666666667" type="line" smooth="yes"/>
      <point x="355.5833333333333" y="1255.75"/>
      <point x="371.4166666666667" y="1329.0833333333333"/>
      <point x="470.0833333333333" y="1329.0833333333333" type="curve" smooth="yes"/>
      <point x="569.75" y="1329.0833333333333"/>
      <point x="578.0" y="1258.25"/>
      <point x="578.0" y="1083.9166666666667" type="curve" smooth="yes"/>
      <point x="578.0" y="961.6666666666666" type="line"/>
      <point x="302.0" y="854.25"/>
      <point x="108.0" y="801.8333333333334"/>
      <point x="108.0" y="513.9166666666666" type="curve" smooth="yes"/>
      <point x="108.0" y="388.75" type="line"/>
      <point x="109.41666666666667" y="140.58333333333334"/>
      <point x="180.5" y="-13.833333333333334"/>
    </contour>
    <contour>
      <point x="444.6666666666667" y="168.0" type="curve" smooth="yes"/>
      <point x="365.0833333333333" y="168.0"/>
      <point x="341.25" y="231.83333333333334"/>
      <point x="341.25" y="388.5" type="curve" smooth="yes"/>
      <point x="341.25" y="539.5833333333334" type="line" smooth="yes"/>
      <point x="341.25" y="700.1666666666666"/>
      <point x="391.5833333333333" y="738.3333333333334"/>
      <point x="578.0" y="821.5833333333334" type="curve"/>
      <point x="578.0" y="273.5" type="line"/>
      <point x="563.9166666666666" y="226.41666666666666"/>
      <point x="514.1666666666666" y="168.0"/>
    </contour>
  </outline>
</glyph>
<glyph name="b" format="2">
  <advance width="964.1666666666666"/>
  <unicode hex="0062"/>
  <anchor x="482.0833333333333" y="0.0" name="bottom"/>
  <anchor x="257.9166666666667" y="1777.3333333333333" name="top"/>
  <outline>
    <contour>
      <point x="578.8333333333334" y="-13.833333333333334" type="curve" smooth="yes"/>
      <point x="792.5" y="-13.833333333333334"/>
      <point x="846.0" y="186.58333333333334"/>
      <point x="846.0" y="450.9166666666667" type="curve" smooth="yes"/>
      <point x="846.0" y="1052.0833333333333" type="line" smooth="yes"/>
      <point x="846.0" y="1319.5833333333333"/>
      <point x="791.75" y="1519.6666666666667"/>
      <point x="562.9166666666666" y="1518.0" type="curve" smooth="yes"/>
      <point x="485.25" y="1517.5833333333333"/>
      <point x="399.0833333333333" y="1467.6666666666667"/>
      <point x="373.1666666666667" y="1385.5833333333333" type="curve"/>
      <point x="373.1666666666667" y="1777.3333333333333" type="line"/>
      <point x="143.16666666666666" y="1777.3333333333333" type="line"/>
      <point x="143.16666666666666" y="0.0" type="line"/>
      <point x="373.1666666666667" y="0.0" type="line"/>
      <point x="373.1666666666667" y="131.83333333333334" type="line"/>
      <point x="415.1666666666667" y="27.5"/>
      <point x="493.9166666666667" y="-13.833333333333334"/>
    </contour>
    <contour>
      <point x="502.0833333333333" y="171.91666666666666" type="curve"/>
      <point x="393.5" y="171.91666666666666"/>
      <point x="373.1666666666667" y="270.0"/>
      <point x="373.1666666666667" y="457.1666666666667" type="curve" smooth="yes"/>
      <point x="373.1666666666667" y="1069.3333333333333" type="line" smooth="yes"/>
      <point x="373.1666666666667" y="1282.75"/>
      <point x="418.1666666666667" y="1328.5"/>
      <point x="505.25" y="1328.5" type="curve" smooth="yes"/>
      <point x="604.4166666666666" y="1328.5"/>
      <point x="615.0" y="1223.5833333333333"/>
      <point x="615.0" y="1069.5" type="curve" smooth="yes"/>
      <point x="615.0" y="461.3333333333333" type="line" smooth="yes"/>
      <point x="615.0" y="265.4166666666667"/>
      <point x="598.75" y="172.5"/>
    </contour>
  </outline>
</glyph>
<glyph name="c" format="2">
  <advance width="903.0"/>
  <unicode hex="0063"/>
  <anchor x="451.5" y="0.0" name="bottom"/>
  <anchor x="451.5" y="1500.0" name="top"/>
  <outline>
    <contour>
      <point x="473.5833333333333" y="-18.0" type="curve" smooth="yes"/>
      <point x="744.4166666666666" y="-18.0"/>
      <point x="805.0" y="175.25"/>
      <point x="805.0" y="462.3333333333333" type="curve" smooth="yes"/>
      <point x="805.0" y="582.25" type="line"/>
      <point x="580.5" y="582.25" type="line"/>
      <point x="580.5" y="423.5" type="line" smooth="yes"/>
      <point x="580.5" y="269.5833333333333"/>
      <point x="569.4166666666666" y="175.08333333333334"/>
      <point x="468.9166666666667" y="175.08333333333334" type="curve" smooth="yes"/>
      <point x="364.6666666666667" y="175.08333333333334"/>
      <point x="349.5833333333333" y="261.0833333333333"/>
      <point x="349.5833333333333" y="426.25" type="curve" smooth="yes"/>
      <point x="349.5833333333333" y="1080.0833333333333" type="line" smooth="yes"/>
      <point x="349.5833333333333" y="1231.9166666666667"/>
      <point x="369.6666666666667" y="1324.9166666666667"/>
      <point x="474.0833333333333" y="1324.9166666666667" type="curve" smooth="yes"/>
      <point x="575.4166666666666" y="1324.9166666666667"/>
      <point x="580.5" y="1239.1666666666667"/>
      <point x="580.5" y="1085.25" type="curve" smooth="yes"/>
      <point x="580.5" y="935.75" type="line"/>
      <point x="805.0" y="935.75" type="line"/>
      <point x="805.0" y="1065.1666666666667" type="line" smooth="yes"/>
      <point x="805.0" y="1339.9166666666667"/>
      <point x="740.8333333333334" y="1518.0"/>
      <point x="477.75" y="1518.0" type="curve" smooth="yes"/>
      <point x="178.08333333333334" y="1518.0"/>
      <point x="118.16666666666667" y="1311.75"/>
      <point x="118.16666666666667" y="998.8333333333334" type="curve" smooth="yes"/>
      <point x="118.16666666666667" y="503.5" type="line" smooth="yes"/>
      <point x="118.16666666666667" y="184.58333333333334"/>
      <point x="176.08333333333334" y="-18.0"/>
    </contour>
  </outline>
</glyph>
<glyph name="d" format="2">
  <advance width="963.5833333333334"/>
  <unicode hex="0064"/>
  <anchor x="708.6666666666666" y="1777.3333333333333" name="#exit"/>
  <anchor x="482.0833333333333" y="0.0" name="bottom"/>
  <anchor x="633.5" y="1636.5" name="center"/>
  <anchor x="702.1666666666666" y="1777.3333333333333" name="top"/>
  <anchor x="943.5833333333334" y="1500.0" name="topright"/>
  <outline>
    <contour>
      <point x="381.9166666666667" y="-13.833333333333334" type="curve" smooth="yes"/>
      <point x="476.75" y="-13.833333333333334"/>
      <point x="552.25" y="31.166666666666668"/>
      <point x="592.25" y="131.41666666666666" type="curve"/>
      <point x="592.25" y="0.0" type="line"/>
      <point x="822.8333333333334" y="0.0" type="line"/>
      <point x="822.8333333333334" y="1777.3333333333333" type="line"/>
      <point x="592.25" y="1777.3333333333333" type="line"/>
      <point x="592.25" y="1402.9166666666667" type="line"/>
      <point x="557.75" y="1468.9166666666667"/>
      <point x="489.6666666666667" y="1518.0"/>
      <point x="408.75" y="1518.0" type="curve" smooth="yes"/>
      <point x="187.08333333333334" y="1518.0"/>
      <point x="118.16666666666667" y="1321.0833333333333"/>
      <point x="118.16666666666667" y="1064.9166666666667" type="curve" smooth="yes"/>
      <point x="118.16666666666667" y="479.5833333333333" type="line" smooth="yes"/>
      <point x="118.16666666666667" y="200.41666666666666"/>
      <point x="150.75" y="-13.833333333333334"/>
    </contour>
    <contour>
      <point x="464.1666666666667" y="171.5" type="curve" smooth="yes"/>
      <point x="369.0833333333333" y="171.5"/>
      <point x="349.5833333333333" y="274.5833333333333"/>
      <point x="349.5833333333333" y="440.6666666666667" type="curve" smooth="yes"/>
      <point x="349.5833333333333" y="1051.25" type="line" smooth="yes"/>
      <point x="349.5833333333333" y="1236.0"/>
      <point x="372.5" y="1327.5"/>
      <point x="468.75" y="1328.0833333333333" type="curve"/>
      <point x="573.0833333333334" y="1328.0833333333333"/>
      <point x="593.25" y="1230.0"/>
      <point x="593.25" y="1055.4166666666667" type="curve" smooth="yes"/>
      <point x="593.25" y="454.25" type="line" smooth="yes"/>
      <point x="593.25" y="238.58333333333334"/>
      <point x="559.0" y="171.5"/>
    </contour>
  </outline>
</glyph>
<glyph name="e" format="2">
  <advance width="907.6666666666666"/>
  <unicode hex="0065"/>
  <anchor x="454.3333333333333" y="0.0" name="bottom"/>
  <anchor x="533.0833333333334" y="0.0" name="ogonek"/>
  <anchor x="454.3333333333333" y="1500.0" name="top"/>
  <outline>
    <contour>
      <point x="465.25" y="-18.0" type="curve" smooth="yes"/>
      <point x="766.1666666666666" y="-18.0"/>
      <point x="806.5" y="178.08333333333334"/>
      <point x="806.5" y="494.25" type="curve" smooth="yes"/>
      <point x="806.5" y="564.9166666666666" type="line"/>
      <point x="580.0833333333334" y="564.9166666666666" type="line"/>
      <point x="580.0833333333334" y="439.3333333333333" type="line" smooth="yes"/>
      <point x="580.0833333333334" y="277.9166666666667"/>
      <point x="577.3333333333334" y="170.91666666666666"/>
      <point x="468.9166666666667" y="170.91666666666666" type="curve" smooth="yes"/>
      <point x="358.75" y="170.91666666666666"/>
      <point x="349.5833333333333" y="269.4166666666667"/>
      <point x="349.5833333333333" y="441.0833333333333" type="curve" smooth="yes"/>
      <point x="349.5833333333333" y="738.4166666666666" type="line"/>
      <point x="809.6666666666666" y="738.4166666666666" type="line"/>
      <point x="809.6666666666666" y="1037.25" type="line" smooth="yes"/>
      <point x="809.6666666666666" y="1325.4166666666667"/>
      <point x="752.0" y="1518.0"/>
      <point x="474.9166666666667" y="1518.0" type="curve" smooth="yes"/>
      <point x="201.66666666666666" y="1518.0"/>
      <point x="118.16666666666667" y="1325.75"/>
      <point x="118.16666666666667" y="1044.5833333333333" type="curve" smooth="yes"/>
      <point x="118.16666666666667" y="502.5" type="line" smooth="yes"/>
      <point x="118.16666666666667" y="188.25"/>
      <point x="172.41666666666666" y="-18.0"/>
    </contour>
    <contour>
      <point x="348.5833333333333" y="884.0833333333334" type="line"/>
      <point x="348.5833333333333" y="1068.5" type="line" smooth="yes"/>
      <point x="348.5833333333333" y="1222.5833333333333"/>
      <point x="360.5" y="1332.3333333333333"/>
      <point x="474.0833333333333" y="1332.3333333333333" type="curve" smooth="yes"/>
      <point x="570.75" y="1332.3333333333333"/>
      <point x="580.0833333333334" y="1242.4166666666667"/>
      <point x="580.0833333333334" y="1075.5" type="curve" smooth="yes"/>
      <point x="580.0833333333334" y="884.0833333333334" type="line"/>
    </contour>
  </outline>
</glyph>
<glyph name="f" format="2">
  <advance width="654.75"/>
  <unicode hex="0066"/>
  <anchor x="327.6666666666667" y="0.0" name="bottom"/>
  <anchor x="403.5" y="1777.3333333333333" name="top"/>
  <outline>
    <contour>
      <point x="193.66666666666666" y="0.0" type="line"/>
      <point x="423.6666666666667" y="0.0" type="line"/>
      <point x="423.6666666666667" y="1273.9166666666667" type="line"/>
      <point x="589.6666666666666" y="1273.9166666666667" type="line"/>
      <point x="589.6666666666666" y="1441.5833333333333" type="line"/>
      <point x="423.6666666666667" y="1441.5833333333333" type="line"/>
      <point x="423.6666666666667" y="1518.0" type="line" smooth="yes"/>
      <point x="423.6666666666667" y="1580.0833333333333"/>
      <point x="442.4166666666667" y="1615.0833333333333"/>
      <point x="523.25" y="1615.0833333333333" type="curve" smooth="yes"/>
      <point x="542.4166666666666" y="1615.0833333333333"/>
      <point x="564.75" y="1613.5"/>
      <point x="589.6666666666666" y="1609.9166666666667" type="curve"/>
      <point x="589.6666666666666" y="1762.9166666666667" type="line"/>
      <point x="579.5" y="1766.5833333333333"/>
      <point x="514.25" y="1785.1666666666667"/>
      <point x="434.0" y="1785.1666666666667" type="curve" smooth="yes"/>
      <point x="273.0" y="1785.1666666666667"/>
      <point x="194.08333333333334" y="1687.5833333333333"/>
      <point x="194.08333333333334" y="1516.6666666666667" type="curve" smooth="yes"/>
      <point x="194.08333333333334" y="1441.5833333333333" type="line"/>
      <point x="70.08333333333333" y="1441.5833333333333" type="line"/>
      <point x="70.08333333333333" y="1273.9166666666667" type="line"/>
      <point x="193.66666666666666" y="1273.9166666666667" type="line"/>
    </contour>
  </outline>
</glyph>
<glyph name="g" format="2">
  <advance width="954.4166666666666"/>
  <unicode hex="0067"/>
  <anchor x="477.5" y="-647.0" name="bottom"/>
  <anchor x="477.5" y="1500.0" name="top"/>
  <outline>
    <contour>
      <point x="455.5833333333333" y="-227.33333333333334" type="curve" smooth="yes"/>
      <point x="740.0" y="-220.0"/>
      <point x="820.0833333333334" y="-40.75"/>
      <point x="820.0833333333334" y="158.75" type="curve" smooth="yes"/>
      <point x="820.0833333333334" y="1500.0" type="line"/>
      <point x="590.0833333333334" y="1500.0" type="line"/>
      <point x="590.0833333333334" y="1380.4166666666667" type="line"/>
      <point x="562.5" y="1471.5833333333333"/>
      <point x="496.25" y="1517.4166666666667"/>
      <point x="403.75" y="1518.0" type="curve" smooth="yes"/>
      <point x="188.0" y="1520.5833333333333"/>
      <point x="118.66666666666667" y="1317.8333333333333"/>
      <point x="118.66666666666667" y="1049.25" type="curve" smooth="yes"/>
      <point x="118.66666666666667" y="597.1666666666666" type="line" smooth="yes"/>
      <point x="118.66666666666667" y="337.9166666666667"/>
      <point x="176.83333333333334" y="145.41666666666666"/>
      <point x="388.6666666666667" y="145.41666666666666" type="curve" smooth="yes"/>
      <point x="481.5" y="145.41666666666666"/>
      <point x="552.75" y="172.91666666666666"/>
      <point x="590.0833333333334" y="272.3333333333333" type="curve"/>
      <point x="590.0833333333334" y="139.33333333333334" type="line" smooth="yes"/>
      <point x="590.0833333333334" y="24.5"/>
      <point x="535.6666666666666" y="-48.75"/>
      <point x="439.3333333333333" y="-50.33333333333333" type="curve" smooth="yes"/>
      <point x="337.25" y="-52.916666666666664"/>
      <point x="257.0" y="-17.583333333333332"/>
      <point x="193.0" y="24.5" type="curve"/>
      <point x="111.08333333333333" y="-126.75" type="line"/>
      <point x="196.75" y="-195.58333333333334"/>
      <point x="306.5" y="-230.91666666666666"/>
    </contour>
    <contour>
      <point x="478.5" y="324.25" type="curve" smooth="yes"/>
      <point x="372.75" y="324.25"/>
      <point x="350.0833333333333" y="421.5"/>
      <point x="350.0833333333333" y="599.25" type="curve" smooth="yes"/>
      <point x="350.0833333333333" y="1077.5" type="line" smooth="yes"/>
      <point x="350.0833333333333" y="1224.6666666666667"/>
      <point x="362.25" y="1329.0833333333333"/>
      <point x="469.75" y="1329.0833333333333" type="curve" smooth="yes"/>
      <point x="565.4166666666666" y="1329.0833333333333"/>
      <point x="590.0833333333334" y="1237.0833333333333"/>
      <point x="590.0833333333334" y="1075.9166666666667" type="curve" smooth="yes"/>
      <point x="590.0833333333334" y="601.25" type="line" smooth="yes"/>
      <point x="590.0833333333334" y="379.4166666666667"/>
      <point x="554.75" y="324.25"/>
    </contour>
  </outline>
</glyph>
<glyph name="h" format="2">
  <advance width="990.25"/>
  <unicode hex="0068"/>
  <anchor x="495.4166666666667" y="0.0" name="bottom"/>
  <anchor x="318.5" y="1636.5" name="center"/>
  <anchor x="255.83333333333334" y="1777.3333333333333" name="top"/>
  <outline>
    <contour>
      <point x="140.83333333333334" y="0.0" type="line"/>
      <point x="370.8333333333333" y="0.0" type="line"/>
      <point x="370.8333333333333" y="1137.75" type="line" smooth="yes"/>
      <point x="370.8333333333333" y="1260.8333333333333"/>
      <point x="429.4166666666667" y="1324.9166666666667"/>
      <point x="512.4166666666666" y="1324.9166666666667" type="curve" smooth="yes"/>
      <point x="583.9166666666666" y="1324.9166666666667"/>
      <point x="628.3333333333334" y="1280.5833333333333"/>
      <point x="628.3333333333334" y="1169.4166666666667" type="curve" smooth="yes"/>
      <point x="628.3333333333334" y="0.0" type="line"/>
      <point x="857.9166666666666" y="0.0" type="line"/>
      <point x="857.9166666666666" y="1189.75" type="line" smooth="yes"/>
      <point x="857.9166666666666" y="1407.1666666666667"/>
      <point x="767.3333333333334" y="1518.5833333333333"/>
      <point x="607.3333333333334" y="1518.5833333333333" type="curve" smooth="yes"/>
      <point x="486.0833333333333" y="1518.5833333333333"/>
      <point x="396.8333333333333" y="1432.3333333333333"/>
      <point x="370.8333333333333" y="1335.5833333333333" type="curve"/>
      <point x="370.8333333333333" y="1777.3333333333333" type="line"/>
      <point x="140.83333333333334" y="1777.3333333333333" type="line"/>
    </contour>
  </outline>
</glyph>
<glyph name="k" format="2">
  <advance width="923.0833333333334"/>
  <unicode hex="006B"/>
  <anchor x="461.75" y="0.0" name="bottom"/>
  <anchor x="461.75" y="1777.3333333333333" name="top"/>
  <outline>
    <contour>
      <point x="143.16666666666666" y="0.0" type="line"/>
      <point x="373.1666666666667" y="0.0" type="line"/>
      <point x="373.1666666666667" y="722.9166666666666" type="line"/>
      <point x="666.1666666666666" y="0.0" type="line"/>
      <point x="901.75" y="0.0" type="line"/>
      <point x="580.0" y="760.25" type="line"/>
      <point x="884.75" y="1500.0" type="line"/>
      <point x="651.9166666666666" y="1500.0" type="line"/>
      <point x="373.1666666666667" y="799.9166666666666" type="line"/>
      <point x="373.1666666666667" y="1777.3333333333333" type="line"/>
      <point x="143.16666666666666" y="1777.3333333333333" type="line"/>
    </contour>
  </outline>
</glyph>
<glyph name="l" format="2">
  <advance width="514.6666666666666"/>
  <unicode hex="006C"/>
  <anchor x="246.5" y="1777.3333333333333" name="#exit"/>
  <anchor x="257.8333333333333" y="0.0" name="bottom"/>
  <anchor x="257.8333333333333" y="889.1666666666666" name="center"/>
  <anchor x="257.8333333333333" y="1777.3333333333333" name="top"/>
  <anchor x="491.0833333333333" y="1777.3333333333333" name="topright"/>
  <outline>
    <contour>
      <point x="140.75" y="0.0" type="line"/>
      <point x="370.3333333333333" y="0.0" type="line"/>
      <point x="370.3333333333333" y="1777.3333333333333" type="line"/>
      <point x="140.75" y="1777.3333333333333" type="line"/>
    </contour>
  </outline>
</glyph>
<glyph name="m" format="2">
  <advance width="1460.8333333333333"/>
  <unicode hex="006D"/>
  <anchor x="730.4166666666666" y="0.0" name="bottom"/>
  <anchor x="730.4166666666666" y="1500.0" name="top"/>
  <outline>
    <contour>
      <point x="138.0" y="0.0" type="line"/>
      <point x="368.0" y="0.0" type="line"/>
      <point x="368.0" y="1149.6666666666667" type="line" smooth="yes"/>
      <point x="368.0" y="1251.5"/>
      <point x="413.0" y="1324.9166666666667"/>
      <point x="508.5" y="1324.9166666666667" type="curve" smooth="yes"/>
      <point x="581.4166666666666" y="1324.9166666666667"/>
      <point x="618.1666666666666" y="1274.5"/>
      <point x="618.1666666666666" y="1175.5833333333333" type="curve" smooth="yes"/>
      <point x="618.1666666666666" y="0.0" type="line"/>
      <point x="848.75" y="0.0" type="line"/>
      <point x="848.75" y="1164.8333333333333" type="line" smooth="yes"/>
      <point x="848.75" y="1278.8333333333333"/>
      <point x="893.4166666666666" y="1324.9166666666667"/>
      <point x="986.8333333333334" y="1324.9166666666667" type="curve" smooth="yes"/>
      <point x="1055.0833333333333" y="1324.9166666666667"/>
      <point x="1098.9166666666667" y="1284.6666666666667"/>
      <point x="1098.9166666666667" y="1174.1666666666667" type="curve" smooth="yes"/>
      <point x="1098.9166666666667" y="0.0" type="line"/>
      <point x="1328.5" y="0.0" type="line"/>
      <point x="1328.5" y="1169.4166666666667" type="line" smooth="yes"/>
      <point x="1328.5" y="1394.5833333333333"/>
      <point x="1249.0833333333333" y="1518.5833333333333"/>
      <point x="1075.0833333333333" y="1518.5833333333333" type="curve" smooth="yes"/>
      <point x="955.75" y="1518.5833333333333"/>
      <point x="870.0833333333334" y="1458.8333333333333"/>
      <point x="820.6666666666666" y="1367.0" type="curve"/>
      <point x="781.4166666666666" y="1474.6666666666667"/>
      <point x="704.1666666666666" y="1518.5833333333333"/>
      <point x="604.5" y="1518.5833333333333" type="curve" smooth="yes"/>
      <point x="475.9166666666667" y="1518.5833333333333"/>
      <point x="395.8333333333333" y="1440.6666666666667"/>
      <point x="368.0" y="1341.0833333333333" type="curve"/>
      <point x="368.0" y="1500.0" type="line"/>
      <point x="138.0" y="1500.0" type="line"/>
    </contour>
  </outline>
</glyph>
<glyph name="n" format="2">
  <advance width="989.6666666666666"/>
  <unicode hex="006E"/>
  <anchor x="494.8333333333333" y="0.0" name="bottom"/>
  <anchor x="494.8333333333333" y="1500.0" name="top"/>
  <outline>
    <contour>
      <point x="138.0" y="0.0" type="line"/>
      <point x="368.0" y="0.0" type="line"/>
      <point x="368.0" y="1155.0" type="line" smooth="yes"/>
      <point x="368.0" y="1268.75"/>
      <point x="423.8333333333333" y="1329.0833333333333"/>
      <point x="506.8333333333333" y="1329.0833333333333" type="curve" smooth="yes"/>
      <point x="578.3333333333334" y="1329.0833333333333"/>
      <point x="627.3333333333334" y="1280.5833333333333"/>
      <point x="627.3333333333334" y="1182.5" type="curve" smooth="yes"/>
      <point x="627.3333333333334" y="0.0" type="line"/>
      <point x="857.3333333333334" y="0.0" type="line"/>
      <point x="857.3333333333334" y="1189.75" type="line" smooth="yes"/>
      <point x="857.3333333333334" y="1407.1666666666667"/>
      <point x="769.1666666666666" y="1518.5833333333333"/>
      <point x="609.5833333333334" y="1518.5833333333333" type="curve" smooth="yes"/>
      <point x="487.3333333333333" y="1518.5833333333333"/>
      <point x="394.0" y="1432.3333333333333"/>
      <point x="368.0" y="1335.5833333333333" type="curve"/>
      <point x="368.0" y="1500.0" type="line"/>
      <point x="138.0" y="1500.0" type="line"/>
    </contour>
  </outline>
</glyph>
<glyph name="o" format="2">
  <advance width="937.3333333333334"/>
  <unicode hex="006F"/>
  <anchor x="468.6666666666667" y="0.0" name="bottom"/>
  <anchor x="468.6666666666667" y="750.0" name="center"/>
  <anchor x="843.8333333333334" y="10.0" name="ogonek"/>
  <anchor x="468.6666666666667" y="1500.0" name="top"/>
  <anchor x="917.3333333333334" y="1500.0" name="topright"/>
  <outline>
    <contour>
      <point x="470.25" y="-18.0" type="curve" smooth="yes"/>
      <point x="758.1666666666666" y="-18.0"/>
      <point x="819.1666666666666" y="181.66666666666666"/>
      <point x="819.1666666666666" y="487.6666666666667" type="curve" smooth="yes"/>
      <point x="819.1666666666666" y="1031.1666666666667" type="line" smooth="yes"/>
      <point x="819.1666666666666" y="1314.1666666666667"/>
      <point x="744.5" y="1518.0"/>
      <point x="470.25" y="1518.0" type="curve" smooth="yes"/>
      <point x="197.0" y="1518.0"/>
      <point x="118.16666666666667" y="1313.1666666666667"/>
      <point x="118.16666666666667" y="1031.1666666666667" type="curve" smooth="yes"/>
      <point x="118.16666666666667" y="487.6666666666667" type="line" smooth="yes"/>
      <point x="118.16666666666667" y="176.66666666666666"/>
      <point x="184.75" y="-18.0"/>
    </contour>
    <contour>
      <point x="470.25" y="170.91666666666666" type="curve" smooth="yes"/>
      <point x="366.4166666666667" y="170.91666666666666"/>
      <point x="349.5833333333333" y="274.6666666666667"/>
      <point x="349.5833333333333" y="428.1666666666667" type="curve" smooth="yes"/>
      <point x="349.5833333333333" y="1074.6666666666667" type="line" smooth="yes"/>
      <point x="349.5833333333333" y="1228.3333333333333"/>
      <point x="366.8333333333333" y="1329.0833333333333"/>
      <point x="470.25" y="1329.0833333333333" type="curve" smooth="yes"/>
      <point x="567.9166666666666" y="1329.0833333333333"/>
      <point x="587.75" y="1228.3333333333333"/>
      <point x="587.75" y="1074.6666666666667" type="curve" smooth="yes"/>
      <point x="587.75" y="428.1666666666667" type="line" smooth="yes"/>
      <point x="587.75" y="274.6666666666667"/>
      <point x="569.75" y="170.91666666666666"/>
    </contour>
  </outline>
</glyph>
<glyph name="p" format="2">
  <advance width="963.5833333333334"/>
  <unicode hex="0070"/>
  <anchor x="482.0833333333333" y="0.0" name="bottom"/>
  <anchor x="482.0833333333333" y="1500.0" name="top"/>
  <outline>
    <contour>
      <point x="140.75" y="-278.5833333333333" type="line"/>
      <point x="370.75" y="-278.5833333333333" type="line"/>
      <point x="370.75" y="96.25" type="line"/>
      <point x="405.25" y="35.333333333333336"/>
      <point x="472.9166666666667" y="-18.0"/>
      <point x="552.0" y="-18.0" type="curve" smooth="yes"/>
      <point x="803.75" y="-18.0"/>
      <point x="845.4166666666666" y="206.75"/>
      <point x="845.4166666666666" y="492.8333333333333" type="curve" smooth="yes"/>
      <point x="845.4166666666666" y="1037.5" type="line" smooth="yes"/>
      <point x="845.4166666666666" y="1307.9166666666667"/>
      <point x="803.9166666666666" y="1513.8333333333333"/>
      <point x="582.0833333333334" y="1513.8333333333333" type="curve" smooth="yes"/>
      <point x="499.8333333333333" y="1513.8333333333333"/>
      <point x="410.3333333333333" y="1468.8333333333333"/>
      <point x="370.75" y="1370.8333333333333" type="curve"/>
      <point x="370.75" y="1500.0" type="line"/>
      <point x="140.75" y="1500.0" type="line"/>
    </contour>
    <contour>
      <point x="498.25" y="171.91666666666666" type="curve"/>
      <point x="392.5" y="171.91666666666666"/>
      <point x="370.75" y="265.75"/>
      <point x="370.75" y="446.0" type="curve" smooth="yes"/>
      <point x="370.75" y="1068.9166666666667" type="line" smooth="yes"/>
      <point x="370.75" y="1286.4166666666667"/>
      <point x="420.4166666666667" y="1328.5"/>
      <point x="501.4166666666667" y="1328.5" type="curve" smooth="yes"/>
      <point x="603.4166666666666" y="1328.5"/>
      <point x="614.0" y="1218.9166666666667"/>
      <point x="614.0" y="1068.5" type="curve" smooth="yes"/>
      <point x="614.0" y="455.25" type="line" smooth="yes"/>
      <point x="614.0" y="265.4166666666667"/>
      <point x="593.0833333333334" y="172.5"/>
    </contour>
  </outline>
</glyph>
<glyph name="q" format="2">
  <advance width="960.75"/>
  <unicode hex="0071"/>
  <anchor x="480.6666666666667" y="0.0" name="bottom"/>
  <anchor x="480.6666666666667" y="1500.0" name="top"/>
  <outline>
    <contour>
      <point x="590.0" y="-278.5833333333333" type="line"/>
      <point x="820.0" y="-278.5833333333333" type="line"/>
      <point x="820.0" y="1500.0" type="line"/>
      <point x="590.0" y="1500.0" type="line"/>
      <point x="590.0" y="1384.25" type="line"/>
      <point x="549.8333333333334" y="1477.1666666666667"/>
      <point x="466.0" y="1513.8333333333333"/>
      <point x="383.75" y="1513.8333333333333" type="curve" smooth="yes"/>
      <point x="169.25" y="1513.8333333333333"/>
      <point x="118.16666666666667" y="1306.9166666666667"/>
      <point x="118.16666666666667" y="1037.5" type="curve" smooth="yes"/>
      <point x="118.16666666666667" y="480.4166666666667" type="line" smooth="yes"/>
      <point x="118.16666666666667" y="195.16666666666666"/>
      <point x="170.0" y="-18.0"/>
      <point x="411.5833333333333" y="-18.0" type="curve" smooth="yes"/>
      <point x="491.0833333333333" y="-18.0"/>
      <point x="562.4166666666666" y="37.583333333333336"/>
      <point x="590.0" y="103.16666666666667" type="curve"/>
    </contour>
    <contour>
      <point x="458.75" y="171.5" type="curve" smooth="yes"/>
      <point x="357.1666666666667" y="171.5"/>
      <point x="348.5833333333333" y="281.5"/>
      <point x="348.5833333333333" y="436.5833333333333" type="curve" smooth="yes"/>
      <point x="348.5833333333333" y="1049.8333333333333" type="line" smooth="yes"/>
      <point x="348.5833333333333" y="1235.1666666666667"/>
      <point x="366.0833333333333" y="1327.5"/>
      <point x="462.9166666666667" y="1328.0833333333333" type="curve"/>
      <point x="562.5833333333334" y="1328.0833333333333"/>
      <point x="589.4166666666666" y="1241.1666666666667"/>
      <point x="589.4166666666666" y="1055.4166666666667" type="curve" smooth="yes"/>
      <point x="589.4166666666666" y="432.5" type="line" smooth="yes"/>
      <point x="589.4166666666666" y="220.5"/>
      <point x="546.25" y="171.5"/>
    </contour>
  </outline>
</glyph>
<glyph name="r" format="2">
  <advance width="664.9166666666666"/>
  <unicode hex="0072"/>
  <anchor x="267.0" y="0.0" name="bottom"/>
  <anchor x="364.3333333333333" y="1500.0" name="top"/>
  <outline>
    <contour>
      <point x="140.75" y="0.0" type="line"/>
      <point x="372.1666666666667" y="0.0" type="line"/>
      <point x="372.1666666666667" y="1206.9166666666667" type="line"/>
      <point x="421.1666666666667" y="1292.1666666666667"/>
      <point x="535.4166666666666" y="1323.1666666666667"/>
      <point x="630.1666666666666" y="1323.1666666666667" type="curve"/>
      <point x="630.1666666666666" y="1323.1666666666667"/>
      <point x="632.1666666666666" y="1518.0"/>
      <point x="627.1666666666666" y="1518.0" type="curve" smooth="yes"/>
      <point x="494.1666666666667" y="1518.0"/>
      <point x="406.1666666666667" y="1449.0"/>
      <point x="372.1666666666667" y="1333.0" type="curve"/>
      <point x="372.1666666666667" y="1500.0" type="line"/>
      <point x="140.75" y="1500.0" type="line"/>
    </contour>
  </outline>
</glyph>
<glyph name="s" format="2">
  <advance width="828.1666666666666"/>
  <unicode hex="0073"/>
  <anchor x="414.0833333333333" y="0.0" name="bottom"/>
  <anchor x="414.0833333333333" y="1500.0" name="top"/>
  <outline>
    <contour>
      <point x="432.54583333333335" y="-19.583333333333332" type="curve" smooth="yes"/>
      <point x="663.2125" y="-19.583333333333332"/>
      <point x="767.3791666666667" y="115.33333333333333"/>
      <point x="767.3791666666667" y="352.75" type="curve" smooth="yes"/>
      <point x="767.3791666666667" y="519.8333333333334"/>
      <point x="696.3333333333334" y="666.75"/>
      <point x="552.4625" y="798.8333333333334" type="curve" smooth="yes"/>
      <point x="430.29583333333335" y="911.5" type="line" smooth="yes"/>
      <point x="341.0" y="993.9166666666666"/>
      <point x="304.62916666666666" y="1083.9166666666667"/>
      <point x="306.2125" y="1173.25" type="curve"/>
      <point x="309.79583333333335" y="1287.4166666666667"/>
      <point x="345.87916666666666" y="1324.9166666666667"/>
      <point x="422.87916666666666" y="1324.9166666666667" type="curve" smooth="yes"/>
      <point x="502.29583333333335" y="1324.9166666666667"/>
      <point x="529.4625" y="1242.5"/>
      <point x="529.4625" y="1089.5" type="curve" smooth="yes"/>
      <point x="529.4625" y="987.5833333333334" type="line"/>
      <point x="741.9625" y="987.5833333333334" type="line"/>
      <point x="741.9625" y="1063.75" type="line" smooth="yes"/>
      <point x="741.9625" y="1401.4166666666667"/>
      <point x="633.7125" y="1518.0"/>
      <point x="420.87916666666666" y="1518.0" type="curve" smooth="yes"/>
      <point x="205.54583333333335" y="1518.0"/>
      <point x="84.54583333333333" y="1405.75"/>
      <point x="84.54583333333333" y="1158.75" type="curve" smooth="yes"/>
      <point x="84.54583333333333" y="1004.0833333333334"/>
      <point x="149.75" y="870.8333333333334"/>
      <point x="275.37916666666666" y="753.5833333333334" type="curve" smooth="yes"/>
      <point x="393.4625" y="643.8333333333334" type="line" smooth="yes"/>
      <point x="494.25" y="549.8333333333334"/>
      <point x="538.4625" y="450.6666666666667"/>
      <point x="538.4625" y="347.1666666666667" type="curve" smooth="yes"/>
      <point x="538.4625" y="217.0"/>
      <point x="502.9625" y="172.5"/>
      <point x="424.79583333333335" y="172.5" type="curve" smooth="yes"/>
      <point x="345.79583333333335" y="172.5"/>
      <point x="313.4625" y="254.91666666666666"/>
      <point x="313.4625" y="407.5" type="curve" smooth="yes"/>
      <point x="313.4625" y="523.25" type="line"/>
      <point x="93.62916666666666" y="523.25" type="line"/>
      <point x="93.62916666666666" y="416.9166666666667" type="line" smooth="yes"/>
      <point x="93.62916666666666" y="105.5"/>
      <point x="207.87916666666666" y="-19.583333333333332"/>
    </contour>
  </outline>
</glyph>
<glyph name="t" format="2">
  <advance width="613.5"/>
  <unicode hex="0074"/>
  <anchor x="416.3333333333333" y="1783.0" name="#exit"/>
  <anchor x="375.5" y="0.0" name="bottom"/>
  <anchor x="306.75" y="750.0" name="center"/>
  <anchor x="285.1666666666667" y="1760.0" name="top"/>
  <anchor x="593.5" y="1500.0" name="topright"/>
  <outline>
    <contour>
      <point x="405.56125" y="-9.416666666666666" type="curve" smooth="yes"/>
      <point x="562.81125" y="-9.416666666666666" type="line"/>
      <point x="562.81125" y="169.83333333333334" type="line"/>
      <point x="423.14458333333334" y="169.83333333333334"/>
      <point x="404.22791666666666" y="181.25"/>
      <point x="404.22791666666666" y="255.16666666666666" type="curve" smooth="yes"/>
      <point x="404.22791666666666" y="1311.4166666666667" type="line"/>
      <point x="559.56125" y="1311.4166666666667" type="line"/>
      <point x="559.56125" y="1480.0833333333333" type="line"/>
      <point x="404.22791666666666" y="1480.0833333333333" type="line"/>
      <point x="404.22791666666666" y="1760.0" type="line"/>
      <point x="174.22791666666666" y="1760.0" type="line"/>
      <point x="174.22791666666666" y="1480.0833333333333" type="line"/>
      <point x="43.477916666666665" y="1480.0833333333333" type="line"/>
      <point x="43.477916666666665" y="1311.4166666666667" type="line"/>
      <point x="174.22791666666666" y="1311.4166666666667" type="line"/>
      <point x="174.22791666666666" y="225.5" type="line" smooth="yes"/>
      <point x="174.22791666666666" y="56.5"/>
      <point x="212.56125" y="-9.416666666666666"/>
    </contour>
  </outline>
</glyph>
<glyph name="u" format="2">
  <advance width="982.0"/>
  <unicode hex="0075"/>
  <anchor x="491.0" y="0.0" name="bottom"/>
  <anchor x="747.9166666666666" y="0.0" name="ogonek"/>
  <anchor x="491.0" y="1500.0" name="top"/>
  <anchor x="962.0" y="1500.0" name="topright"/>
  <outline>
    <contour>
      <point x="387.25" y="-19.583333333333332" type="curve" smooth="yes"/>
      <point x="511.3333333333333" y="-19.583333333333332"/>
      <point x="582.75" y="56.916666666666664"/>
      <point x="615.6666666666666" y="154.25" type="curve"/>
      <point x="615.6666666666666" y="0.0" type="line"/>
      <point x="846.25" y="0.0" type="line"/>
      <point x="846.25" y="1500.0" type="line"/>
      <point x="616.0833333333334" y="1500.0" type="line"/>
      <point x="615.6666666666666" y="356.25" type="line" smooth="yes"/>
      <point x="615.6666666666666" y="255.41666666666666"/>
      <point x="577.1666666666666" y="175.08333333333334"/>
      <point x="480.6666666666667" y="175.08333333333334" type="curve" smooth="yes"/>
      <point x="391.6666666666667" y="175.08333333333334"/>
      <point x="360.0" y="238.58333333333334"/>
      <point x="360.0" y="354.1666666666667" type="curve" smooth="yes"/>
      <point x="360.0" y="1500.0" type="line"/>
      <point x="129.58333333333334" y="1500.0" type="line"/>
      <point x="129.58333333333334" y="323.6666666666667" type="line" smooth="yes"/>
      <point x="129.58333333333334" y="84.66666666666667"/>
      <point x="234.91666666666666" y="-19.583333333333332"/>
    </contour>
  </outline>
</glyph>
<glyph name="v" format="2">
  <advance width="806.5"/>
  <unicode hex="0076"/>
  <anchor x="403.25" y="0.0" name="bottom"/>
  <anchor x="403.25" y="1500.0" name="top"/>
  <outline>
    <contour>
      <point x="265.13458333333335" y="0.0" type="line"/>
      <point x="541.1345833333334" y="0.0" type="line"/>
      <point x="759.30125" y="1500.0" type="line"/>
      <point x="546.8845833333334" y="1500.0" type="line"/>
      <point x="451.63458333333335" y="672.0833333333334" type="line"/>
      <point x="419.55125" y="314.4166666666667" type="line"/>
      <point x="407.13458333333335" y="314.4166666666667" type="line"/>
      <point x="369.46791666666667" y="671.0833333333334" type="line"/>
      <point x="260.80125" y="1500.0" type="line"/>
      <point x="48.13458333333333" y="1500.0" type="line"/>
    </contour>
  </outline>
</glyph>
<glyph name="w" format="2">
  <advance width="1204.3333333333333"/>
  <unicode hex="0077"/>
  <anchor x="602.1666666666666" y="0.0" name="bottom"/>
  <anchor x="602.1666666666666" y="1500.0" name="top"/>
  <outline>
    <contour>
      <point x="238.25" y="0.0" type="line"/>
      <point x="437.1666666666667" y="0.0" type="line"/>
      <point x="609.6666666666666" y="1154.4166666666667" type="line"/>
      <point x="761.0833333333333" y="0.0" type="line"/>
      <point x="968.0" y="0.0" type="line"/>
      <point x="1152.75" y="1500.0" type="line"/>
      <point x="962.25" y="1500.0" type="line"/>
      <point x="888.8333333333333" y="768.1666666666666" type="line"/>
      <point x="862.75" y="447.58333333333337" type="line"/>
      <point x="855.5833333333333" y="447.58333333333337" type="line"/>
      <point x="814.1666666666666" y="768.0" type="line"/>
      <point x="703.9166666666666" y="1500.0" type="line"/>
      <point x="660.9166666666666" y="1500.0" type="line"/>
      <point x="563.9166666666666" y="1500.0" type="line"/>
      <point x="501.1666666666667" y="1500.0" type="line"/>
      <point x="394.6666666666667" y="750.1666666666666" type="line"/>
      <point x="358.75" y="447.58333333333337" type="line"/>
      <point x="351.0" y="447.58333333333337" type="line"/>
      <point x="323.4166666666667" y="749.1666666666666" type="line"/>
      <point x="245.66666666666669" y="1500.0" type="line"/>
      <point x="52.416666666666664" y="1500.0" type="line"/>
    </contour>
  </outline>
</glyph>
<glyph name="x" format="2">
  <advance width="788.0833333333334"/>
  <unicode hex="0078"/>
  <anchor x="394.3333333333333" y="0.0" name="bottom"/>
  <anchor x="394.3333333333333" y="1500.0" name="top"/>
  <outline>
    <contour>
      <point x="28.550833333333333" y="0.0" type="line"/>
      <point x="239.13416666666666" y="0.0" type="line"/>
      <point x="385.13416666666666" y="484.5833333333333" type="line"/>
      <point x="546.2175" y="0.0" type="line"/>
      <point x="760.1341666666667" y="0.0" type="line"/>
      <point x="501.05083333333334" y="761.4166666666666" type="line"/>
      <point x="748.0508333333333" y="1500.0" type="line"/>
      <point x="542.0508333333333" y="1500.0" type="line"/>
      <point x="405.38416666666666" y="1040.1666666666667" type="line"/>
      <point x="249.05083333333334" y="1500.0" type="line"/>
      <point x="45.55083333333333" y="1500.0" type="line"/>
      <point x="286.80083333333334" y="777.1666666666666" type="line"/>
    </contour>
  </outline>
</glyph>
<glyph name="y" format="2">
  <advance width="816.4166666666666"/>
  <unicode hex="0079"/>
  <anchor x="408.4166666666667" y="0.0" name="bottom"/>
  <anchor x="408.4166666666667" y="1500.0" name="top"/>
  <outline>
    <contour>
      <point x="97.57541666666667" y="-256.8333333333333" type="line"/>
      <point x="332.3254166666667" y="-256.8333333333333" type="line" smooth="yes"/>
      <point x="475.9920833333333" y="-256.8333333333333"/>
      <point x="505.5754166666667" y="-198.25"/>
      <point x="529.3254166666667" y="-43.583333333333336" type="curve"/>
      <point x="782.90875" y="1500.0" type="line"/>
      <point x="562.8254166666667" y="1500.0" type="line"/>
      <point x="468.9920833333333" y="725.4166666666666" type="line"/>
      <point x="431.2420833333333" y="320.25" type="line"/>
      <point x="411.5754166666667" y="320.25" type="line"/>
      <point x="369.2420833333333" y="725.4166666666666" type="line"/>
      <point x="266.2420833333333" y="1500.0" type="line"/>
      <point x="45.15875" y="1500.0" type="line"/>
      <point x="288.0754166666667" y="59.25" type="line" smooth="yes"/>
      <point x="295.2420833333333" y="11.666666666666668"/>
      <point x="301.40875" y="-40.166666666666664"/>
      <point x="287.90875" y="-59.5" type="curve"/>
      <point x="280.5754166666667" y="-85.33333333333333"/>
      <point x="233.65875" y="-90.16666666666667"/>
      <point x="175.24208333333334" y="-90.16666666666667" type="curve" smooth="yes"/>
      <point x="97.57541666666667" y="-90.16666666666667" type="line"/>
    </contour>
  </outline>
</glyph>
<glyph name="z" format="2">
  <advance width="697.5833333333334"/>
  <unicode hex="007A"/>
  <anchor x="349.0833333333333" y="0.0" name="bottom"/>
  <anchor x="349.0833333333333" y="750.0" name="center"/>
  <anchor x="349.0833333333333" y="1500.0" name="top"/>
  <outline>
    <contour>
      <point x="72.55541666666667" y="0.0" type="line"/>
      <point x="622.5554166666667" y="0.0" type="line"/>
      <point x="622.5554166666667" y="194.58333333333334" type="line"/>
      <point x="308.5554166666667" y="194.58333333333334" type="line"/>
      <point x="638.3054166666667" y="1338.1666666666667" type="line"/>
      <point x="638.3054166666667" y="1500.0" type="line"/>
      <point x="97.55541666666667" y="1500.0" type="line"/>
      <point x="97.55541666666667" y="1302.1666666666667" type="line"/>
      <point x="402.5554166666667" y="1302.1666666666667" type="line"/>
      <point x="72.55541666666667" y="172.58333333333334" type="line"/>
    </contour>
  </outline>
</glyph>
<glyph name="braceleft" format="2">
  <advance width="715.75"/>
  <unicode hex="007B"/>
  <outline>
    <contour>
      <point x="559.75" y="-178.75" type="curve" smooth="yes"/>
      <point x="619.75" y="-178.75" type="line"/>
      <point x="619.75" y="1.5833333333333357" type="line"/>
      <point x="498.1666666666667" y="1.5833333333333357"/>
      <point x="480.75" y="27.833333333333336"/>
      <point x="480.75" y="172.25" type="curve" smooth="yes"/>
      <point x="480.75" y="447.4166666666667" type="line" smooth="yes"/>
      <point x="480.75" y="705.8333333333334"/>
      <point x="457.0833333333333" y="759.6666666666666"/>
      <point x="317.6666666666667" y="801.4166666666666" type="curve"/>
      <point x="457.0833333333333" y="843.1666666666666"/>
      <point x="480.75" y="897.0"/>
      <point x="480.75" y="1155.4166666666667" type="curve" smooth="yes"/>
      <point x="480.75" y="1430.5833333333333" type="line" smooth="yes"/>
      <point x="480.75" y="1575.0"/>
      <point x="498.1666666666667" y="1601.25"/>
      <point x="619.75" y="1601.25" type="curve"/>
      <point x="619.75" y="1781.5833333333333" type="line"/>
      <point x="559.75" y="1781.5833333333333" type="line" smooth="yes"/>
      <point x="333.1666666666667" y="1781.5833333333333"/>
      <point x="252.16666666666666" y="1705.0"/>
      <point x="252.16666666666666" y="1443.5833333333333" type="curve" smooth="yes"/>
      <point x="252.16666666666666" y="1133.5833333333333" type="line" smooth="yes"/>
      <point x="252.16666666666666" y="951.1666666666666"/>
      <point x="241.25" y="909.75"/>
      <point x="113.16666666666667" y="909.75" type="curve"/>
      <point x="113.16666666666667" y="693.0833333333334" type="line"/>
      <point x="241.25" y="693.0833333333334"/>
      <point x="252.16666666666666" y="651.6666666666666"/>
      <point x="252.16666666666666" y="469.25" type="curve" smooth="yes"/>
      <point x="252.16666666666666" y="159.25" type="line" smooth="yes"/>
      <point x="252.16666666666666" y="-102.16666666666666"/>
      <point x="333.1666666666667" y="-178.75"/>
    </contour>
  </outline>
</glyph>
<glyph name="bar" format="2">
  <advance width="537.0"/>
  <unicode hex="007C"/>
  <outline>
    <contour>
      <point x="164.58333333333334" y="-107.33333333333333" type="line"/>
      <point x="380.75" y="-107.33333333333333" type="line"/>
      <point x="380.75" y="1847.8333333333333" type="line"/>
      <point x="164.58333333333334" y="1847.8333333333333" type="line"/>
    </contour>
  </outline>
</glyph>
<glyph name="braceright" format="2">
  <advance width="715.75"/>
  <unicode hex="007D"/>
  <outline>
    <contour>
      <point x="99.75" y="-178.75" type="line"/>
      <point x="159.75" y="-178.75" type="line" smooth="yes"/>
      <point x="386.3333333333333" y="-178.75"/>
      <point x="467.3333333333333" y="-102.16666666666666"/>
      <point x="467.3333333333333" y="159.25" type="curve" smooth="yes"/>
      <point x="467.3333333333333" y="469.25" type="line" smooth="yes"/>
      <point x="467.3333333333333" y="651.6666666666666"/>
      <point x="478.25" y="693.0833333333334"/>
      <point x="606.3333333333334" y="693.0833333333334" type="curve"/>
      <point x="606.3333333333334" y="909.75" type="line"/>
      <point x="478.25" y="909.75"/>
      <point x="467.3333333333333" y="951.1666666666666"/>
      <point x="467.3333333333333" y="1133.5833333333333" type="curve" smooth="yes"/>
      <point x="467.3333333333333" y="1443.5833333333333" type="line" smooth="yes"/>
      <point x="467.3333333333333" y="1705.0"/>
      <point x="386.3333333333333" y="1781.5833333333333"/>
      <point x="159.75" y="1781.5833333333333" type="curve" smooth="yes"/>
      <point x="99.75" y="1781.5833333333333" type="line"/>
      <point x="99.75" y="1601.25" type="line"/>
      <point x="221.33333333333334" y="1601.25"/>
      <point x="238.75" y="1575.0"/>
      <point x="238.75" y="1430.5833333333333" type="curve" smooth="yes"/>
      <point x="238.75" y="1155.4166666666667" type="line" smooth="yes"/>
      <point x="238.75" y="897.0"/>
      <point x="262.4166666666667" y="843.1666666666666"/>
      <point x="402.25" y="801.4166666666666" type="curve"/>
      <point x="262.4166666666667" y="759.6666666666666"/>
      <point x="238.75" y="705.8333333333334"/>
      <point x="238.75" y="447.4166666666667" type="curve" smooth="yes"/>
      <point x="238.75" y="172.25" type="line" smooth="yes"/>
      <point x="238.75" y="27.833333333333336"/>
      <point x="221.33333333333334" y="1.5833333333333357"/>
      <point x="99.75" y="1.5833333333333357" type="curve"/>
    </contour>
  </outline>
</glyph>
<glyph name="asciitilde" format="2">
  <advance width="1117.0"/>
  <unicode hex="007E"/>
  <outline>
    <contour>
      <point x="265.0" y="826.8333333333334" type="line"/>
      <point x="292.0" y="889.25"/>
      <point x="316.6666666666667" y="919.8333333333334"/>
      <point x="360.0" y="919.8333333333334" type="curve" smooth="yes"/>
      <point x="466.0" y="919.8333333333334"/>
      <point x="650.8333333333334" y="822.8333333333334"/>
      <point x="764.8333333333334" y="822.8333333333334" type="curve" smooth="yes"/>
      <point x="878.8333333333334" y="822.8333333333334"/>
      <point x="971.0833333333334" y="1015.0833333333334"/>
      <point x="999.6666666666666" y="1128.1666666666667" type="curve"/>
      <point x="826.5" y="1170.1666666666667" type="line"/>
      <point x="802.6666666666666" y="1092.0833333333333"/>
      <point x="763.1666666666666" y="1060.0"/>
      <point x="735.0" y="1056.8333333333333" type="curve"/>
      <point x="671.0" y="1056.8333333333333"/>
      <point x="447.5" y="1148.5833333333333"/>
      <point x="343.5" y="1148.5833333333333" type="curve" smooth="yes"/>
      <point x="235.25" y="1148.5833333333333"/>
      <point x="157.41666666666666" y="1062.0833333333333"/>
      <point x="106.41666666666667" y="906.5" type="curve"/>
    </contour>
  </outline>
</glyph>
<glyph name="cent" format="2">
  <advance width="840.5"/>
  <unicode hex="00A2"/>
  <anchor x="451.5" y="0.0" name="bottom"/>
  <anchor x="451.5" y="1500.0" name="top"/>
  <outline>
    <contour>
      <point x="407.8333333333333" y="1511.5833333333333" type="line"/>
      <point x="520.8333333333334" y="1509.5833333333333" type="line"/>
      <point x="520.8333333333334" y="1766.5833333333333" type="line"/>
      <point x="407.8333333333333" y="1766.5833333333333" type="line"/>
    </contour>
    <contour>
      <point x="407.8333333333333" y="-250.41666666666666" type="line"/>
      <point x="520.8333333333334" y="-250.41666666666666" type="line"/>
      <point x="520.8333333333334" y="4.583333333333333" type="line"/>
      <point x="407.8333333333333" y="4.583333333333333" type="line"/>
    </contour>
    <component base="c"/>
  </outline>
</glyph>
<glyph name="sterling" format="2">
  <advance width="946.9166666666666"/>
  <unicode hex="00A3"/>
  <outline>
    <contour>
      <point x="103.0" y="0.0" type="line"/>
      <point x="856.5833333333334" y="0.0" type="line"/>
      <point x="856.5833333333334" y="189.83333333333334" type="line"/>
      <point x="377.0833333333333" y="189.83333333333334" type="line"/>
      <point x="505.5" y="252.83333333333334"/>
      <point x="569.25" y="399.0"/>
      <point x="543.0" y="617.3333333333334" type="curve" smooth="yes"/>
      <point x="535.4166666666666" y="675.6666666666666"/>
      <point x="525.9166666666666" y="737.3333333333334"/>
      <point x="513.75" y="798.1666666666666" type="curve"/>
      <point x="787.4166666666666" y="798.1666666666666" type="line"/>
      <point x="787.4166666666666" y="959.0" type="line"/>
      <point x="471.3333333333333" y="959.0" type="line"/>
      <point x="419.75" y="1164.5833333333333" type="line" smooth="yes"/>
      <point x="391.6666666666667" y="1275.5"/>
      <point x="376.1666666666667" y="1343.0"/>
      <point x="376.1666666666667" y="1409.3333333333333" type="curve" smooth="yes"/>
      <point x="376.1666666666667" y="1566.75"/>
      <point x="433.8333333333333" y="1596.75"/>
      <point x="524.9166666666666" y="1596.75" type="curve" smooth="yes"/>
      <point x="629.5" y="1596.75"/>
      <point x="656.5833333333334" y="1516.0"/>
      <point x="656.5833333333334" y="1393.0" type="curve" smooth="yes"/>
      <point x="656.5833333333334" y="1246.0" type="line"/>
      <point x="859.75" y="1246.0" type="line"/>
      <point x="859.75" y="1385.0833333333333" type="line" smooth="yes"/>
      <point x="859.75" y="1655.6666666666667"/>
      <point x="755.5" y="1781.5833333333333"/>
      <point x="526.0833333333334" y="1781.5833333333333" type="curve" smooth="yes"/>
      <point x="279.25" y="1781.5833333333333"/>
      <point x="157.83333333333334" y="1657.8333333333333"/>
      <point x="157.83333333333334" y="1397.1666666666667" type="curve" smooth="yes"/>
      <point x="157.83333333333334" y="1327.5"/>
      <point x="174.58333333333334" y="1253.0"/>
      <point x="204.66666666666666" y="1138.5" type="curve" smooth="yes"/>
      <point x="250.66666666666666" y="959.0" type="line"/>
      <point x="85.58333333333333" y="959.0" type="line"/>
      <point x="85.58333333333333" y="798.1666666666666" type="line"/>
      <point x="287.5833333333333" y="798.1666666666666" type="line"/>
      <point x="299.9166666666667" y="740.5833333333334"/>
      <point x="310.1666666666667" y="681.3333333333334"/>
      <point x="318.3333333333333" y="624.5833333333334" type="curve" smooth="yes"/>
      <point x="353.9166666666667" y="370.3333333333333"/>
      <point x="237.41666666666666" y="234.58333333333334"/>
      <point x="103.0" y="168.83333333333334" type="curve"/>
    </contour>
  </outline>
</glyph>
<glyph name="currency" format="2">
  <advance width="1159.0"/>
  <unicode hex="00A4"/>
  <outline>
    <contour>
      <point x="274.0" y="509.0" type="line"/>
      <point x="363.0" y="598.0" type="line"/>
      <point x="424.0" y="563.0"/>
      <point x="496.0" y="545.0"/>
      <point x="579.0" y="545.0" type="curve" smooth="yes"/>
      <point x="661.0" y="545.0"/>
      <point x="733.0" y="562.0"/>
      <point x="795.0" y="597.0" type="curve"/>
      <point x="884.0" y="509.0" type="line"/>
      <point x="1034.0" y="658.0" type="line"/>
      <point x="944.0" y="748.0" type="line"/>
      <point x="980.0" y="813.0"/>
      <point x="998.0" y="885.0"/>
      <point x="998.0" y="964.0" type="curve" smooth="yes"/>
      <point x="998.0" y="1043.0"/>
      <point x="980.0" y="1114.0"/>
      <point x="944.0" y="1179.0" type="curve"/>
      <point x="1034.0" y="1269.0" type="line"/>
      <point x="884.0" y="1418.0" type="line"/>
      <point x="797.0" y="1331.0" type="line"/>
      <point x="732.0" y="1367.0"/>
      <point x="659.0" y="1385.0"/>
      <point x="579.0" y="1385.0" type="curve" smooth="yes"/>
      <point x="498.0" y="1385.0"/>
      <point x="426.0" y="1367.0"/>
      <point x="361.0" y="1330.0" type="curve"/>
      <point x="274.0" y="1418.0" type="line"/>
      <point x="125.0" y="1268.0" type="line"/>
      <point x="215.0" y="1178.0" type="line"/>
      <point x="180.0" y="1113.0"/>
      <point x="163.0" y="1042.0"/>
      <point x="163.0" y="964.0" type="curve" smooth="yes"/>
      <point x="163.0" y="887.0"/>
      <point x="181.0" y="815.0"/>
      <point x="216.0" y="750.0" type="curve"/>
      <point x="125.0" y="659.0" type="line"/>
    </contour>
    <contour>
      <point x="579.0" y="718.8333333333334" type="curve" smooth="yes"/>
      <point x="439.75" y="718.8333333333334"/>
      <point x="350.5833333333333" y="827.75"/>
      <point x="350.5833333333333" y="964.0" type="curve" smooth="yes"/>
      <point x="350.5833333333333" y="1099.25"/>
      <point x="440.75" y="1208.1666666666667"/>
      <point x="579.0" y="1208.1666666666667" type="curve" smooth="yes"/>
      <point x="720.8333333333334" y="1208.1666666666667"/>
      <point x="808.4166666666666" y="1104.8333333333333"/>
      <point x="808.4166666666666" y="966.0" type="curve" smooth="yes"/>
      <point x="808.4166666666666" y="830.3333333333334"/>
      <point x="718.25" y="718.8333333333334"/>
    </contour>
  </outline>
</glyph>
<glyph name="yen" format="2">
  <advance width="843.25"/>
  <unicode hex="00A5"/>
  <anchor x="424.4166666666667" y="0.0" name="bottom"/>
  <anchor x="424.4166666666667" y="1760.0" name="top"/>
  <anchor x="20.0" y="1760.0" name="topleft"/>
  <outline>
    <contour>
      <point x="82.91666666666667" y="359.3333333333333" type="line"/>
      <point x="761.75" y="359.3333333333333" type="line"/>
      <point x="761.75" y="490.75" type="line"/>
      <point x="518.5" y="490.75" type="line"/>
      <point x="518.5" y="655.75" type="line"/>
      <point x="761.75" y="655.75" type="line"/>
      <point x="761.75" y="786.3333333333334" type="line"/>
      <point x="82.91666666666667" y="786.3333333333334" type="line"/>
      <point x="82.91666666666667" y="655.75" type="line"/>
      <point x="355.75" y="655.75" type="line"/>
      <point x="355.75" y="490.75" type="line"/>
      <point x="82.91666666666667" y="490.75" type="line"/>
    </contour>
    <component base="Y"/>
  </outline>
</glyph>
<glyph name="brokenbar" format="2">
  <advance width="503.75"/>
  <unicode hex="00A6"/>
  <outline>
    <contour>
      <point x="134.83333333333334" y="-121.91666666666666" type="line"/>
      <point x="368.9166666666667" y="-121.91666666666666" type="line"/>
      <point x="368.9166666666667" y="704.1666666666666" type="line"/>
      <point x="134.83333333333334" y="704.1666666666666" type="line"/>
    </contour>
    <contour>
      <point x="134.83333333333334" y="930.4166666666666" type="line"/>
      <point x="368.9166666666667" y="930.4166666666666" type="line"/>
      <point x="368.9166666666667" y="1760.0" type="line"/>
      <point x="134.83333333333334" y="1760.0" type="line"/>
    </contour>
  </outline>
</glyph>
<glyph name="section" format="2">
  <advance width="865.4166666666666"/>
  <unicode hex="00A7"/>
  <outline>
    <contour>
      <point x="451.8333333333333" y="-20.0" type="curve" smooth="yes"/>
      <point x="657.4166666666666" y="-20.0"/>
      <point x="790.8333333333334" y="96.25"/>
      <point x="790.8333333333334" y="286.0" type="curve" smooth="yes"/>
      <point x="790.8333333333334" y="393.25"/>
      <point x="749.0833333333334" y="501.6666666666667"/>
      <point x="633.5" y="602.6666666666666" type="curve"/>
      <point x="709.0833333333334" y="660.0"/>
      <point x="792.5" y="734.9166666666666"/>
      <point x="798.9166666666666" y="838.75" type="curve" smooth="yes"/>
      <point x="803.5833333333334" y="953.5833333333334"/>
      <point x="745.4166666666666" y="1051.25"/>
      <point x="628.3333333333334" y="1143.5833333333333" type="curve" smooth="yes"/>
      <point x="473.25" y="1268.75" type="line" smooth="yes"/>
      <point x="371.25" y="1350.3333333333333"/>
      <point x="328.0" y="1407.3333333333333"/>
      <point x="328.0" y="1475.5" type="curve" smooth="yes"/>
      <point x="328.0" y="1545.1666666666667"/>
      <point x="365.0" y="1597.4166666666667"/>
      <point x="438.0833333333333" y="1597.4166666666667" type="curve" smooth="yes"/>
      <point x="497.5833333333333" y="1597.4166666666667"/>
      <point x="547.0833333333334" y="1554.75"/>
      <point x="547.0833333333334" y="1415.9166666666667" type="curve" smooth="yes"/>
      <point x="547.0833333333334" y="1348.6666666666667" type="line"/>
      <point x="772.75" y="1348.6666666666667" type="line"/>
      <point x="772.75" y="1416.75" type="line" smooth="yes"/>
      <point x="772.75" y="1664.3333333333333"/>
      <point x="645.5833333333334" y="1781.5833333333333"/>
      <point x="442.6666666666667" y="1781.5833333333333" type="curve" smooth="yes"/>
      <point x="241.83333333333334" y="1781.5833333333333"/>
      <point x="103.41666666666667" y="1663.1666666666667"/>
      <point x="103.41666666666667" y="1464.5" type="curve" smooth="yes"/>
      <point x="103.41666666666667" y="1358.9166666666667"/>
      <point x="156.66666666666666" y="1245.4166666666667"/>
      <point x="244.5" y="1165.75" type="curve"/>
      <point x="151.41666666666666" y="1109.0"/>
      <point x="102.83333333333333" y="1012.5"/>
      <point x="102.83333333333333" y="915.0833333333334" type="curve" smooth="yes"/>
      <point x="102.83333333333333" y="790.0"/>
      <point x="171.75" y="708.5833333333334"/>
      <point x="254.25" y="642.75" type="curve" smooth="yes"/>
      <point x="397.25" y="527.4166666666666" type="line" smooth="yes"/>
      <point x="490.5" y="454.0"/>
      <point x="561.9166666666666" y="395.5833333333333"/>
      <point x="561.9166666666666" y="290.1666666666667" type="curve" smooth="yes"/>
      <point x="561.9166666666666" y="209.08333333333334"/>
      <point x="529.0" y="164.58333333333334"/>
      <point x="462.0" y="164.58333333333334" type="curve" smooth="yes"/>
      <point x="372.0" y="164.58333333333334"/>
      <point x="344.8333333333333" y="224.08333333333334"/>
      <point x="344.8333333333333" y="349.9166666666667" type="curve" smooth="yes"/>
      <point x="344.8333333333333" y="416.0833333333333" type="line"/>
      <point x="105.0" y="416.0833333333333" type="line"/>
      <point x="105.0" y="348.3333333333333" type="line" smooth="yes"/>
      <point x="105.0" y="92.5"/>
      <point x="239.16666666666666" y="-20.0"/>
    </contour>
    <contour>
      <point x="525.25" y="704.6666666666666" type="curve"/>
      <point x="384.1666666666667" y="803.0833333333334"/>
      <point x="308.6666666666667" y="862.25"/>
      <point x="308.6666666666667" y="934.6666666666666" type="curve" smooth="yes"/>
      <point x="308.6666666666667" y="977.5833333333334"/>
      <point x="331.8333333333333" y="1021.25"/>
      <point x="374.6666666666667" y="1056.6666666666667" type="curve"/>
      <point x="523.25" y="975.75"/>
      <point x="587.1666666666666" y="902.5"/>
      <point x="587.1666666666666" y="825.6666666666666" type="curve" smooth="yes"/>
      <point x="587.1666666666666" y="781.1666666666666"/>
      <point x="560.3333333333334" y="738.25"/>
    </contour>
  </outline>
</glyph>
<glyph name="copyright" format="2">
  <advance width="1466.0"/>
  <unicode hex="00A9"/>
  <outline>
    <contour>
      <point x="737.6666666666666" y="204.58333333333334" type="curve" smooth="yes"/>
      <point x="1110.6666666666667" y="204.58333333333334"/>
      <point x="1394.6666666666667" y="488.5833333333333"/>
      <point x="1394.6666666666667" y="861.5833333333334" type="curve" smooth="yes"/>
      <point x="1394.6666666666667" y="1234.5833333333333"/>
      <point x="1110.6666666666667" y="1518.5833333333333"/>
      <point x="737.6666666666666" y="1518.5833333333333" type="curve" smooth="yes"/>
      <point x="364.6666666666667" y="1518.5833333333333"/>
      <point x="80.66666666666667" y="1234.5833333333333"/>
      <point x="80.66666666666667" y="861.5833333333334" type="curve" smooth="yes"/>
      <point x="80.66666666666667" y="488.5833333333333"/>
      <point x="364.6666666666667" y="204.58333333333334"/>
    </contour>
    <contour>
      <point x="737.6666666666666" y="333.5833333333333" type="curve" smooth="yes"/>
      <point x="416.5833333333333" y="333.5833333333333"/>
      <point x="229.16666666666666" y="585.75"/>
      <point x="229.16666666666666" y="861.0" type="curve" smooth="yes"/>
      <point x="229.16666666666666" y="1136.25"/>
      <point x="416.5833333333333" y="1389.5833333333333"/>
      <point x="737.6666666666666" y="1389.5833333333333" type="curve" smooth="yes"/>
      <point x="1058.75" y="1389.5833333333333"/>
      <point x="1246.1666666666667" y="1137.4166666666667"/>
      <point x="1246.1666666666667" y="862.1666666666666" type="curve" smooth="yes"/>
      <point x="1246.1666666666667" y="586.9166666666666"/>
      <point x="1058.75" y="333.5833333333333"/>
    </contour>
    <contour>
      <point x="732.0" y="423.5833333333333" type="curve" smooth="yes"/>
      <point x="894.0" y="423.5833333333333"/>
      <point x="946.9166666666666" y="496.5833333333333"/>
      <point x="946.9166666666666" y="630.9166666666666" type="curve" smooth="yes"/>
      <point x="946.9166666666666" y="781.6666666666666" type="line"/>
      <point x="801.25" y="781.6666666666666" type="line"/>
      <point x="801.25" y="632.6666666666666" type="line" smooth="yes"/>
      <point x="801.25" y="573.9166666666666"/>
      <point x="774.5833333333334" y="558.9166666666666"/>
      <point x="737.1666666666666" y="558.9166666666666" type="curve" smooth="yes"/>
      <point x="700.4166666666666" y="558.9166666666666"/>
      <point x="668.6666666666666" y="579.9166666666666"/>
      <point x="668.6666666666666" y="632.6666666666666" type="curve" smooth="yes"/>
      <point x="668.6666666666666" y="1083.6666666666667" type="line" smooth="yes"/>
      <point x="668.6666666666666" y="1148.5"/>
      <point x="696.6666666666666" y="1164.0"/>
      <point x="737.1666666666666" y="1164.0" type="curve" smooth="yes"/>
      <point x="774.5833333333334" y="1164.0"/>
      <point x="801.25" y="1149.0833333333333"/>
      <point x="801.25" y="1070.6666666666667" type="curve" smooth="yes"/>
      <point x="801.25" y="966.1666666666666" type="line"/>
      <point x="942.9166666666666" y="966.1666666666666" type="line"/>
      <point x="942.9166666666666" y="1098.75" type="line" smooth="yes"/>
      <point x="942.9166666666666" y="1250.25"/>
      <point x="870.0" y="1304.5833333333333"/>
      <point x="736.0" y="1304.5833333333333" type="curve" smooth="yes"/>
      <point x="571.0" y="1304.5833333333333"/>
      <point x="514.5" y="1216.5833333333333"/>
      <point x="514.5" y="1071.9166666666667" type="curve" smooth="yes"/>
      <point x="514.5" y="635.9166666666666" type="line" smooth="yes"/>
      <point x="514.5" y="506.5833333333333"/>
      <point x="593.0" y="423.5833333333333"/>
    </contour>
  </outline>
</glyph>
<glyph name="ordfeminine" format="2">
  <advance width="927.0"/>
  <unicode hex="00AA"/>
  <outline>
    <contour>
      <point x="397.6666666666667" y="556.8333333333334" type="curve" smooth="yes"/>
      <point x="489.5833333333333" y="556.8333333333334"/>
      <point x="550.9166666666666" y="626.25"/>
      <point x="563.75" y="672.4166666666666" type="curve"/>
      <point x="563.75" y="568.25" type="line"/>
      <point x="747.75" y="568.25" type="line"/>
      <point x="747.75" y="1400.25" type="line" smooth="yes"/>
      <point x="747.75" y="1646.8333333333333"/>
      <point x="693.25" y="1781.1666666666667"/>
      <point x="480.4166666666667" y="1781.1666666666667" type="curve" smooth="yes"/>
      <point x="248.91666666666666" y="1781.1666666666667"/>
      <point x="202.25" y="1634.8333333333333"/>
      <point x="202.25" y="1425.0" type="curve" smooth="yes"/>
      <point x="202.25" y="1389.5833333333333" type="line"/>
      <point x="384.0" y="1389.5833333333333" type="line"/>
      <point x="384.0" y="1439.4166666666667" type="line" smooth="yes"/>
      <point x="384.0" y="1575.0833333333333"/>
      <point x="398.25" y="1630.4166666666667"/>
      <point x="475.3333333333333" y="1630.4166666666667" type="curve" smooth="yes"/>
      <point x="565.4166666666666" y="1630.4166666666667"/>
      <point x="562.3333333333334" y="1538.3333333333333"/>
      <point x="562.3333333333334" y="1396.6666666666667" type="curve" smooth="yes"/>
      <point x="562.3333333333334" y="1339.5" type="line"/>
      <point x="339.0" y="1252.0833333333333"/>
      <point x="186.41666666666666" y="1209.8333333333333"/>
      <point x="186.41666666666666" y="979.0833333333334" type="curve" smooth="yes"/>
      <point x="186.41666666666666" y="877.3333333333334" type="line"/>
      <point x="187.83333333333334" y="679.5833333333334"/>
      <point x="245.16666666666666" y="556.8333333333334"/>
    </contour>
    <contour>
      <point x="455.5" y="704.4166666666666" type="curve" smooth="yes"/>
      <point x="391.6666666666667" y="704.4166666666666"/>
      <point x="372.25" y="755.5"/>
      <point x="372.25" y="881.25" type="curve" smooth="yes"/>
      <point x="372.25" y="994.6666666666666" type="line" smooth="yes"/>
      <point x="372.25" y="1124.75"/>
      <point x="410.5" y="1152.25"/>
      <point x="561.9166666666666" y="1218.75" type="curve"/>
      <point x="561.9166666666666" y="789.0833333333334" type="line"/>
      <point x="550.4166666666666" y="751.8333333333334"/>
      <point x="511.4166666666667" y="704.4166666666666"/>
    </contour>
  </outline>
</glyph>
<glyph name="guillemotleft" format="2">
  <advance width="1304.0"/>
  <unicode hex="00AB"/>
  <outline>
    <contour>
      <point x="1112.5833333333333" y="353.25" type="line"/>
      <point x="1112.5833333333333" y="591.4166666666666" type="line"/>
      <point x="800.5833333333334" y="749.0" type="line"/>
      <point x="1112.5833333333333" y="897.5833333333334" type="line"/>
      <point x="1112.5833333333333" y="1130.0" type="line"/>
      <point x="629.1666666666666" y="859.0" type="line"/>
      <point x="629.1666666666666" y="638.25" type="line"/>
    </contour>
    <contour>
      <point x="567.9166666666666" y="353.25" type="line"/>
      <point x="567.9166666666666" y="591.4166666666666" type="line"/>
      <point x="255.91666666666666" y="749.0" type="line"/>
      <point x="567.9166666666666" y="897.5833333333334" type="line"/>
      <point x="567.9166666666666" y="1130.0" type="line"/>
      <point x="84.5" y="859.0" type="line"/>
      <point x="84.5" y="638.25" type="line"/>
    </contour>
  </outline>
</glyph>
<glyph name="logicalnot" format="2">
  <advance width="947.0"/>
  <unicode hex="00AC"/>
  <outline>
    <contour>
      <point x="602.0" y="439.0" type="line"/>
      <point x="806.75" y="439.0" type="line"/>
      <point x="806.75" y="979.0" type="line"/>
      <point x="97.0" y="979.0" type="line"/>
      <point x="97.0" y="773.9166666666666" type="line"/>
      <point x="602.0" y="773.9166666666666" type="line"/>
    </contour>
  </outline>
</glyph>
<glyph name="uni00AD" format="2">
  <advance width="696.0"/>
  <unicode hex="00AD"/>
  <outline>
    <contour>
      <point x="90.0" y="546.3333333333334" type="line"/>
      <point x="606.0" y="546.3333333333334" type="line"/>
      <point x="606.0" y="741.0" type="line"/>
      <point x="90.0" y="741.0" type="line"/>
    </contour>
  </outline>
</glyph>
<glyph name="registered" format="2">
  <advance width="1502.0"/>
  <unicode hex="00AE"/>
  <outline>
    <contour>
      <point x="551.1666666666666" y="430.0" type="line"/>
      <point x="707.3333333333334" y="430.0" type="line"/>
      <point x="707.3333333333334" y="835.5" type="line"/>
      <point x="786.5" y="835.5"/>
      <point x="802.6666666666666" y="812.0"/>
      <point x="802.6666666666666" y="762.0" type="curve" smooth="yes"/>
      <point x="802.6666666666666" y="430.0" type="line"/>
      <point x="954.0" y="430.0" type="line"/>
      <point x="954.0" y="756.25" type="line" smooth="yes"/>
      <point x="954.0" y="825.5"/>
      <point x="942.0" y="878.1666666666666"/>
      <point x="868.0" y="888.1666666666666" type="curve"/>
      <point x="953.4166666666666" y="910.0"/>
      <point x="962.6666666666666" y="963.25"/>
      <point x="962.6666666666666" y="1048.8333333333333" type="curve" smooth="yes"/>
      <point x="962.6666666666666" y="1076.75" type="line" smooth="yes"/>
      <point x="962.6666666666666" y="1211.5833333333333"/>
      <point x="934.25" y="1282.0"/>
      <point x="794.6666666666666" y="1282.0" type="curve" smooth="yes"/>
      <point x="551.1666666666666" y="1282.0" type="line"/>
    </contour>
    <contour>
      <point x="708.3333333333334" y="953.3333333333334" type="line"/>
      <point x="708.3333333333334" y="1159.0" type="line"/>
      <point x="801.6666666666666" y="1159.0"/>
      <point x="816.6666666666666" y="1143.1666666666667"/>
      <point x="816.6666666666666" y="1060.5" type="curve" smooth="yes"/>
      <point x="816.6666666666666" y="991.5833333333334"/>
      <point x="811.6666666666666" y="953.3333333333334"/>
      <point x="761.0" y="953.3333333333334" type="curve" smooth="yes"/>
    </contour>
    <contour>
      <point x="751.0" y="334.0" type="curve" smooth="yes"/>
      <point x="429.9166666666667" y="334.0"/>
      <point x="242.5" y="586.1666666666666"/>
      <point x="242.5" y="861.4166666666666" type="curve" smooth="yes"/>
      <point x="242.5" y="1136.6666666666667"/>
      <point x="429.9166666666667" y="1390.0"/>
      <point x="751.0" y="1390.0" type="curve" smooth="yes"/>
      <point x="1072.0833333333333" y="1390.0"/>
      <point x="1259.5" y="1137.8333333333333"/>
      <point x="1259.5" y="862.5833333333334" type="curve" smooth="yes"/>
      <point x="1259.5" y="587.3333333333334"/>
      <point x="1072.0833333333333" y="334.0"/>
    </contour>
    <contour>
      <point x="751.0" y="205.0" type="curve" smooth="yes"/>
      <point x="1124.0" y="205.0"/>
      <point x="1408.0" y="489.0"/>
      <point x="1408.0" y="862.0" type="curve" smooth="yes"/>
      <point x="1408.0" y="1235.0"/>
      <point x="1124.0" y="1519.0"/>
      <point x="751.0" y="1519.0" type="curve" smooth="yes"/>
      <point x="378.0" y="1519.0"/>
      <point x="94.0" y="1235.0"/>
      <point x="94.0" y="862.0" type="curve" smooth="yes"/>
      <point x="94.0" y="489.0"/>
      <point x="378.0" y="205.0"/>
    </contour>
  </outline>
</glyph>
<glyph name="degree" format="2">
  <advance width="915.0"/>
  <unicode hex="00B0"/>
  <outline>
    <contour>
      <point x="457.0" y="1107.75" type="curve" smooth="yes"/>
      <point x="649.4166666666666" y="1107.75"/>
      <point x="811.0" y="1226.0"/>
      <point x="811.0" y="1443.4166666666667" type="curve" smooth="yes"/>
      <point x="811.0" y="1661.4166666666667"/>
      <point x="649.4166666666666" y="1779.0833333333333"/>
      <point x="457.5833333333333" y="1779.0833333333333" type="curve" smooth="yes"/>
      <point x="265.1666666666667" y="1779.0833333333333"/>
      <point x="104.0" y="1661.4166666666667"/>
      <point x="104.0" y="1443.4166666666667" type="curve" smooth="yes"/>
      <point x="104.0" y="1225.0"/>
      <point x="264.5833333333333" y="1107.75"/>
    </contour>
    <contour>
      <point x="458.5833333333333" y="1253.75" type="curve" smooth="yes"/>
      <point x="363.1666666666667" y="1253.75"/>
      <point x="282.75" y="1324.3333333333333"/>
      <point x="282.75" y="1443.4166666666667" type="curve" smooth="yes"/>
      <point x="282.75" y="1562.5"/>
      <point x="362.5833333333333" y="1633.0833333333333"/>
      <point x="457.4166666666667" y="1633.0833333333333" type="curve" smooth="yes"/>
      <point x="552.8333333333334" y="1633.0833333333333"/>
      <point x="633.25" y="1562.5"/>
      <point x="633.25" y="1443.4166666666667" type="curve" smooth="yes"/>
      <point x="633.25" y="1324.3333333333333"/>
      <point x="553.4166666666666" y="1253.75"/>
    </contour>
  </outline>
</glyph>
<glyph name="plusminus" format="2">
  <advance width="854.0"/>
  <unicode hex="00B1"/>
  <outline>
    <contour>
      <point x="345.9166666666667" y="498.9166666666667" type="line"/>
      <point x="508.0833333333333" y="498.9166666666667" type="line"/>
      <point x="508.0833333333333" y="741.8333333333334" type="line"/>
      <point x="732.75" y="741.8333333333334" type="line"/>
      <point x="732.75" y="897.25" type="line"/>
      <point x="508.0833333333333" y="897.25" type="line"/>
      <point x="508.0833333333333" y="1137.0" type="line"/>
      <point x="345.9166666666667" y="1137.0" type="line"/>
      <point x="345.9166666666667" y="897.25" type="line"/>
      <point x="124.41666666666667" y="897.25" type="line"/>
      <point x="124.41666666666667" y="741.8333333333334" type="line"/>
      <point x="345.9166666666667" y="741.8333333333334" type="line"/>
    </contour>
    <contour>
      <point x="161.25" y="156.33333333333334" type="line"/>
      <point x="677.25" y="156.33333333333334" type="line"/>
      <point x="677.25" y="319.5" type="line"/>
      <point x="161.25" y="319.5" type="line"/>
    </contour>
  </outline>
</glyph>
<glyph name="uni00B2" format="2">
  <advance width="839.75"/>
  <unicode hex="00B2"/>
  <outline>
    <contour>
      <point x="208.91666666666666" y="521.25" type="line"/>
      <point x="669.8333333333334" y="521.25" type="line"/>
      <point x="669.8333333333334" y="650.0833333333334" type="line"/>
      <point x="383.5" y="650.0833333333334" type="line"/>
      <point x="443.4166666666667" y="942.5"/>
      <point x="684.5833333333334" y="1104.5"/>
      <point x="684.5833333333334" y="1436.5833333333333" type="curve" smooth="yes"/>
      <point x="684.5833333333334" y="1614.0833333333333"/>
      <point x="631.75" y="1779.4166666666667"/>
      <point x="459.25" y="1779.4166666666667" type="curve" smooth="yes"/>
      <point x="233.0" y="1779.4166666666667"/>
      <point x="205.33333333333334" y="1624.25"/>
      <point x="205.33333333333334" y="1351.6666666666667" type="curve" smooth="yes"/>
      <point x="205.75" y="1275.3333333333333" type="line"/>
      <point x="367.9166666666667" y="1275.3333333333333" type="line"/>
      <point x="367.9166666666667" y="1436.3333333333333" type="line" smooth="yes"/>
      <point x="367.9166666666667" y="1605.5"/>
      <point x="402.5833333333333" y="1639.0833333333333"/>
      <point x="448.9166666666667" y="1639.0833333333333" type="curve" smooth="yes"/>
      <point x="493.6666666666667" y="1639.0833333333333"/>
      <point x="525.5833333333334" y="1604.5"/>
      <point x="525.5833333333334" y="1445.0833333333333" type="curve" smooth="yes"/>
      <point x="525.5833333333334" y="1358.75"/>
      <point x="504.0" y="1255.5"/>
      <point x="471.1666666666667" y="1198.5833333333333" type="curve"/>
      <point x="421.1666666666667" y="1137.0"/>
      <point x="208.91666666666666" y="729.3333333333334"/>
      <point x="208.91666666666666" y="586.1666666666666" type="curve" smooth="yes"/>
    </contour>
  </outline>
</glyph>
<glyph name="uni00B3" format="2">
  <advance width="863.0"/>
  <unicode hex="00B3"/>
  <outline>
    <contour>
      <point x="429.25" y="583.9166666666666" type="curve" smooth="yes"/>
      <point x="618.1666666666666" y="583.9166666666666"/>
      <point x="695.75" y="699.0"/>
      <point x="695.75" y="924.5833333333334" type="curve" smooth="yes"/>
      <point x="695.75" y="1064.5"/>
      <point x="667.6666666666666" y="1176.4166666666667"/>
      <point x="573.3333333333334" y="1217.25" type="curve"/>
      <point x="661.1666666666666" y="1248.4166666666667"/>
      <point x="693.3333333333334" y="1342.6666666666667"/>
      <point x="693.3333333333334" y="1469.9166666666667" type="curve" smooth="yes"/>
      <point x="693.3333333333334" y="1673.0833333333333"/>
      <point x="614.0833333333334" y="1778.5833333333333"/>
      <point x="436.3333333333333" y="1778.5833333333333" type="curve" smooth="yes"/>
      <point x="254.16666666666666" y="1778.5833333333333"/>
      <point x="185.58333333333334" y="1677.3333333333333"/>
      <point x="185.16666666666666" y="1469.9166666666667" type="curve" smooth="yes"/>
      <point x="185.58333333333334" y="1439.8333333333333" type="line"/>
      <point x="347.3333333333333" y="1439.8333333333333" type="line"/>
      <point x="347.3333333333333" y="1466.0833333333333" type="line" smooth="yes"/>
      <point x="347.3333333333333" y="1602.4166666666667"/>
      <point x="372.75" y="1644.25"/>
      <point x="434.5833333333333" y="1644.25" type="curve" smooth="yes"/>
      <point x="489.0833333333333" y="1644.25"/>
      <point x="528.3333333333334" y="1613.25"/>
      <point x="528.3333333333334" y="1469.0833333333333" type="curve" smooth="yes"/>
      <point x="528.3333333333334" y="1312.75"/>
      <point x="492.0" y="1278.25"/>
      <point x="397.25" y="1276.0" type="curve"/>
      <point x="370.0833333333333" y="1276.0" type="line"/>
      <point x="370.0833333333333" y="1151.75" type="line"/>
      <point x="399.0833333333333" y="1151.75" type="line" smooth="yes"/>
      <point x="499.0833333333333" y="1151.75"/>
      <point x="528.9166666666666" y="1086.0"/>
      <point x="528.9166666666666" y="925.5833333333334" type="curve" smooth="yes"/>
      <point x="528.9166666666666" y="779.5"/>
      <point x="513.8333333333334" y="716.9166666666666"/>
      <point x="433.75" y="716.9166666666666" type="curve" smooth="yes"/>
      <point x="354.0833333333333" y="716.9166666666666"/>
      <point x="341.0833333333333" y="768.25"/>
      <point x="341.0833333333333" y="912.0" type="curve" smooth="yes"/>
      <point x="341.0833333333333" y="976.4166666666666" type="line"/>
      <point x="180.75" y="976.4166666666666" type="line"/>
      <point x="180.75" y="912.4166666666666" type="line" smooth="yes"/>
      <point x="180.75" y="692.0833333333334"/>
      <point x="247.5" y="583.9166666666666"/>
    </contour>
  </outline>
</glyph>
<glyph name="uni00B5" format="2">
  <advance width="982.0"/>
  <unicode hex="00B5"/>
  <outline>
    <contour>
      <point x="387.25" y="-19.583333333333332" type="curve" smooth="yes"/>
      <point x="511.3333333333333" y="-19.583333333333332"/>
      <point x="582.75" y="56.916666666666664"/>
      <point x="615.6666666666666" y="154.25" type="curve"/>
      <point x="615.6666666666666" y="0.0" type="line"/>
      <point x="846.25" y="0.0" type="line"/>
      <point x="846.25" y="1500.0" type="line"/>
      <point x="616.0833333333334" y="1500.0" type="line"/>
      <point x="615.6666666666666" y="356.25" type="line" smooth="yes"/>
      <point x="615.6666666666666" y="255.41666666666666"/>
      <point x="577.1666666666666" y="175.08333333333334"/>
      <point x="480.6666666666667" y="175.08333333333334" type="curve" smooth="yes"/>
      <point x="391.6666666666667" y="175.08333333333334"/>
      <point x="360.0" y="238.58333333333334"/>
      <point x="360.0" y="354.1666666666667" type="curve" smooth="yes"/>
      <point x="360.0" y="1500.0" type="line"/>
      <point x="129.58333333333334" y="1500.0" type="line"/>
      <point x="129.58333333333334" y="323.6666666666667" type="line" smooth="yes"/>
      <point x="129.58333333333334" y="84.66666666666667"/>
      <point x="234.91666666666666" y="-19.583333333333332"/>
    </contour>
    <contour>
      <point x="129.58333333333334" y="483.0" type="line"/>
      <point x="129.58333333333334" y="-265.0" type="line"/>
      <point x="360.4166666666667" y="-265.0" type="line"/>
      <point x="360.4166666666667" y="483.0" type="line"/>
    </contour>
  </outline>
</glyph>
<glyph name="paragraph" format="2">
  <advance width="1086.9166666666667"/>
  <unicode hex="00B6"/>
  <outline>
    <contour>
      <point x="429.75" y="0.0" type="line"/>
      <point x="614.4166666666666" y="0.0" type="line"/>
      <point x="614.4166666666666" y="1555.0" type="line"/>
      <point x="757.4166666666666" y="1555.0" type="line"/>
      <point x="757.4166666666666" y="0.0" type="line"/>
      <point x="942.0833333333334" y="0.0" type="line"/>
      <point x="942.0833333333334" y="1760.0" type="line"/>
      <point x="627.0" y="1760.0" type="line" smooth="yes"/>
      <point x="261.6666666666667" y="1760.0"/>
      <point x="102.58333333333333" y="1700.5"/>
      <point x="102.58333333333333" y="1448.0833333333333" type="curve" smooth="yes"/>
      <point x="102.58333333333333" y="1243.8333333333333"/>
      <point x="211.58333333333334" y="1139.4166666666667"/>
      <point x="429.75" y="1115.0" type="curve"/>
    </contour>
  </outline>
</glyph>
<glyph name="periodcentered" format="2">
  <advance width="480.0"/>
  <unicode hex="00B7"/>
  <outline>
    <contour>
      <point x="141.33333333333334" y="761.0833333333334" type="line"/>
      <point x="354.25" y="761.0833333333334" type="line"/>
      <point x="354.25" y="984.5" type="line"/>
      <point x="141.33333333333334" y="984.5" type="line"/>
    </contour>
  </outline>
</glyph>
<glyph name="uni00B9" format="2">
  <advance width="627.4166666666666"/>
  <unicode hex="00B9"/>
  <outline>
    <contour>
      <point x="246.75" y="519.0833333333334" type="line"/>
      <point x="423.5833333333333" y="519.0833333333334" type="line"/>
      <point x="423.5833333333333" y="1760.0" type="line"/>
      <point x="299.0833333333333" y="1760.0" type="line"/>
      <point x="271.5" y="1670.75"/>
      <point x="162.75" y="1611.5"/>
      <point x="84.16666666666667" y="1603.75" type="curve"/>
      <point x="84.16666666666667" y="1491.25" type="line"/>
      <point x="139.58333333333334" y="1491.25"/>
      <point x="206.08333333333334" y="1509.4166666666667"/>
      <point x="246.75" y="1544.9166666666667" type="curve"/>
    </contour>
  </outline>
</glyph>
<glyph name="ordmasculine" format="2">
  <advance width="861.9166666666666"/>
  <unicode hex="00BA"/>
  <outline>
    <contour>
      <point x="436.5833333333333" y="553.25" type="curve" smooth="yes"/>
      <point x="666.25" y="553.25"/>
      <point x="717.5833333333334" y="714.5833333333334"/>
      <point x="717.5833333333334" y="958.1666666666666" type="curve" smooth="yes"/>
      <point x="717.5833333333334" y="1391.3333333333333" type="line" smooth="yes"/>
      <point x="717.5833333333334" y="1617.9166666666667"/>
      <point x="665.5833333333334" y="1781.1666666666667"/>
      <point x="436.5833333333333" y="1781.1666666666667" type="curve" smooth="yes"/>
      <point x="212.08333333333334" y="1781.1666666666667"/>
      <point x="151.41666666666666" y="1615.5"/>
      <point x="151.41666666666666" y="1391.3333333333333" type="curve" smooth="yes"/>
      <point x="151.41666666666666" y="958.1666666666666" type="line" smooth="yes"/>
      <point x="151.41666666666666" y="709.5833333333334"/>
      <point x="207.91666666666666" y="553.25"/>
    </contour>
    <contour>
      <point x="436.5833333333333" y="704.0" type="curve"/>
      <point x="357.1666666666667" y="704.4166666666666"/>
      <point x="338.25" y="785.8333333333334"/>
      <point x="338.25" y="910.0833333333334" type="curve" smooth="yes"/>
      <point x="338.25" y="1426.4166666666667" type="line" smooth="yes"/>
      <point x="338.25" y="1549.5833333333333"/>
      <point x="353.5" y="1630.0"/>
      <point x="436.5833333333333" y="1630.0" type="curve" smooth="yes"/>
      <point x="514.9166666666666" y="1630.0"/>
      <point x="531.1666666666666" y="1549.5833333333333"/>
      <point x="531.1666666666666" y="1426.4166666666667" type="curve" smooth="yes"/>
      <point x="531.1666666666666" y="910.0833333333334" type="line" smooth="yes"/>
      <point x="531.1666666666666" y="783.5833333333334"/>
      <point x="510.6666666666667" y="703.0"/>
    </contour>
  </outline>
</glyph>
<glyph name="guillemotright" format="2">
  <advance width="1304.0"/>
  <unicode hex="00BB"/>
  <outline>
    <contour>
      <point x="707.5" y="353.25" type="line"/>
      <point x="1190.9166666666667" y="638.25" type="line"/>
      <point x="1190.9166666666667" y="859.0" type="line"/>
      <point x="707.5" y="1130.0" type="line"/>
      <point x="707.5" y="897.5833333333334" type="line"/>
      <point x="1019.5" y="749.0" type="line"/>
      <point x="707.5" y="591.4166666666666" type="line"/>
    </contour>
    <contour>
      <point x="163.25" y="353.25" type="line"/>
      <point x="646.25" y="638.25" type="line"/>
      <point x="646.25" y="859.0" type="line"/>
      <point x="163.25" y="1130.0" type="line"/>
      <point x="163.25" y="897.5833333333334" type="line"/>
      <point x="475.25" y="749.0" type="line"/>
      <point x="163.25" y="591.4166666666666" type="line"/>
    </contour>
  </outline>
</glyph>
<glyph name="onequarter" format="2">
  <advance width="1535.0"/>
  <unicode hex="00BC"/>
  <outline>
    <contour>
      <point x="448.6666666666667" y="0.0" type="line"/>
      <point x="605.0" y="0.0" type="line"/>
      <point x="1092.75" y="1762.9166666666667" type="line"/>
      <point x="936.4166666666666" y="1762.9166666666667" type="line"/>
    </contour>
    <contour>
      <point x="242.5" y="529.4166666666666" type="line"/>
      <point x="403.25" y="529.4166666666666" type="line"/>
      <point x="403.25" y="1726.6666666666667" type="line"/>
      <point x="289.9166666666667" y="1726.6666666666667" type="line"/>
      <point x="261.75" y="1640.25"/>
      <point x="165.0" y="1584.25"/>
      <point x="92.91666666666667" y="1576.5" type="curve"/>
      <point x="92.91666666666667" y="1470.9166666666667" type="line"/>
      <point x="144.25" y="1470.9166666666667"/>
      <point x="206.08333333333334" y="1488.6666666666667"/>
      <point x="242.5" y="1523.75" type="curve"/>
    </contour>
    <contour>
      <point x="1190.4166666666667" y="0.0" type="line"/>
      <point x="1330.1666666666667" y="0.0" type="line"/>
      <point x="1330.1666666666667" y="207.75" type="line"/>
      <point x="1411.4166666666667" y="207.75" type="line"/>
      <point x="1411.4166666666667" y="324.5833333333333" type="line"/>
      <point x="1330.1666666666667" y="324.5833333333333" type="line"/>
      <point x="1330.1666666666667" y="1112.8333333333333" type="line"/>
      <point x="1146.25" y="1112.8333333333333" type="line"/>
      <point x="906.0833333333334" y="308.3333333333333" type="line"/>
      <point x="906.0833333333334" y="207.75" type="line"/>
      <point x="1190.4166666666667" y="207.75" type="line"/>
    </contour>
    <contour>
      <point x="1037.1666666666667" y="324.5833333333333" type="line"/>
      <point x="1190.4166666666667" y="901.3333333333334" type="line"/>
      <point x="1190.4166666666667" y="324.5833333333333" type="line"/>
    </contour>
  </outline>
</glyph>
<glyph name="onehalf" format="2">
  <advance width="1620.0"/>
  <unicode hex="00BD"/>
  <outline>
    <contour>
      <point x="454.5" y="0.0" type="line"/>
      <point x="610.8333333333334" y="0.0" type="line"/>
      <point x="1098.5833333333333" y="1762.9166666666667" type="line"/>
      <point x="942.25" y="1762.9166666666667" type="line"/>
    </contour>
    <contour>
      <point x="242.5" y="529.4166666666666" type="line"/>
      <point x="403.25" y="529.4166666666666" type="line"/>
      <point x="403.25" y="1726.6666666666667" type="line"/>
      <point x="289.9166666666667" y="1726.6666666666667" type="line"/>
      <point x="261.75" y="1640.25"/>
      <point x="165.0" y="1584.25"/>
      <point x="92.91666666666667" y="1576.5" type="curve"/>
      <point x="92.91666666666667" y="1470.9166666666667" type="line"/>
      <point x="144.25" y="1470.9166666666667"/>
      <point x="206.08333333333334" y="1488.6666666666667"/>
      <point x="242.5" y="1523.75" type="curve"/>
    </contour>
    <contour>
      <point x="1079.75" y="0.0" type="line"/>
      <point x="1521.5833333333333" y="0.0" type="line"/>
      <point x="1521.5833333333333" y="120.5" type="line"/>
      <point x="1245.0" y="120.5" type="line"/>
      <point x="1256.5833333333333" y="198.25"/>
      <point x="1278.6666666666667" y="266.8333333333333"/>
      <point x="1314.4166666666667" y="330.25" type="curve" smooth="yes"/>
      <point x="1468.4166666666667" y="600.3333333333334" type="line" smooth="yes"/>
      <point x="1514.1666666666667" y="680.3333333333334"/>
      <point x="1535.9166666666667" y="774.0"/>
      <point x="1535.9166666666667" y="883.8333333333334" type="curve" smooth="yes"/>
      <point x="1535.9166666666667" y="1053.4166666666667"/>
      <point x="1486.9166666666667" y="1215.0833333333333"/>
      <point x="1320.3333333333333" y="1215.0833333333333" type="curve" smooth="yes"/>
      <point x="1101.4166666666667" y="1215.0833333333333"/>
      <point x="1076.1666666666667" y="1064.4166666666667"/>
      <point x="1076.1666666666667" y="802.1666666666666" type="curve" smooth="yes"/>
      <point x="1076.5833333333333" y="728.0833333333334" type="line"/>
      <point x="1230.8333333333333" y="728.0833333333334" type="line"/>
      <point x="1230.8333333333333" y="883.5833333333334" type="line" smooth="yes"/>
      <point x="1230.8333333333333" y="1050.5"/>
      <point x="1265.5" y="1083.0833333333333"/>
      <point x="1309.4166666666667" y="1083.0833333333333" type="curve" smooth="yes"/>
      <point x="1353.3333333333333" y="1083.0833333333333"/>
      <point x="1384.8333333333333" y="1049.9166666666667"/>
      <point x="1384.8333333333333" y="892.75" type="curve" smooth="yes"/>
      <point x="1384.8333333333333" y="808.6666666666666"/>
      <point x="1364.4166666666667" y="708.8333333333334"/>
      <point x="1332.25" y="653.1666666666666" type="curve" smooth="yes"/>
      <point x="1152.0" y="340.6666666666667" type="line" smooth="yes"/>
      <point x="1091.9166666666667" y="236.41666666666666"/>
      <point x="1079.75" y="120.33333333333333"/>
      <point x="1079.75" y="62.083333333333336" type="curve" smooth="yes"/>
    </contour>
  </outline>
</glyph>
<glyph name="threequarters" format="2">
  <advance width="1555.0"/>
  <unicode hex="00BE"/>
  <outline>
    <contour>
      <point x="469.9166666666667" y="0.0" type="line"/>
      <point x="626.25" y="0.0" type="line"/>
      <point x="1114.0" y="1762.9166666666667" type="line"/>
      <point x="957.6666666666666" y="1762.9166666666667" type="line"/>
    </contour>
    <contour>
      <point x="330.0" y="604.4166666666666" type="curve" smooth="yes"/>
      <point x="499.1666666666667" y="604.4166666666666"/>
      <point x="570.4166666666666" y="713.4166666666666"/>
      <point x="570.4166666666666" y="927.8333333333334" type="curve" smooth="yes"/>
      <point x="570.4166666666666" y="1061.4166666666667"/>
      <point x="542.75" y="1169.0833333333333"/>
      <point x="457.1666666666667" y="1208.0833333333333" type="curve"/>
      <point x="538.0833333333334" y="1237.8333333333333"/>
      <point x="567.4166666666666" y="1328.4166666666667"/>
      <point x="567.4166666666666" y="1450.5833333333333" type="curve" smooth="yes"/>
      <point x="567.4166666666666" y="1644.5833333333333"/>
      <point x="496.5" y="1744.0833333333333"/>
      <point x="335.25" y="1744.0833333333333" type="curve" smooth="yes"/>
      <point x="172.16666666666666" y="1744.0833333333333"/>
      <point x="108.41666666666667" y="1648.25"/>
      <point x="108.41666666666667" y="1450.5833333333333" type="curve" smooth="yes"/>
      <point x="108.41666666666667" y="1422.3333333333333" type="line"/>
      <point x="253.5" y="1422.3333333333333" type="line"/>
      <point x="253.5" y="1447.1666666666667" type="line" smooth="yes"/>
      <point x="253.5" y="1581.25"/>
      <point x="277.9166666666667" y="1621.25"/>
      <point x="334.6666666666667" y="1621.25" type="curve" smooth="yes"/>
      <point x="386.5" y="1621.25"/>
      <point x="423.75" y="1591.6666666666667"/>
      <point x="423.75" y="1450.1666666666667" type="curve" smooth="yes"/>
      <point x="423.75" y="1296.6666666666667"/>
      <point x="385.5833333333333" y="1270.0833333333333"/>
      <point x="300.5833333333333" y="1268.6666666666667" type="curve"/>
      <point x="276.6666666666667" y="1268.6666666666667" type="line"/>
      <point x="276.6666666666667" y="1147.6666666666667" type="line"/>
      <point x="303.4166666666667" y="1147.6666666666667" type="line" smooth="yes"/>
      <point x="395.5" y="1147.6666666666667"/>
      <point x="424.9166666666667" y="1085.5833333333333"/>
      <point x="424.9166666666667" y="929.4166666666666" type="curve" smooth="yes"/>
      <point x="424.9166666666667" y="788.0"/>
      <point x="409.25" y="727.6666666666666"/>
      <point x="334.8333333333333" y="727.6666666666666" type="curve" smooth="yes"/>
      <point x="259.25" y="727.6666666666666"/>
      <point x="247.66666666666666" y="776.5833333333334"/>
      <point x="247.66666666666666" y="917.6666666666666" type="curve" smooth="yes"/>
      <point x="247.66666666666666" y="976.0" type="line"/>
      <point x="104.0" y="976.0" type="line"/>
      <point x="104.0" y="917.6666666666666" type="line" smooth="yes"/>
      <point x="104.0" y="707.3333333333334"/>
      <point x="166.91666666666666" y="604.4166666666666"/>
    </contour>
    <contour>
      <point x="1198.75" y="0.0" type="line"/>
      <point x="1338.5" y="0.0" type="line"/>
      <point x="1338.5" y="207.75" type="line"/>
      <point x="1419.75" y="207.75" type="line"/>
      <point x="1419.75" y="324.5833333333333" type="line"/>
      <point x="1338.5" y="324.5833333333333" type="line"/>
      <point x="1338.5" y="1112.8333333333333" type="line"/>
      <point x="1154.5833333333333" y="1112.8333333333333" type="line"/>
      <point x="914.4166666666666" y="308.3333333333333" type="line"/>
      <point x="914.4166666666666" y="207.75" type="line"/>
      <point x="1198.75" y="207.75" type="line"/>
    </contour>
    <contour>
      <point x="1045.5" y="324.5833333333333" type="line"/>
      <point x="1198.75" y="901.3333333333334" type="line"/>
      <point x="1198.75" y="324.5833333333333" type="line"/>
    </contour>
  </outline>
</glyph>
<glyph name="AE" format="2">
  <advance width="1206.6666666666667"/>
  <unicode hex="00C6"/>
  <anchor x="611.3333333333334" y="0.0" name="bottom"/>
  <anchor x="611.3333333333334" y="1760.0" name="top"/>
  <outline>
    <contour>
      <point x="60.166666666666664" y="0.0" type="line"/>
      <point x="284.0" y="0.0" type="line"/>
      <point x="344.4166666666667" y="326.8333333333333" type="line"/>
      <point x="600.1666666666666" y="326.8333333333333" type="line"/>
      <point x="600.1666666666666" y="0.0" type="line"/>
      <point x="1131.9166666666667" y="0.0" type="line"/>
      <point x="1131.9166666666667" y="196.58333333333334" type="line"/>
      <point x="832.5833333333334" y="196.58333333333334" type="line"/>
      <point x="832.5833333333334" y="800.75" type="line"/>
      <point x="1108.0" y="800.75" type="line"/>
      <point x="1108.0" y="998.9166666666666" type="line"/>
      <point x="832.5833333333334" y="998.9166666666666" type="line"/>
      <point x="832.5833333333334" y="1563.4166666666667" type="line"/>
      <point x="1124.5833333333333" y="1563.4166666666667" type="line"/>
      <point x="1124.5833333333333" y="1760.0" type="line"/>
      <point x="396.9166666666667" y="1760.0" type="line"/>
    </contour>
    <contour>
      <point x="374.4166666666667" y="503.25" type="line"/>
      <point x="570.4166666666666" y="1564.0" type="line"/>
      <point x="600.1666666666666" y="1565.0" type="line"/>
      <point x="600.1666666666666" y="503.25" type="line"/>
    </contour>
  </outline>
</glyph>
<glyph name="multiply" format="2">
  <advance width="710.0"/>
  <unicode hex="00D7"/>
  <outline>
    <contour>
      <point x="189.33333333333334" y="349.0" type="line"/>
      <point x="355.0" y="514.0833333333334" type="line"/>
      <point x="520.6666666666666" y="349.0" type="line"/>
      <point x="647.3333333333334" y="478.0" type="line"/>
      <point x="483.4166666666667" y="642.5" type="line"/>
      <point x="647.3333333333334" y="807.0" type="line"/>
      <point x="520.6666666666666" y="936.0" type="line"/>
      <point x="355.0" y="770.9166666666666" type="line"/>
      <point x="189.33333333333334" y="936.0" type="line"/>
      <point x="62.666666666666664" y="807.0" type="line"/>
      <point x="226.58333333333334" y="642.5" type="line"/>
      <point x="62.666666666666664" y="478.0" type="line"/>
    </contour>
  </outline>
</glyph>
<glyph name="Oslash" format="2">
  <advance width="900.0"/>
  <unicode hex="00D8"/>
  <anchor x="450.0" y="0.0" name="bottom"/>
  <anchor x="483.6666666666667" y="880.0" name="center"/>
  <anchor x="870.4166666666666" y="10.0" name="ogonek"/>
  <anchor x="450.0" y="1760.0" name="top"/>
  <anchor x="20.0" y="1760.0" name="topleft"/>
  <anchor x="946.9166666666666" y="1760.0" name="topright"/>
  <outline>
    <contour>
      <point x="181.91666666666666" y="-206.0" type="line"/>
      <point x="917.9166666666666" y="1870.0" type="line"/>
      <point x="810.9166666666666" y="1906.0" type="line"/>
      <point x="82.91666666666667" y="-166.0" type="line"/>
    </contour>
    <contour>
      <point x="485.6666666666667" y="-20.0" type="curve" smooth="yes"/>
      <point x="753.8333333333334" y="-20.0"/>
      <point x="848.3333333333334" y="153.83333333333334"/>
      <point x="848.3333333333334" y="500.1666666666667" type="curve" smooth="yes"/>
      <point x="848.3333333333334" y="1288.25" type="line" smooth="yes"/>
      <point x="848.3333333333334" y="1591.25"/>
      <point x="771.8333333333334" y="1781.5833333333333"/>
      <point x="489.8333333333333" y="1781.5833333333333" type="curve" smooth="yes"/>
      <point x="207.83333333333334" y="1781.5833333333333"/>
      <point x="118.16666666666667" y="1591.25"/>
      <point x="118.16666666666667" y="1288.25" type="curve" smooth="yes"/>
      <point x="118.16666666666667" y="500.1666666666667" type="line" smooth="yes"/>
      <point x="118.16666666666667" y="153.83333333333334"/>
      <point x="217.5" y="-20.0"/>
    </contour>
    <contour>
      <point x="485.6666666666667" y="180.5" type="curve" smooth="yes"/>
      <point x="372.5" y="180.5"/>
      <point x="351.4166666666667" y="265.6666666666667"/>
      <point x="351.4166666666667" y="497.75" type="curve" smooth="yes"/>
      <point x="351.4166666666667" y="1301.25" type="line" smooth="yes"/>
      <point x="351.4166666666667" y="1489.75"/>
      <point x="381.75" y="1581.0833333333333"/>
      <point x="489.8333333333333" y="1581.0833333333333" type="curve" smooth="yes"/>
      <point x="594.75" y="1581.0833333333333"/>
      <point x="615.5" y="1487.0833333333333"/>
      <point x="615.5" y="1300.25" type="curve" smooth="yes"/>
      <point x="615.5" y="497.75" type="line" smooth="yes"/>
      <point x="615.5" y="268.5"/>
      <point x="593.4166666666666" y="180.5"/>
    </contour>
  </outline>
</glyph>
<glyph name="Thorn" format="2">
  <advance width="949.9166666666666"/>
  <unicode hex="00DE"/>
  <anchor x="475.25" y="0.0" name="bottom"/>
  <anchor x="475.25" y="1760.0" name="top"/>
  <outline>
    <contour>
      <point x="155.33333333333334" y="0.0" type="line"/>
      <point x="387.1666666666667" y="0.0" type="line"/>
      <point x="387.1666666666667" y="416.1666666666667" type="line"/>
      <point x="533.3333333333334" y="416.1666666666667" type="line" smooth="yes"/>
      <point x="802.9166666666666" y="416.1666666666667"/>
      <point x="873.25" y="610.25"/>
      <point x="873.25" y="958.8333333333334" type="curve" smooth="yes"/>
      <point x="873.25" y="984.5" type="line"/>
      <point x="871.0" y="1304.1666666666667"/>
      <point x="812.1666666666666" y="1498.75"/>
      <point x="529.5833333333334" y="1498.75" type="curve" smooth="yes"/>
      <point x="387.1666666666667" y="1498.75" type="line"/>
      <point x="387.1666666666667" y="1760.0" type="line"/>
      <point x="155.33333333333334" y="1760.0" type="line"/>
    </contour>
    <contour>
      <point x="387.1666666666667" y="609.0" type="line"/>
      <point x="387.1666666666667" y="1316.25" type="line"/>
      <point x="502.75" y="1316.25" type="line" smooth="yes"/>
      <point x="621.0833333333334" y="1316.25"/>
      <point x="641.4166666666666" y="1203.25"/>
      <point x="641.4166666666666" y="987.75" type="curve" smooth="yes"/>
      <point x="641.4166666666666" y="960.25" type="line" smooth="yes"/>
      <point x="641.4166666666666" y="703.1666666666666"/>
      <point x="619.3333333333334" y="609.0"/>
      <point x="499.5833333333333" y="609.0" type="curve" smooth="yes"/>
    </contour>
  </outline>
</glyph>
<glyph name="germandbls" format="2">
  <advance width="1002.25"/>
  <unicode hex="00DF"/>
  <anchor x="501.4166666666667" y="0.0" name="bottom"/>
  <anchor x="501.4166666666667" y="1500.0" name="top"/>
  <outline>
    <contour>
      <point x="140.25" y="0.0" type="line"/>
      <point x="369.6666666666667" y="0.0" type="line"/>
      <point x="369.6666666666667" y="1456.6666666666667" type="line" smooth="yes"/>
      <point x="369.6666666666667" y="1565.0"/>
      <point x="408.6666666666667" y="1599.9166666666667"/>
      <point x="497.75" y="1599.9166666666667" type="curve" smooth="yes"/>
      <point x="599.3333333333334" y="1599.9166666666667"/>
      <point x="632.6666666666666" y="1565.0"/>
      <point x="632.6666666666666" y="1456.6666666666667" type="curve" smooth="yes"/>
      <point x="632.6666666666666" y="1170.0" type="line" smooth="yes"/>
      <point x="632.6666666666666" y="1065.5"/>
      <point x="595.25" y="1024.4166666666667"/>
      <point x="475.25" y="1024.4166666666667" type="curve"/>
      <point x="475.25" y="843.0833333333334" type="line"/>
      <point x="641.0" y="843.0833333333334"/>
      <point x="691.5" y="798.9166666666666"/>
      <point x="691.5" y="656.0" type="curve" smooth="yes"/>
      <point x="691.5" y="395.0" type="line" smooth="yes"/>
      <point x="691.5" y="218.58333333333334"/>
      <point x="651.3333333333334" y="186.33333333333334"/>
      <point x="466.25" y="186.33333333333334" type="curve"/>
      <point x="466.25" y="0.0" type="line"/>
      <point x="570.25" y="0.0" type="line" smooth="yes"/>
      <point x="870.25" y="0.0"/>
      <point x="918.0833333333334" y="177.0"/>
      <point x="918.0833333333334" y="476.0" type="curve" smooth="yes"/>
      <point x="918.0833333333334" y="553.0" type="line" smooth="yes"/>
      <point x="918.0833333333334" y="792.6666666666666"/>
      <point x="867.9166666666666" y="904.4166666666666"/>
      <point x="696.75" y="945.0" type="curve"/>
      <point x="818.25" y="984.75"/>
      <point x="858.0833333333334" y="1060.1666666666667"/>
      <point x="858.0833333333334" y="1220.0" type="curve" smooth="yes"/>
      <point x="858.0833333333334" y="1417.0" type="line" smooth="yes"/>
      <point x="858.0833333333334" y="1691.5"/>
      <point x="754.1666666666666" y="1779.8333333333333"/>
      <point x="489.4166666666667" y="1779.8333333333333" type="curve" smooth="yes"/>
      <point x="206.41666666666666" y="1779.8333333333333"/>
      <point x="140.25" y="1660.0"/>
      <point x="140.25" y="1417.0" type="curve" smooth="yes"/>
    </contour>
  </outline>
</glyph>
<glyph name="ae" format="2">
  <advance width="1392.25"/>
  <unicode hex="00E6"/>
  <anchor x="696.3333333333334" y="0.0" name="bottom"/>
  <anchor x="706.3333333333334" y="1500.0" name="top"/>
  <outline>
    <contour>
      <point x="950.0" y="-18.0" type="curve" smooth="yes"/>
      <point x="1244.8333333333333" y="-18.0"/>
      <point x="1279.25" y="189.25"/>
      <point x="1279.25" y="500.75" type="curve" smooth="yes"/>
      <point x="1279.25" y="564.9166666666666" type="line"/>
      <point x="1051.8333333333333" y="564.9166666666666" type="line"/>
      <point x="1052.25" y="456.4166666666667" type="line" smooth="yes"/>
      <point x="1052.6666666666667" y="295.5833333333333"/>
      <point x="1049.0833333333333" y="170.91666666666666"/>
      <point x="940.6666666666666" y="170.91666666666666" type="curve" smooth="yes"/>
      <point x="837.4166666666666" y="170.91666666666666"/>
      <point x="820.3333333333334" y="266.5833333333333"/>
      <point x="820.3333333333334" y="463.25" type="curve" smooth="yes"/>
      <point x="820.3333333333334" y="734.1666666666666" type="line"/>
      <point x="1281.4166666666667" y="734.1666666666666" type="line"/>
      <point x="1281.4166666666667" y="1037.25" type="line"/>
      <point x="1281.4166666666667" y="1325.4166666666667"/>
      <point x="1223.75" y="1518.0"/>
      <point x="946.6666666666666" y="1518.0" type="curve" smooth="yes"/>
      <point x="833.1666666666666" y="1518.0"/>
      <point x="756.0833333333334" y="1481.75"/>
      <point x="707.25" y="1414.25" type="curve"/>
      <point x="667.3333333333334" y="1482.75"/>
      <point x="599.4166666666666" y="1518.0"/>
      <point x="485.8333333333333" y="1518.0" type="curve" smooth="yes"/>
      <point x="196.5" y="1518.0"/>
      <point x="137.91666666666666" y="1335.75"/>
      <point x="137.91666666666666" y="1072.25" type="curve" smooth="yes"/>
      <point x="137.91666666666666" y="1028.4166666666667" type="line"/>
      <point x="365.6666666666667" y="1028.4166666666667" type="line"/>
      <point x="365.6666666666667" y="1090.3333333333333" type="line" smooth="yes"/>
      <point x="365.6666666666667" y="1260.4166666666667"/>
      <point x="383.3333333333333" y="1329.0833333333333"/>
      <point x="479.1666666666667" y="1329.0833333333333" type="curve" smooth="yes"/>
      <point x="579.8333333333334" y="1329.0833333333333"/>
      <point x="587.9166666666666" y="1232.4166666666667"/>
      <point x="588.5" y="1062.1666666666667" type="curve"/>
      <point x="588.5" y="964.9166666666666" type="line"/>
      <point x="311.5" y="856.5"/>
      <point x="121.33333333333333" y="804.0833333333334"/>
      <point x="118.08333333333333" y="524.0833333333334" type="curve"/>
      <point x="118.08333333333333" y="396.6666666666667" type="line" smooth="yes"/>
      <point x="118.08333333333333" y="137.91666666666666"/>
      <point x="217.83333333333334" y="-13.833333333333334"/>
      <point x="418.1666666666667" y="-13.833333333333334" type="curve" smooth="yes"/>
      <point x="533.25" y="-13.833333333333334"/>
      <point x="643.5833333333334" y="55.166666666666664"/>
      <point x="690.0" y="120.41666666666667" type="curve"/>
      <point x="732.5833333333334" y="35.75"/>
      <point x="817.75" y="-18.0"/>
    </contour>
    <contour>
      <point x="454.75" y="171.33333333333334" type="curve" smooth="yes"/>
      <point x="375.1666666666667" y="171.33333333333334"/>
      <point x="351.3333333333333" y="235.16666666666666"/>
      <point x="351.3333333333333" y="391.8333333333333" type="curve" smooth="yes"/>
      <point x="351.3333333333333" y="534.0833333333334" type="line" smooth="yes"/>
      <point x="351.3333333333333" y="696.3333333333334"/>
      <point x="398.4166666666667" y="729.8333333333334"/>
      <point x="587.5" y="814.0833333333334" type="curve"/>
      <point x="587.5" y="277.4166666666667" type="line"/>
      <point x="574.0" y="230.33333333333334"/>
      <point x="524.25" y="171.33333333333334"/>
    </contour>
    <contour>
      <point x="820.3333333333334" y="896.0833333333334" type="line"/>
      <point x="820.3333333333334" y="1058.75" type="line" smooth="yes"/>
      <point x="820.3333333333334" y="1221.75"/>
      <point x="831.25" y="1332.3333333333333"/>
      <point x="945.25" y="1332.3333333333333" type="curve" smooth="yes"/>
      <point x="1042.5" y="1332.3333333333333"/>
      <point x="1051.8333333333333" y="1242.4166666666667"/>
      <point x="1051.8333333333333" y="1075.5" type="curve" smooth="yes"/>
      <point x="1051.8333333333333" y="896.0833333333334" type="line"/>
    </contour>
  </outline>
</glyph>
<glyph name="eth" format="2">
  <advance width="986.75"/>
  <unicode hex="00F0"/>
  <outline>
    <contour>
      <point x="473.5" y="-20.416666666666668" type="curve" smooth="yes"/>
      <point x="783.75" y="-20.416666666666668"/>
      <point x="847.4166666666666" y="185.66666666666666"/>
      <point x="847.4166666666666" y="520.5833333333334" type="curve" smooth="yes"/>
      <point x="847.4166666666666" y="887.3333333333334" type="line" smooth="yes"/>
      <point x="847.4166666666666" y="992.8333333333334"/>
      <point x="812.9166666666666" y="1405.0"/>
      <point x="761.3333333333334" y="1504.0833333333333" type="curve"/>
      <point x="946.1666666666666" y="1609.0833333333333" type="line"/>
      <point x="884.25" y="1735.0" type="line"/>
      <point x="684.6666666666666" y="1622.0833333333333" type="line"/>
      <point x="604.1666666666666" y="1720.25"/>
      <point x="492.5" y="1769.6666666666667"/>
      <point x="372.75" y="1779.8333333333333" type="curve"/>
      <point x="276.5833333333333" y="1632.9166666666667" type="line"/>
      <point x="346.0833333333333" y="1618.0833333333333"/>
      <point x="428.6666666666667" y="1584.1666666666667"/>
      <point x="489.9166666666667" y="1513.75" type="curve"/>
      <point x="289.8333333333333" y="1399.0" type="line"/>
      <point x="351.3333333333333" y="1273.0833333333333" type="line"/>
      <point x="565.0" y="1394.9166666666667" type="line"/>
      <point x="593.0" y="1332.6666666666667"/>
      <point x="609.0833333333334" y="1059.3333333333333"/>
      <point x="609.0833333333334" y="1032.0833333333333" type="curve"/>
      <point x="570.75" y="1074.25"/>
      <point x="511.0" y="1098.1666666666667"/>
      <point x="439.25" y="1099.75" type="curve" smooth="yes"/>
      <point x="188.66666666666666" y="1106.5"/>
      <point x="100.25" y="942.0"/>
      <point x="100.25" y="577.25" type="curve" smooth="yes"/>
      <point x="100.25" y="470.75" type="line" smooth="yes"/>
      <point x="100.25" y="149.66666666666666"/>
      <point x="185.08333333333334" y="-20.416666666666668"/>
    </contour>
    <contour>
      <point x="472.0833333333333" y="180.5" type="curve" smooth="yes"/>
      <point x="364.4166666666667" y="180.5"/>
      <point x="332.6666666666667" y="235.41666666666666"/>
      <point x="332.6666666666667" y="437.5" type="curve" smooth="yes"/>
      <point x="332.6666666666667" y="592.5833333333334" type="line" smooth="yes"/>
      <point x="332.6666666666667" y="821.4166666666666"/>
      <point x="359.25" y="904.5"/>
      <point x="465.6666666666667" y="904.5" type="curve" smooth="yes"/>
      <point x="546.9166666666666" y="904.5"/>
      <point x="604.0833333333334" y="860.75"/>
      <point x="615.5833333333334" y="821.5" type="curve"/>
      <point x="615.5833333333334" y="470.5833333333333" type="line" smooth="yes"/>
      <point x="615.5833333333334" y="267.5"/>
      <point x="586.25" y="180.5"/>
    </contour>
  </outline>
</glyph>
<glyph name="divide" format="2">
  <advance width="804.0"/>
  <unicode hex="00F7"/>
  <outline>
    <contour>
      <point x="94.0" y="657.25" type="line"/>
      <point x="710.0" y="657.25" type="line"/>
      <point x="710.0" y="851.3333333333334" type="line"/>
      <point x="94.0" y="851.3333333333334" type="line"/>
    </contour>
    <contour>
      <point x="282.1666666666667" y="213.66666666666666" type="line"/>
      <point x="521.8333333333334" y="213.66666666666666" type="line"/>
      <point x="521.8333333333334" y="511.6666666666667" type="line"/>
      <point x="282.1666666666667" y="511.6666666666667" type="line"/>
    </contour>
    <contour>
      <point x="282.1666666666667" y="999.3333333333334" type="line"/>
      <point x="521.8333333333334" y="999.3333333333334" type="line"/>
      <point x="521.8333333333334" y="1297.3333333333333" type="line"/>
      <point x="282.1666666666667" y="1297.3333333333333" type="line"/>
    </contour>
  </outline>
</glyph>
